G04*
G04 #@! TF.GenerationSoftware,Altium Limited,Altium Designer,23.3.1 (30)*
G04*
G04 Layer_Color=2752767*
%FSLAX25Y25*%
%MOIN*%
G70*
G04*
G04 #@! TF.SameCoordinates,CC060F13-8039-4013-9EB4-17962B1888DE*
G04*
G04*
G04 #@! TF.FilePolarity,Positive*
G04*
G01*
G75*
%ADD134C,0.00667*%
%ADD135C,0.00500*%
D134*
X16764Y147636D02*
G03*
X16764Y147636I-2000J0D01*
G01*
Y167321D02*
G03*
X16764Y167321I-2000J0D01*
G01*
D135*
X267354Y293638D02*
X265354Y297638D01*
X269354D01*
X267354Y293638D01*
X274425Y286567D02*
X272425Y290567D01*
X276425D01*
X274425Y286567D01*
X281496Y279496D02*
X279496Y283496D01*
X283496D01*
X281496Y279496D01*
X288567Y272425D02*
X286567Y276425D01*
X290567D01*
X288567Y272425D01*
X295638Y265354D02*
X293638Y269354D01*
X297638D01*
X295638Y265354D01*
X170126Y72803D02*
Y76803D01*
X174126D01*
Y72803D01*
X170126D01*
X140598D02*
Y76803D01*
X144598D01*
Y72803D01*
X140598D01*
X248866D02*
Y76803D01*
X252866D01*
Y72803D01*
X248866D01*
X219339D02*
Y76803D01*
X223339D01*
Y72803D01*
X219339D01*
X295276Y293276D02*
X296276Y294276D01*
X297276D01*
X296276Y295276D01*
X297276Y296276D01*
X296276D01*
X295276Y297276D01*
X294276Y296276D01*
X293276D01*
X294276Y295276D01*
X293276Y294276D01*
X294276D01*
X295276Y293276D01*
X19685D02*
X20685Y294276D01*
X21685D01*
X20685Y295276D01*
X21685Y296276D01*
X20685D01*
X19685Y297276D01*
X18685Y296276D01*
X17685D01*
X18685Y295276D01*
X17685Y294276D01*
X18685D01*
X19685Y293276D01*
X295276Y17685D02*
X296276Y18685D01*
X297276D01*
X296276Y19685D01*
X297276Y20685D01*
X296276D01*
X295276Y21685D01*
X294276Y20685D01*
X293276D01*
X294276Y19685D01*
X293276Y18685D01*
X294276D01*
X295276Y17685D01*
X19685D02*
X20685Y18685D01*
X21685D01*
X20685Y19685D01*
X21685Y20685D01*
X20685D01*
X19685Y21685D01*
X18685Y20685D01*
X17685D01*
X18685Y19685D01*
X17685Y18685D01*
X18685D01*
X19685Y17685D01*
X61858Y72803D02*
Y76803D01*
X65858D01*
Y72803D01*
X61858D01*
X91386D02*
Y76803D01*
X95386D01*
Y72803D01*
X91386D01*
X170362Y155480D02*
Y159480D01*
X174362D01*
Y155480D01*
X170362D01*
X140835D02*
Y159480D01*
X144835D01*
Y155480D01*
X140835D01*
X249102D02*
Y159480D01*
X253102D01*
Y155480D01*
X249102D01*
X219575D02*
Y159480D01*
X223575D01*
Y155480D01*
X219575D01*
X91622D02*
Y159480D01*
X95622D01*
Y155480D01*
X91622D01*
X62094D02*
Y159480D01*
X66094D01*
Y155480D01*
X62094D01*
X219339Y238158D02*
Y242158D01*
X223339D01*
Y238158D01*
X219339D01*
X248866D02*
Y242158D01*
X252866D01*
Y238158D01*
X248866D01*
X140598D02*
Y242158D01*
X144598D01*
Y238158D01*
X140598D01*
X170126D02*
Y242158D01*
X174126D01*
Y238158D01*
X170126D01*
X61858D02*
Y242158D01*
X65858D01*
Y238158D01*
X61858D01*
X91386D02*
Y242158D01*
X95386D01*
Y238158D01*
X91386D01*
X37476Y286402D02*
Y285402D01*
X39476D01*
Y286402D01*
X40476D01*
Y288402D01*
X39476D01*
Y289402D01*
X37476D01*
Y288402D01*
X36476D01*
Y286402D01*
X37476D01*
X40126Y275165D02*
X41126Y277165D01*
X40126Y279165D01*
X42126Y278165D01*
X44126Y279165D01*
X43126Y277165D01*
X44126Y275165D01*
X42126Y276165D01*
X40126Y275165D01*
Y279102D02*
X41126Y281102D01*
X40126Y283102D01*
X42126Y282102D01*
X44126Y283102D01*
X43126Y281102D01*
X44126Y279102D01*
X42126Y280102D01*
X40126Y279102D01*
Y283039D02*
X41126Y285039D01*
X40126Y287039D01*
X42126Y286039D01*
X44126Y287039D01*
X43126Y285039D01*
X44126Y283039D01*
X42126Y284039D01*
X40126Y283039D01*
X60598Y275165D02*
X61598Y277165D01*
X60598Y279165D01*
X62598Y278165D01*
X64598Y279165D01*
X63598Y277165D01*
X64598Y275165D01*
X62598Y276165D01*
X60598Y275165D01*
Y279102D02*
X61598Y281102D01*
X60598Y283102D01*
X62598Y282102D01*
X64598Y283102D01*
X63598Y281102D01*
X64598Y279102D01*
X62598Y280102D01*
X60598Y279102D01*
Y283039D02*
X61598Y285039D01*
X60598Y287039D01*
X62598Y286039D01*
X64598Y287039D01*
X63598Y285039D01*
X64598Y283039D01*
X62598Y284039D01*
X60598Y283039D01*
X65142Y306874D02*
Y305874D01*
X67142D01*
Y306874D01*
X68142D01*
Y308874D01*
X67142D01*
Y309874D01*
X65142D01*
Y308874D01*
X64142D01*
Y306874D01*
X65142D01*
X72409Y304693D02*
X73409Y306693D01*
X72409Y308693D01*
X74409Y307693D01*
X76409Y308693D01*
X75409Y306693D01*
X76409Y304693D01*
X74409Y305693D01*
X72409Y304693D01*
Y300756D02*
X73409Y302756D01*
X72409Y304756D01*
X74409Y303756D01*
X76409Y304756D01*
X75409Y302756D01*
X76409Y300756D01*
X74409Y301756D01*
X72409Y300756D01*
Y296819D02*
X73409Y298819D01*
X72409Y300819D01*
X74409Y299819D01*
X76409Y300819D01*
X75409Y298819D01*
X76409Y296819D01*
X74409Y297819D01*
X72409Y296819D01*
X93276Y300362D02*
X94276Y302362D01*
X93276Y304362D01*
X95276Y303362D01*
X97276Y304362D01*
X96276Y302362D01*
X97276Y300362D01*
X95276Y301362D01*
X93276Y300362D01*
Y296425D02*
X94276Y298425D01*
X93276Y300425D01*
X95276Y299425D01*
X97276Y300425D01*
X96276Y298425D01*
X97276Y296425D01*
X95276Y297425D01*
X93276Y296425D01*
Y304299D02*
X94276Y306299D01*
X93276Y308299D01*
X95276Y307299D01*
X97276Y308299D01*
X96276Y306299D01*
X97276Y304299D01*
X95276Y305299D01*
X93276Y304299D01*
X157661Y295850D02*
Y294850D01*
X159661D01*
Y295850D01*
X160661D01*
Y297850D01*
X159661D01*
Y298850D01*
X157661D01*
Y297850D01*
X156661D01*
Y295850D01*
X157661D01*
Y299394D02*
Y298394D01*
X159661D01*
Y299394D01*
X160661D01*
Y301394D01*
X159661D01*
Y302394D01*
X157661D01*
Y301394D01*
X156661D01*
Y299394D01*
X157661D01*
Y306480D02*
Y305480D01*
X159661D01*
Y306480D01*
X160661D01*
Y308480D01*
X159661D01*
Y309480D01*
X157661D01*
Y308480D01*
X156661D01*
Y306480D01*
X157661D01*
Y302937D02*
Y301937D01*
X159661D01*
Y302937D01*
X160661D01*
Y304937D01*
X159661D01*
Y305937D01*
X157661D01*
Y304937D01*
X156661D01*
Y302937D01*
X157661D01*
X161598Y299394D02*
Y298394D01*
X163598D01*
Y299394D01*
X164598D01*
Y301394D01*
X163598D01*
Y302394D01*
X161598D01*
Y301394D01*
X160598D01*
Y299394D01*
X161598D01*
Y295850D02*
Y294850D01*
X163598D01*
Y295850D01*
X164598D01*
Y297850D01*
X163598D01*
Y298850D01*
X161598D01*
Y297850D01*
X160598D01*
Y295850D01*
X161598D01*
Y306480D02*
Y305480D01*
X163598D01*
Y306480D01*
X164598D01*
Y308480D01*
X163598D01*
Y309480D01*
X161598D01*
Y308480D01*
X160598D01*
Y306480D01*
X161598D01*
Y302937D02*
Y301937D01*
X163598D01*
Y302937D01*
X164598D01*
Y304937D01*
X163598D01*
Y305937D01*
X161598D01*
Y304937D01*
X160598D01*
Y302937D01*
X161598D01*
X261992Y133252D02*
Y132252D01*
X263992D01*
Y133252D01*
X264992D01*
Y135252D01*
X263992D01*
Y136252D01*
X261992D01*
Y135252D01*
X260992D01*
Y133252D01*
X261992D01*
X183252D02*
Y132252D01*
X185252D01*
Y133252D01*
X186252D01*
Y135252D01*
X185252D01*
Y136252D01*
X183252D01*
Y135252D01*
X182252D01*
Y133252D01*
X183252D01*
X104512D02*
Y132252D01*
X106512D01*
Y133252D01*
X107512D01*
Y135252D01*
X106512D01*
Y136252D01*
X104512D01*
Y135252D01*
X103512D01*
Y133252D01*
X104512D01*
X247819Y38370D02*
Y37370D01*
X249819D01*
Y38370D01*
X250819D01*
Y40370D01*
X249819D01*
Y41370D01*
X247819D01*
Y40370D01*
X246819D01*
Y38370D01*
X247819D01*
X169079D02*
Y37370D01*
X171079D01*
Y38370D01*
X172079D01*
Y40370D01*
X171079D01*
Y41370D01*
X169079D01*
Y40370D01*
X168079D01*
Y38370D01*
X169079D01*
X90339D02*
Y37370D01*
X92339D01*
Y38370D01*
X93339D01*
Y40370D01*
X92339D01*
Y41370D01*
X90339D01*
Y40370D01*
X89339D01*
Y38370D01*
X90339D01*
X267899Y32858D02*
Y31858D01*
X269899D01*
Y32858D01*
X270899D01*
Y34858D01*
X269899D01*
Y35858D01*
X267899D01*
Y34858D01*
X266899D01*
Y32858D01*
X267899D01*
X226362Y288665D02*
Y287665D01*
X228362D01*
Y288665D01*
X229362D01*
Y290665D01*
X228362D01*
Y291665D01*
X226362D01*
Y290665D01*
X225362D01*
Y288665D01*
X226362D01*
X226362Y292406D02*
Y291406D01*
X228362D01*
Y292406D01*
X229362D01*
Y294406D01*
X228362D01*
Y295406D01*
X226362D01*
Y294406D01*
X225362D01*
Y292406D01*
X226362D01*
Y284925D02*
Y283925D01*
X228362D01*
Y284925D01*
X229362D01*
Y286925D01*
X228362D01*
Y287925D01*
X226362D01*
Y286925D01*
X225362D01*
Y284925D01*
X226362D01*
X248893Y305693D02*
Y304693D01*
X250893D01*
Y305693D01*
X251893D01*
Y307693D01*
X250893D01*
Y308693D01*
X248893D01*
Y307693D01*
X247893D01*
Y305693D01*
X248893D01*
X283752D02*
Y304693D01*
X285752D01*
Y305693D01*
X286752D01*
Y307693D01*
X285752D01*
Y308693D01*
X283752D01*
Y307693D01*
X282752D01*
Y305693D01*
X283752D01*
X177134Y280964D02*
X178134Y282964D01*
X177134Y284964D01*
X179134Y283964D01*
X181134Y284964D01*
X180134Y282964D01*
X181134Y280964D01*
X179134Y281964D01*
X177134Y280964D01*
X181071Y276240D02*
X182071Y278240D01*
X181071Y280240D01*
X183071Y279240D01*
X185071Y280240D01*
X184071Y278240D01*
X185071Y276240D01*
X183071Y277240D01*
X181071Y276240D01*
X195063Y293488D02*
Y292488D01*
X197063D01*
Y293488D01*
X198063D01*
Y295488D01*
X197063D01*
Y296488D01*
X195063D01*
Y295488D01*
X194063D01*
Y293488D01*
X195063D01*
X199000D02*
Y292488D01*
X201000D01*
Y293488D01*
X202000D01*
Y295488D01*
X201000D01*
Y296488D01*
X199000D01*
Y295488D01*
X198000D01*
Y293488D01*
X199000D01*
X202937D02*
Y292488D01*
X204937D01*
Y293488D01*
X205937D01*
Y295488D01*
X204937D01*
Y296488D01*
X202937D01*
Y295488D01*
X201937D01*
Y293488D01*
X202937D01*
X264929Y265323D02*
X265929Y267323D01*
X264929Y269323D01*
X266929Y268323D01*
X268929Y269323D01*
X267929Y267323D01*
X268929Y265323D01*
X266929Y266323D01*
X264929Y265323D01*
X269654Y260205D02*
X270654Y262205D01*
X269654Y264205D01*
X271654Y263205D01*
X273654Y264205D01*
X272654Y262205D01*
X273654Y260205D01*
X271654Y261205D01*
X269654Y260205D01*
Y270441D02*
X270654Y272441D01*
X269654Y274441D01*
X271654Y273441D01*
X273654Y274441D01*
X272654Y272441D01*
X273654Y270441D01*
X271654Y271441D01*
X269654Y270441D01*
X123589Y42596D02*
X124589Y44596D01*
X123589Y46596D01*
X125589Y45596D01*
X127589Y46596D01*
X126589Y44596D01*
X127589Y42596D01*
X125589Y43596D01*
X123589Y42596D01*
X127921Y37478D02*
X128921Y39478D01*
X127921Y41478D01*
X129921Y40478D01*
X131921Y41478D01*
X130921Y39478D01*
X131921Y37478D01*
X129921Y38478D01*
X127921Y37478D01*
X127923Y30178D02*
X128923Y32178D01*
X127923Y34178D01*
X129923Y33178D01*
X131923Y34178D01*
X130923Y32178D01*
X131923Y30178D01*
X129923Y31178D01*
X127923Y30178D01*
X123591Y25060D02*
X124591Y27060D01*
X123591Y29060D01*
X125591Y28060D01*
X127591Y29060D01*
X126591Y27060D01*
X127591Y25060D01*
X125591Y26060D01*
X123591Y25060D01*
X202329Y42596D02*
X203329Y44596D01*
X202329Y46596D01*
X204329Y45596D01*
X206329Y46596D01*
X205329Y44596D01*
X206329Y42596D01*
X204329Y43596D01*
X202329Y42596D01*
X206661Y37478D02*
X207661Y39478D01*
X206661Y41478D01*
X208661Y40478D01*
X210661Y41478D01*
X209661Y39478D01*
X210661Y37478D01*
X208661Y38478D01*
X206661Y37478D01*
X206663Y30178D02*
X207663Y32178D01*
X206663Y34178D01*
X208663Y33178D01*
X210663Y34178D01*
X209663Y32178D01*
X210663Y30178D01*
X208663Y31178D01*
X206663Y30178D01*
X202331Y25060D02*
X203331Y27060D01*
X202331Y29060D01*
X204331Y28060D01*
X206331Y29060D01*
X205331Y27060D01*
X206331Y25060D01*
X204331Y26060D01*
X202331Y25060D01*
X281069Y42596D02*
X282069Y44596D01*
X281069Y46596D01*
X283069Y45596D01*
X285069Y46596D01*
X284069Y44596D01*
X285069Y42596D01*
X283069Y43596D01*
X281069Y42596D01*
X285402Y37478D02*
X286402Y39478D01*
X285402Y41478D01*
X287402Y40478D01*
X289402Y41478D01*
X288402Y39478D01*
X289402Y37478D01*
X287402Y38478D01*
X285402Y37478D01*
X285403Y30178D02*
X286403Y32178D01*
X285403Y34178D01*
X287403Y33178D01*
X289403Y34178D01*
X288403Y32178D01*
X289403Y30178D01*
X287403Y31178D01*
X285403Y30178D01*
X281071Y25060D02*
X282071Y27060D01*
X281071Y29060D01*
X283071Y28060D01*
X285071Y29060D01*
X284071Y27060D01*
X285071Y25060D01*
X283071Y26060D01*
X281071Y25060D01*
X281071Y125272D02*
X282071Y127272D01*
X281071Y129272D01*
X283071Y128272D01*
X285071Y129272D01*
X284071Y127272D01*
X285071Y125272D01*
X283071Y126272D01*
X281071Y125272D01*
X285403Y120154D02*
X286403Y122154D01*
X285403Y124154D01*
X287403Y123154D01*
X289403Y124154D01*
X288403Y122154D01*
X289403Y120154D01*
X287403Y121154D01*
X285403Y120154D01*
X285405Y112854D02*
X286405Y114854D01*
X285405Y116854D01*
X287405Y115854D01*
X289405Y116854D01*
X288405Y114854D01*
X289405Y112854D01*
X287405Y113854D01*
X285405Y112854D01*
X281072Y107736D02*
X282072Y109736D01*
X281072Y111736D01*
X283072Y110736D01*
X285072Y111736D01*
X284072Y109736D01*
X285072Y107736D01*
X283072Y108736D01*
X281072Y107736D01*
X202329Y125274D02*
X203329Y127273D01*
X202329Y129273D01*
X204329Y128273D01*
X206329Y129273D01*
X205329Y127273D01*
X206329Y125274D01*
X204329Y126274D01*
X202329Y125274D01*
X206661Y120155D02*
X207661Y122155D01*
X206661Y124155D01*
X208661Y123155D01*
X210661Y124155D01*
X209661Y122155D01*
X210661Y120155D01*
X208661Y121155D01*
X206661Y120155D01*
X206663Y112855D02*
X207663Y114855D01*
X206663Y116855D01*
X208663Y115855D01*
X210663Y116855D01*
X209663Y114855D01*
X210663Y112855D01*
X208663Y113855D01*
X206663Y112855D01*
X202331Y107737D02*
X203331Y109737D01*
X202331Y111737D01*
X204331Y110737D01*
X206331Y111737D01*
X205331Y109737D01*
X206331Y107737D01*
X204331Y108737D01*
X202331Y107737D01*
X123589Y125274D02*
X124589Y127273D01*
X123589Y129273D01*
X125589Y128273D01*
X127589Y129273D01*
X126589Y127273D01*
X127589Y125274D01*
X125589Y126274D01*
X123589Y125274D01*
X127921Y120155D02*
X128921Y122155D01*
X127921Y124155D01*
X129921Y123155D01*
X131921Y124155D01*
X130921Y122155D01*
X131921Y120155D01*
X129921Y121155D01*
X127921Y120155D01*
X127923Y112855D02*
X128923Y114855D01*
X127923Y116855D01*
X129923Y115855D01*
X131923Y116855D01*
X130923Y114855D01*
X131923Y112855D01*
X129923Y113855D01*
X127923Y112855D01*
X123591Y107737D02*
X124591Y109737D01*
X123591Y111737D01*
X125591Y110737D01*
X127591Y111737D01*
X126591Y109737D01*
X127591Y107737D01*
X125591Y108737D01*
X123591Y107737D01*
X123589Y207951D02*
X124589Y209951D01*
X123589Y211951D01*
X125589Y210951D01*
X127589Y211951D01*
X126589Y209951D01*
X127589Y207951D01*
X125589Y208951D01*
X123589Y207951D01*
X127921Y202833D02*
X128921Y204833D01*
X127921Y206833D01*
X129921Y205833D01*
X131921Y206833D01*
X130921Y204833D01*
X131921Y202833D01*
X129921Y203833D01*
X127921Y202833D01*
X127923Y195533D02*
X128923Y197533D01*
X127923Y199533D01*
X129923Y198533D01*
X131923Y199533D01*
X130923Y197533D01*
X131923Y195533D01*
X129923Y196533D01*
X127923Y195533D01*
X123591Y190415D02*
X124591Y192414D01*
X123591Y194414D01*
X125591Y193414D01*
X127591Y194414D01*
X126591Y192414D01*
X127591Y190415D01*
X125591Y191414D01*
X123591Y190415D01*
X202331Y207949D02*
X203331Y209949D01*
X202331Y211949D01*
X204331Y210949D01*
X206331Y211949D01*
X205331Y209949D01*
X206331Y207949D01*
X204331Y208949D01*
X202331Y207949D01*
X206663Y202831D02*
X207663Y204831D01*
X206663Y206831D01*
X208663Y205831D01*
X210663Y206831D01*
X209663Y204831D01*
X210663Y202831D01*
X208663Y203831D01*
X206663Y202831D01*
X206664Y195531D02*
X207664Y197531D01*
X206664Y199531D01*
X208664Y198531D01*
X210664Y199531D01*
X209664Y197531D01*
X210664Y195531D01*
X208664Y196531D01*
X206664Y195531D01*
X202332Y190413D02*
X203332Y192413D01*
X202332Y194413D01*
X204332Y193413D01*
X206332Y194413D01*
X205332Y192413D01*
X206332Y190413D01*
X204332Y191413D01*
X202332Y190413D01*
X281072D02*
X282072Y192413D01*
X281072Y194413D01*
X283072Y193413D01*
X285072Y194413D01*
X284072Y192413D01*
X285072Y190413D01*
X283072Y191413D01*
X281072Y190413D01*
X285405Y195531D02*
X286405Y197531D01*
X285405Y199531D01*
X287405Y198531D01*
X289405Y199531D01*
X288405Y197531D01*
X289405Y195531D01*
X287405Y196531D01*
X285405Y195531D01*
X285403Y202831D02*
X286403Y204831D01*
X285403Y206831D01*
X287403Y205831D01*
X289403Y206831D01*
X288403Y204831D01*
X289403Y202831D01*
X287403Y203831D01*
X285403Y202831D01*
X281071Y207949D02*
X282071Y209949D01*
X281071Y211949D01*
X283071Y210949D01*
X285071Y211949D01*
X284071Y209949D01*
X285071Y207949D01*
X283071Y208949D01*
X281071Y207949D01*
X263175Y24984D02*
Y23984D01*
X265175D01*
Y24984D01*
X266175D01*
Y26984D01*
X265175D01*
Y27984D01*
X263175D01*
Y26984D01*
X262175D01*
Y24984D01*
X263175D01*
X266718D02*
Y23984D01*
X268718D01*
Y24984D01*
X269718D01*
Y26984D01*
X268718D01*
Y27984D01*
X266718D01*
Y26984D01*
X265718D01*
Y24984D01*
X266718D01*
X267899Y36795D02*
Y35795D01*
X269899D01*
Y36795D01*
X270899D01*
Y38795D01*
X269899D01*
Y39795D01*
X267899D01*
Y38795D01*
X266899D01*
Y36795D01*
X267899D01*
X259343Y29315D02*
Y28315D01*
X261343D01*
Y29315D01*
X262343D01*
Y31315D01*
X261343D01*
Y32315D01*
X259343D01*
Y31315D01*
X258343D01*
Y29315D01*
X259343D01*
X263962Y36795D02*
Y35795D01*
X265962D01*
Y36795D01*
X266962D01*
Y38795D01*
X265962D01*
Y39795D01*
X263962D01*
Y38795D01*
X262962D01*
Y36795D01*
X263962D01*
Y32858D02*
Y31858D01*
X265962D01*
Y32858D01*
X266962D01*
Y34858D01*
X265962D01*
Y35858D01*
X263962D01*
Y34858D01*
X262962D01*
Y32858D01*
X263962D01*
X237976Y45063D02*
Y44063D01*
X239976D01*
Y45063D01*
X240976D01*
Y47063D01*
X239976D01*
Y48063D01*
X237976D01*
Y47063D01*
X236976D01*
Y45063D01*
X237976D01*
Y49394D02*
Y48394D01*
X239976D01*
Y49394D01*
X240976D01*
Y51394D01*
X239976D01*
Y52394D01*
X237976D01*
Y51394D01*
X236976D01*
Y49394D01*
X237976D01*
X229709Y45457D02*
Y44457D01*
X231709D01*
Y45457D01*
X232709D01*
Y47457D01*
X231709D01*
Y48457D01*
X229709D01*
Y47457D01*
X228709D01*
Y45457D01*
X229709D01*
Y49394D02*
Y48394D01*
X231709D01*
Y49394D01*
X232709D01*
Y51394D01*
X231709D01*
Y52394D01*
X229709D01*
Y51394D01*
X228709D01*
Y49394D01*
X229709D01*
X234039D02*
Y48394D01*
X236039D01*
Y49394D01*
X237039D01*
Y51394D01*
X236039D01*
Y52394D01*
X234039D01*
Y51394D01*
X233039D01*
Y49394D01*
X234039D01*
Y45457D02*
Y44457D01*
X236039D01*
Y45457D01*
X237039D01*
Y47457D01*
X236039D01*
Y48457D01*
X234039D01*
Y47457D01*
X233039D01*
Y45457D01*
X234039D01*
X59024Y294063D02*
X60024Y296063D01*
X59024Y298063D01*
X61024Y297063D01*
X63024Y298063D01*
X62024Y296063D01*
X63024Y294063D01*
X61024Y295063D01*
X59024Y294063D01*
X51150D02*
X52150Y296063D01*
X51150Y298063D01*
X53150Y297063D01*
X55150Y298063D01*
X54150Y296063D01*
X55150Y294063D01*
X53150Y295063D01*
X51150Y294063D01*
X55087D02*
X56087Y296063D01*
X55087Y298063D01*
X57087Y297063D01*
X59087Y298063D01*
X58087Y296063D01*
X59087Y294063D01*
X57087Y295063D01*
X55087Y294063D01*
X219079Y132071D02*
Y131071D01*
X221079D01*
Y132071D01*
X222079D01*
Y134071D01*
X221079D01*
Y135071D01*
X219079D01*
Y134071D01*
X218079D01*
Y132071D01*
X219079D01*
X214748D02*
Y131071D01*
X216748D01*
Y132071D01*
X217748D01*
Y134071D01*
X216748D01*
Y135071D01*
X214748D01*
Y134071D01*
X213748D01*
Y132071D01*
X214748D01*
Y128134D02*
Y127134D01*
X216748D01*
Y128134D01*
X217748D01*
Y130134D01*
X216748D01*
Y131134D01*
X214748D01*
Y130134D01*
X213748D01*
Y128134D01*
X214748D01*
Y136008D02*
Y135008D01*
X216748D01*
Y136008D01*
X217748D01*
Y138008D01*
X216748D01*
Y139008D01*
X214748D01*
Y138008D01*
X213748D01*
Y136008D01*
X214748D01*
X219079D02*
Y135008D01*
X221079D01*
Y136008D01*
X222079D01*
Y138008D01*
X221079D01*
Y139008D01*
X219079D01*
Y138008D01*
X218079D01*
Y136008D01*
X219079D01*
Y128134D02*
Y127134D01*
X221079D01*
Y128134D01*
X222079D01*
Y130134D01*
X221079D01*
Y131134D01*
X219079D01*
Y130134D01*
X218079D01*
Y128134D01*
X219079D01*
X232858Y118685D02*
Y117685D01*
X234858D01*
Y118685D01*
X235858D01*
Y120685D01*
X234858D01*
Y121685D01*
X232858D01*
Y120685D01*
X231858D01*
Y118685D01*
X232858D01*
X228528D02*
Y117685D01*
X230528D01*
Y118685D01*
X231528D01*
Y120685D01*
X230528D01*
Y121685D01*
X228528D01*
Y120685D01*
X227528D01*
Y118685D01*
X228528D01*
X232858Y114748D02*
Y113748D01*
X234858D01*
Y114748D01*
X235858D01*
Y116748D01*
X234858D01*
Y117748D01*
X232858D01*
Y116748D01*
X231858D01*
Y114748D01*
X232858D01*
Y122622D02*
Y121622D01*
X234858D01*
Y122622D01*
X235858D01*
Y124622D01*
X234858D01*
Y125622D01*
X232858D01*
Y124622D01*
X231858D01*
Y122622D01*
X232858D01*
X228528Y114748D02*
Y113748D01*
X230528D01*
Y114748D01*
X231528D01*
Y116748D01*
X230528D01*
Y117748D01*
X228528D01*
Y116748D01*
X227528D01*
Y114748D01*
X228528D01*
Y122622D02*
Y121622D01*
X230528D01*
Y122622D01*
X231528D01*
Y124622D01*
X230528D01*
Y125622D01*
X228528D01*
Y124622D01*
X227528D01*
Y122622D01*
X228528D01*
X245850Y130496D02*
Y129496D01*
X247850D01*
Y130496D01*
X248850D01*
Y132496D01*
X247850D01*
Y133496D01*
X245850D01*
Y132496D01*
X244850D01*
Y130496D01*
X245850D01*
X249787D02*
Y129496D01*
X251787D01*
Y130496D01*
X252787D01*
Y132496D01*
X251787D01*
Y133496D01*
X249787D01*
Y132496D01*
X248787D01*
Y130496D01*
X249787D01*
X253724D02*
Y129496D01*
X255724D01*
Y130496D01*
X256724D01*
Y132496D01*
X255724D01*
Y133496D01*
X253724D01*
Y132496D01*
X252724D01*
Y130496D01*
X253724D01*
X249787Y127347D02*
Y126347D01*
X251787D01*
Y127347D01*
X252787D01*
Y129347D01*
X251787D01*
Y130347D01*
X249787D01*
Y129347D01*
X248787D01*
Y127347D01*
X249787D01*
X253724D02*
Y126347D01*
X255724D01*
Y127347D01*
X256724D01*
Y129347D01*
X255724D01*
Y130347D01*
X253724D01*
Y129347D01*
X252724D01*
Y127347D01*
X253724D01*
X234105Y136205D02*
Y135205D01*
X236105D01*
Y136205D01*
X237105D01*
Y138205D01*
X236105D01*
Y139205D01*
X234105D01*
Y138205D01*
X233105D01*
Y136205D01*
X234105D01*
X266718Y107661D02*
Y106661D01*
X268718D01*
Y107661D01*
X269718D01*
Y109661D01*
X268718D01*
Y110661D01*
X266718D01*
Y109661D01*
X265718D01*
Y107661D01*
X266718D01*
X241913Y114748D02*
Y113748D01*
X243913D01*
Y114748D01*
X244913D01*
Y116748D01*
X243913D01*
Y117748D01*
X241913D01*
Y116748D01*
X240913D01*
Y114748D01*
X241913D01*
X237583Y122622D02*
Y121622D01*
X239583D01*
Y122622D01*
X240583D01*
Y124622D01*
X239583D01*
Y125622D01*
X237583D01*
Y124622D01*
X236583D01*
Y122622D01*
X237583D01*
Y114748D02*
Y113748D01*
X239583D01*
Y114748D01*
X240583D01*
Y116748D01*
X239583D01*
Y117748D01*
X237583D01*
Y116748D01*
X236583D01*
Y114748D01*
X237583D01*
X241913Y118685D02*
Y117685D01*
X243913D01*
Y118685D01*
X244913D01*
Y120685D01*
X243913D01*
Y121685D01*
X241913D01*
Y120685D01*
X240913D01*
Y118685D01*
X241913D01*
X237583D02*
Y117685D01*
X239583D01*
Y118685D01*
X240583D01*
Y120685D01*
X239583D01*
Y121685D01*
X237583D01*
Y120685D01*
X236583D01*
Y118685D01*
X237583D01*
X267899Y119472D02*
Y118472D01*
X269899D01*
Y119472D01*
X270899D01*
Y121472D01*
X269899D01*
Y122472D01*
X267899D01*
Y121472D01*
X266899D01*
Y119472D01*
X267899D01*
Y115535D02*
Y114535D01*
X269899D01*
Y115535D01*
X270899D01*
Y117535D01*
X269899D01*
Y118535D01*
X267899D01*
Y117535D01*
X266899D01*
Y115535D01*
X267899D01*
X263962Y119472D02*
Y118472D01*
X265962D01*
Y119472D01*
X266962D01*
Y121472D01*
X265962D01*
Y122472D01*
X263962D01*
Y121472D01*
X262962D01*
Y119472D01*
X263962D01*
Y115535D02*
Y114535D01*
X265962D01*
Y115535D01*
X266962D01*
Y117535D01*
X265962D01*
Y118535D01*
X263962D01*
Y117535D01*
X262962D01*
Y115535D01*
X263962D01*
X249066Y136205D02*
Y135205D01*
X251066D01*
Y136205D01*
X252066D01*
Y138205D01*
X251066D01*
Y139205D01*
X249066D01*
Y138205D01*
X248066D01*
Y136205D01*
X249066D01*
X241388Y132661D02*
Y131661D01*
X243388D01*
Y132661D01*
X244388D01*
Y134661D01*
X243388D01*
Y135661D01*
X241388D01*
Y134661D01*
X240388D01*
Y132661D01*
X241388D01*
X240732Y151756D02*
Y150756D01*
X242732D01*
Y151756D01*
X243732D01*
Y153756D01*
X242732D01*
Y154756D01*
X240732D01*
Y153756D01*
X239732D01*
Y151756D01*
X240732D01*
X237976D02*
Y150756D01*
X239976D01*
Y151756D01*
X240976D01*
Y153756D01*
X239976D01*
Y154756D01*
X237976D01*
Y153756D01*
X236976D01*
Y151756D01*
X237976D01*
X240732Y161205D02*
Y160205D01*
X242732D01*
Y161205D01*
X243732D01*
Y163205D01*
X242732D01*
Y164205D01*
X240732D01*
Y163205D01*
X239732D01*
Y161205D01*
X240732D01*
X237976D02*
Y160205D01*
X239976D01*
Y161205D01*
X240976D01*
Y163205D01*
X239976D01*
Y164205D01*
X237976D01*
Y163205D01*
X236976D01*
Y161205D01*
X237976D01*
X226428Y132661D02*
Y131661D01*
X228428D01*
Y132661D01*
X229428D01*
Y134661D01*
X228428D01*
Y135661D01*
X226428D01*
Y134661D01*
X225428D01*
Y132661D01*
X226428D01*
X223591Y184614D02*
X224591Y186614D01*
X223591Y188614D01*
X225591Y187614D01*
X227591Y188614D01*
X226591Y186614D01*
X227591Y184614D01*
X225591Y185614D01*
X223591Y184614D01*
X216504D02*
X217504Y186614D01*
X216504Y188614D01*
X218504Y187614D01*
X220504Y188614D01*
X219504Y186614D01*
X220504Y184614D01*
X218504Y185614D01*
X216504Y184614D01*
X223591Y175165D02*
X224591Y177165D01*
X223591Y179165D01*
X225591Y178165D01*
X227591Y179165D01*
X226591Y177165D01*
X227591Y175165D01*
X225591Y176165D01*
X223591Y175165D01*
X216504D02*
X217504Y177165D01*
X216504Y179165D01*
X218504Y178165D01*
X220504Y179165D01*
X219504Y177165D01*
X220504Y175165D01*
X218504Y176165D01*
X216504Y175165D01*
X251937D02*
X252937Y177165D01*
X251937Y179165D01*
X253937Y178165D01*
X255937Y179165D01*
X254937Y177165D01*
X255937Y175165D01*
X253937Y176165D01*
X251937Y175165D01*
X244850D02*
X245850Y177165D01*
X244850Y179165D01*
X246850Y178165D01*
X248850Y179165D01*
X247850Y177165D01*
X248850Y175165D01*
X246850Y176165D01*
X244850Y175165D01*
X251937Y184614D02*
X252937Y186614D01*
X251937Y188614D01*
X253937Y187614D01*
X255937Y188614D01*
X254937Y186614D01*
X255937Y184614D01*
X253937Y185614D01*
X251937Y184614D01*
X244850D02*
X245850Y186614D01*
X244850Y188614D01*
X246850Y187614D01*
X248850Y188614D01*
X247850Y186614D01*
X248850Y184614D01*
X246850Y185614D01*
X244850Y184614D01*
X232465Y161205D02*
Y160205D01*
X234465D01*
Y161205D01*
X235465D01*
Y163205D01*
X234465D01*
Y164205D01*
X232465D01*
Y163205D01*
X231465D01*
Y161205D01*
X232465D01*
X229709D02*
Y160205D01*
X231709D01*
Y161205D01*
X232709D01*
Y163205D01*
X231709D01*
Y164205D01*
X229709D01*
Y163205D01*
X228709D01*
Y161205D01*
X229709D01*
X232465Y151756D02*
Y150756D01*
X234465D01*
Y151756D01*
X235465D01*
Y153756D01*
X234465D01*
Y154756D01*
X232465D01*
Y153756D01*
X231465D01*
Y151756D01*
X232465D01*
X229709D02*
Y150756D01*
X231709D01*
Y151756D01*
X232709D01*
Y153756D01*
X231709D01*
Y154756D01*
X229709D01*
Y153756D01*
X228709D01*
Y151756D01*
X229709D01*
X245850Y127347D02*
Y126347D01*
X247850D01*
Y127347D01*
X248850D01*
Y129347D01*
X247850D01*
Y130347D01*
X245850D01*
Y129347D01*
X244850D01*
Y127347D01*
X245850D01*
X241913Y122622D02*
Y121622D01*
X243913D01*
Y122622D01*
X244913D01*
Y124622D01*
X243913D01*
Y125622D01*
X241913D01*
Y124622D01*
X240913D01*
Y122622D01*
X241913D01*
X259343Y111992D02*
Y110992D01*
X261343D01*
Y111992D01*
X262343D01*
Y113992D01*
X261343D01*
Y114992D01*
X259343D01*
Y113992D01*
X258343D01*
Y111992D01*
X259343D01*
X263175Y107661D02*
Y106661D01*
X265175D01*
Y107661D01*
X266175D01*
Y109661D01*
X265175D01*
Y110661D01*
X263175D01*
Y109661D01*
X262175D01*
Y107661D01*
X263175D01*
X247819Y121047D02*
Y120047D01*
X249819D01*
Y121047D01*
X250819D01*
Y123047D01*
X249819D01*
Y124047D01*
X247819D01*
Y123047D01*
X246819D01*
Y121047D01*
X247819D01*
X169079D02*
Y120047D01*
X171079D01*
Y121047D01*
X172079D01*
Y123047D01*
X171079D01*
Y124047D01*
X169079D01*
Y123047D01*
X168079D01*
Y121047D01*
X169079D01*
X180602Y111992D02*
Y110992D01*
X182602D01*
Y111992D01*
X183602D01*
Y113992D01*
X182602D01*
Y114992D01*
X180602D01*
Y113992D01*
X179602D01*
Y111992D01*
X180602D01*
X163173Y122622D02*
Y121622D01*
X165173D01*
Y122622D01*
X166173D01*
Y124622D01*
X165173D01*
Y125622D01*
X163173D01*
Y124622D01*
X162173D01*
Y122622D01*
X163173D01*
X167110Y127347D02*
Y126347D01*
X169110D01*
Y127347D01*
X170110D01*
Y129347D01*
X169110D01*
Y130347D01*
X167110D01*
Y129347D01*
X166110D01*
Y127347D01*
X167110D01*
X150969Y151756D02*
Y150756D01*
X152969D01*
Y151756D01*
X153969D01*
Y153756D01*
X152969D01*
Y154756D01*
X150969D01*
Y153756D01*
X149969D01*
Y151756D01*
X150969D01*
X153724D02*
Y150756D01*
X155724D01*
Y151756D01*
X156724D01*
Y153756D01*
X155724D01*
Y154756D01*
X153724D01*
Y153756D01*
X152724D01*
Y151756D01*
X153724D01*
X150969Y161205D02*
Y160205D01*
X152969D01*
Y161205D01*
X153969D01*
Y163205D01*
X152969D01*
Y164205D01*
X150969D01*
Y163205D01*
X149969D01*
Y161205D01*
X150969D01*
X153724D02*
Y160205D01*
X155724D01*
Y161205D01*
X156724D01*
Y163205D01*
X155724D01*
Y164205D01*
X153724D01*
Y163205D01*
X152724D01*
Y161205D01*
X153724D01*
X166110Y184614D02*
X167110Y186614D01*
X166110Y188614D01*
X168110Y187614D01*
X170110Y188614D01*
X169110Y186614D01*
X170110Y184614D01*
X168110Y185614D01*
X166110Y184614D01*
X173197D02*
X174197Y186614D01*
X173197Y188614D01*
X175197Y187614D01*
X177197Y188614D01*
X176197Y186614D01*
X177197Y184614D01*
X175197Y185614D01*
X173197Y184614D01*
X166110Y175165D02*
X167110Y177165D01*
X166110Y179165D01*
X168110Y178165D01*
X170110Y179165D01*
X169110Y177165D01*
X170110Y175165D01*
X168110Y176165D01*
X166110Y175165D01*
X173197D02*
X174197Y177165D01*
X173197Y179165D01*
X175197Y178165D01*
X177197Y179165D01*
X176197Y177165D01*
X177197Y175165D01*
X175197Y176165D01*
X173197Y175165D01*
X137764D02*
X138764Y177165D01*
X137764Y179165D01*
X139764Y178165D01*
X141764Y179165D01*
X140764Y177165D01*
X141764Y175165D01*
X139764Y176165D01*
X137764Y175165D01*
X144850D02*
X145850Y177165D01*
X144850Y179165D01*
X146850Y178165D01*
X148850Y179165D01*
X147850Y177165D01*
X148850Y175165D01*
X146850Y176165D01*
X144850Y175165D01*
X137764Y184614D02*
X138764Y186614D01*
X137764Y188614D01*
X139764Y187614D01*
X141764Y188614D01*
X140764Y186614D01*
X141764Y184614D01*
X139764Y185614D01*
X137764Y184614D01*
X144850D02*
X145850Y186614D01*
X144850Y188614D01*
X146850Y187614D01*
X148850Y188614D01*
X147850Y186614D01*
X148850Y184614D01*
X146850Y185614D01*
X144850Y184614D01*
X147687Y132661D02*
Y131661D01*
X149688D01*
Y132661D01*
X150688D01*
Y134661D01*
X149688D01*
Y135661D01*
X147687D01*
Y134661D01*
X146687D01*
Y132661D01*
X147687D01*
X159236Y161205D02*
Y160205D01*
X161236D01*
Y161205D01*
X162236D01*
Y163205D01*
X161236D01*
Y164205D01*
X159236D01*
Y163205D01*
X158236D01*
Y161205D01*
X159236D01*
X161992D02*
Y160205D01*
X163992D01*
Y161205D01*
X164992D01*
Y163205D01*
X163992D01*
Y164205D01*
X161992D01*
Y163205D01*
X160992D01*
Y161205D01*
X161992D01*
X159236Y151756D02*
Y150756D01*
X161236D01*
Y151756D01*
X162236D01*
Y153756D01*
X161236D01*
Y154756D01*
X159236D01*
Y153756D01*
X158236D01*
Y151756D01*
X159236D01*
X161992D02*
Y150756D01*
X163992D01*
Y151756D01*
X164992D01*
Y153756D01*
X163992D01*
Y154756D01*
X161992D01*
Y153756D01*
X160992D01*
Y151756D01*
X161992D01*
X162648Y132661D02*
Y131661D01*
X164648D01*
Y132661D01*
X165648D01*
Y134661D01*
X164648D01*
Y135661D01*
X162648D01*
Y134661D01*
X161648D01*
Y132661D01*
X162648D01*
X170325Y136205D02*
Y135205D01*
X172325D01*
Y136205D01*
X173325D01*
Y138205D01*
X172325D01*
Y139205D01*
X170325D01*
Y138205D01*
X169325D01*
Y136205D01*
X170325D01*
X185222Y115535D02*
Y114535D01*
X187222D01*
Y115535D01*
X188222D01*
Y117535D01*
X187222D01*
Y118535D01*
X185222D01*
Y117535D01*
X184222D01*
Y115535D01*
X185222D01*
Y119472D02*
Y118472D01*
X187222D01*
Y119472D01*
X188222D01*
Y121472D01*
X187222D01*
Y122472D01*
X185222D01*
Y121472D01*
X184222D01*
Y119472D01*
X185222D01*
X189159Y115535D02*
Y114535D01*
X191159D01*
Y115535D01*
X192159D01*
Y117535D01*
X191159D01*
Y118535D01*
X189159D01*
Y117535D01*
X188159D01*
Y115535D01*
X189159D01*
Y119472D02*
Y118472D01*
X191159D01*
Y119472D01*
X192159D01*
Y121472D01*
X191159D01*
Y122472D01*
X189159D01*
Y121472D01*
X188159D01*
Y119472D01*
X189159D01*
X158843Y118685D02*
Y117685D01*
X160843D01*
Y118685D01*
X161843D01*
Y120685D01*
X160843D01*
Y121685D01*
X158843D01*
Y120685D01*
X157843D01*
Y118685D01*
X158843D01*
X163173D02*
Y117685D01*
X165173D01*
Y118685D01*
X166173D01*
Y120685D01*
X165173D01*
Y121685D01*
X163173D01*
Y120685D01*
X162173D01*
Y118685D01*
X163173D01*
X158843Y114748D02*
Y113748D01*
X160843D01*
Y114748D01*
X161843D01*
Y116748D01*
X160843D01*
Y117748D01*
X158843D01*
Y116748D01*
X157843D01*
Y114748D01*
X158843D01*
Y122622D02*
Y121622D01*
X160843D01*
Y122622D01*
X161843D01*
Y124622D01*
X160843D01*
Y125622D01*
X158843D01*
Y124622D01*
X157843D01*
Y122622D01*
X158843D01*
X163173Y114748D02*
Y113748D01*
X165173D01*
Y114748D01*
X166173D01*
Y116748D01*
X165173D01*
Y117748D01*
X163173D01*
Y116748D01*
X162173D01*
Y114748D01*
X163173D01*
X187978Y107661D02*
Y106661D01*
X189978D01*
Y107661D01*
X190978D01*
Y109661D01*
X189978D01*
Y110661D01*
X187978D01*
Y109661D01*
X186978D01*
Y107661D01*
X187978D01*
X155365Y136205D02*
Y135205D01*
X157365D01*
Y136205D01*
X158365D01*
Y138205D01*
X157365D01*
Y139205D01*
X155365D01*
Y138205D01*
X154365D01*
Y136205D01*
X155365D01*
X174984Y127347D02*
Y126347D01*
X176984D01*
Y127347D01*
X177984D01*
Y129347D01*
X176984D01*
Y130347D01*
X174984D01*
Y129347D01*
X173984D01*
Y127347D01*
X174984D01*
X171047D02*
Y126347D01*
X173047D01*
Y127347D01*
X174047D01*
Y129347D01*
X173047D01*
Y130347D01*
X171047D01*
Y129347D01*
X170047D01*
Y127347D01*
X171047D01*
X174984Y130496D02*
Y129496D01*
X176984D01*
Y130496D01*
X177984D01*
Y132496D01*
X176984D01*
Y133496D01*
X174984D01*
Y132496D01*
X173984D01*
Y130496D01*
X174984D01*
X171047D02*
Y129496D01*
X173047D01*
Y130496D01*
X174047D01*
Y132496D01*
X173047D01*
Y133496D01*
X171047D01*
Y132496D01*
X170047D01*
Y130496D01*
X171047D01*
X167110D02*
Y129496D01*
X169110D01*
Y130496D01*
X170110D01*
Y132496D01*
X169110D01*
Y133496D01*
X167110D01*
Y132496D01*
X166110D01*
Y130496D01*
X167110D01*
X149787Y122622D02*
Y121622D01*
X151787D01*
Y122622D01*
X152787D01*
Y124622D01*
X151787D01*
Y125622D01*
X149787D01*
Y124622D01*
X148787D01*
Y122622D01*
X149787D01*
Y114748D02*
Y113748D01*
X151787D01*
Y114748D01*
X152787D01*
Y116748D01*
X151787D01*
Y117748D01*
X149787D01*
Y116748D01*
X148787D01*
Y114748D01*
X149787D01*
X154118Y122622D02*
Y121622D01*
X156118D01*
Y122622D01*
X157118D01*
Y124622D01*
X156118D01*
Y125622D01*
X154118D01*
Y124622D01*
X153118D01*
Y122622D01*
X154118D01*
Y114748D02*
Y113748D01*
X156118D01*
Y114748D01*
X157118D01*
Y116748D01*
X156118D01*
Y117748D01*
X154118D01*
Y116748D01*
X153118D01*
Y114748D01*
X154118D01*
X149787Y118685D02*
Y117685D01*
X151787D01*
Y118685D01*
X152787D01*
Y120685D01*
X151787D01*
Y121685D01*
X149787D01*
Y120685D01*
X148787D01*
Y118685D01*
X149787D01*
X154118D02*
Y117685D01*
X156118D01*
Y118685D01*
X157118D01*
Y120685D01*
X156118D01*
Y121685D01*
X154118D01*
Y120685D01*
X153118D01*
Y118685D01*
X154118D01*
X140339Y128134D02*
Y127134D01*
X142339D01*
Y128134D01*
X143339D01*
Y130134D01*
X142339D01*
Y131134D01*
X140339D01*
Y130134D01*
X139339D01*
Y128134D01*
X140339D01*
Y136008D02*
Y135008D01*
X142339D01*
Y136008D01*
X143339D01*
Y138008D01*
X142339D01*
Y139008D01*
X140339D01*
Y138008D01*
X139339D01*
Y136008D01*
X140339D01*
X136008D02*
Y135008D01*
X138008D01*
Y136008D01*
X139008D01*
Y138008D01*
X138008D01*
Y139008D01*
X136008D01*
Y138008D01*
X135008D01*
Y136008D01*
X136008D01*
Y128134D02*
Y127134D01*
X138008D01*
Y128134D01*
X139008D01*
Y130134D01*
X138008D01*
Y131134D01*
X136008D01*
Y130134D01*
X135008D01*
Y128134D01*
X136008D01*
Y132071D02*
Y131071D01*
X138008D01*
Y132071D01*
X139008D01*
Y134071D01*
X138008D01*
Y135071D01*
X136008D01*
Y134071D01*
X135008D01*
Y132071D01*
X136008D01*
X140339D02*
Y131071D01*
X142339D01*
Y132071D01*
X143339D01*
Y134071D01*
X142339D01*
Y135071D01*
X140339D01*
Y134071D01*
X139339D01*
Y132071D01*
X140339D01*
X184435Y107661D02*
Y106661D01*
X186435D01*
Y107661D01*
X187435D01*
Y109661D01*
X186435D01*
Y110661D01*
X184435D01*
Y109661D01*
X183435D01*
Y107661D01*
X184435D01*
X75378Y118685D02*
Y117685D01*
X77378D01*
Y118685D01*
X78378D01*
Y120685D01*
X77378D01*
Y121685D01*
X75378D01*
Y120685D01*
X74378D01*
Y118685D01*
X75378D01*
X71047D02*
Y117685D01*
X73047D01*
Y118685D01*
X74047D01*
Y120685D01*
X73047D01*
Y121685D01*
X71047D01*
Y120685D01*
X70047D01*
Y118685D01*
X71047D01*
X75378Y114748D02*
Y113748D01*
X77378D01*
Y114748D01*
X78378D01*
Y116748D01*
X77378D01*
Y117748D01*
X75378D01*
Y116748D01*
X74378D01*
Y114748D01*
X75378D01*
Y122622D02*
Y121622D01*
X77378D01*
Y122622D01*
X78378D01*
Y124622D01*
X77378D01*
Y125622D01*
X75378D01*
Y124622D01*
X74378D01*
Y122622D01*
X75378D01*
X71047Y114748D02*
Y113748D01*
X73047D01*
Y114748D01*
X74047D01*
Y116748D01*
X73047D01*
Y117748D01*
X71047D01*
Y116748D01*
X70047D01*
Y114748D01*
X71047D01*
Y122622D02*
Y121622D01*
X73047D01*
Y122622D01*
X74047D01*
Y124622D01*
X73047D01*
Y125622D01*
X71047D01*
Y124622D01*
X70047D01*
Y122622D01*
X71047D01*
X88370Y130496D02*
Y129496D01*
X90370D01*
Y130496D01*
X91370D01*
Y132496D01*
X90370D01*
Y133496D01*
X88370D01*
Y132496D01*
X87370D01*
Y130496D01*
X88370D01*
X92307D02*
Y129496D01*
X94307D01*
Y130496D01*
X95307D01*
Y132496D01*
X94307D01*
Y133496D01*
X92307D01*
Y132496D01*
X91307D01*
Y130496D01*
X92307D01*
X96244D02*
Y129496D01*
X98244D01*
Y130496D01*
X99244D01*
Y132496D01*
X98244D01*
Y133496D01*
X96244D01*
Y132496D01*
X95244D01*
Y130496D01*
X96244D01*
X92307Y127347D02*
Y126347D01*
X94307D01*
Y127347D01*
X95307D01*
Y129347D01*
X94307D01*
Y130347D01*
X92307D01*
Y129347D01*
X91307D01*
Y127347D01*
X92307D01*
X96244D02*
Y126347D01*
X98244D01*
Y127347D01*
X99244D01*
Y129347D01*
X98244D01*
Y130347D01*
X96244D01*
Y129347D01*
X95244D01*
Y127347D01*
X96244D01*
X76625Y136205D02*
Y135205D01*
X78625D01*
Y136205D01*
X79625D01*
Y138205D01*
X78625D01*
Y139205D01*
X76625D01*
Y138205D01*
X75625D01*
Y136205D01*
X76625D01*
X109238Y107661D02*
Y106661D01*
X111238D01*
Y107661D01*
X112238D01*
Y109661D01*
X111238D01*
Y110661D01*
X109238D01*
Y109661D01*
X108238D01*
Y107661D01*
X109238D01*
X84433Y114748D02*
Y113748D01*
X86433D01*
Y114748D01*
X87433D01*
Y116748D01*
X86433D01*
Y117748D01*
X84433D01*
Y116748D01*
X83433D01*
Y114748D01*
X84433D01*
X80102Y122622D02*
Y121622D01*
X82102D01*
Y122622D01*
X83102D01*
Y124622D01*
X82102D01*
Y125622D01*
X80102D01*
Y124622D01*
X79102D01*
Y122622D01*
X80102D01*
Y114748D02*
Y113748D01*
X82102D01*
Y114748D01*
X83102D01*
Y116748D01*
X82102D01*
Y117748D01*
X80102D01*
Y116748D01*
X79102D01*
Y114748D01*
X80102D01*
X84433Y118685D02*
Y117685D01*
X86433D01*
Y118685D01*
X87433D01*
Y120685D01*
X86433D01*
Y121685D01*
X84433D01*
Y120685D01*
X83433D01*
Y118685D01*
X84433D01*
X80102D02*
Y117685D01*
X82102D01*
Y118685D01*
X83102D01*
Y120685D01*
X82102D01*
Y121685D01*
X80102D01*
Y120685D01*
X79102D01*
Y118685D01*
X80102D01*
X110419Y119472D02*
Y118472D01*
X112419D01*
Y119472D01*
X113419D01*
Y121472D01*
X112419D01*
Y122472D01*
X110419D01*
Y121472D01*
X109419D01*
Y119472D01*
X110419D01*
Y115535D02*
Y114535D01*
X112419D01*
Y115535D01*
X113419D01*
Y117535D01*
X112419D01*
Y118535D01*
X110419D01*
Y117535D01*
X109419D01*
Y115535D01*
X110419D01*
X106482Y119472D02*
Y118472D01*
X108482D01*
Y119472D01*
X109482D01*
Y121472D01*
X108482D01*
Y122472D01*
X106482D01*
Y121472D01*
X105482D01*
Y119472D01*
X106482D01*
Y115535D02*
Y114535D01*
X108482D01*
Y115535D01*
X109482D01*
Y117535D01*
X108482D01*
Y118535D01*
X106482D01*
Y117535D01*
X105482D01*
Y115535D01*
X106482D01*
X61598Y139945D02*
Y138945D01*
X63598D01*
Y139945D01*
X64598D01*
Y141945D01*
X63598D01*
Y142945D01*
X61598D01*
Y141945D01*
X60598D01*
Y139945D01*
X61598D01*
X57268D02*
Y138945D01*
X59268D01*
Y139945D01*
X60268D01*
Y141945D01*
X59268D01*
Y142945D01*
X57268D01*
Y141945D01*
X56268D01*
Y139945D01*
X57268D01*
X61598Y143882D02*
Y142882D01*
X63598D01*
Y143882D01*
X64598D01*
Y145882D01*
X63598D01*
Y146882D01*
X61598D01*
Y145882D01*
X60598D01*
Y143882D01*
X61598D01*
X57268D02*
Y142882D01*
X59268D01*
Y143882D01*
X60268D01*
Y145882D01*
X59268D01*
Y146882D01*
X57268D01*
Y145882D01*
X56268D01*
Y143882D01*
X57268D01*
Y136008D02*
Y135008D01*
X59268D01*
Y136008D01*
X60268D01*
Y138008D01*
X59268D01*
Y139008D01*
X57268D01*
Y138008D01*
X56268D01*
Y136008D01*
X57268D01*
X61598D02*
Y135008D01*
X63598D01*
Y136008D01*
X64598D01*
Y138008D01*
X63598D01*
Y139008D01*
X61598D01*
Y138008D01*
X60598D01*
Y136008D01*
X61598D01*
X91585Y136205D02*
Y135205D01*
X93585D01*
Y136205D01*
X94585D01*
Y138205D01*
X93585D01*
Y139205D01*
X91585D01*
Y138205D01*
X90585D01*
Y136205D01*
X91585D01*
X83908Y132661D02*
Y131661D01*
X85908D01*
Y132661D01*
X86908D01*
Y134661D01*
X85908D01*
Y135661D01*
X83908D01*
Y134661D01*
X82908D01*
Y132661D01*
X83908D01*
X83252Y151756D02*
Y150756D01*
X85252D01*
Y151756D01*
X86252D01*
Y153756D01*
X85252D01*
Y154756D01*
X83252D01*
Y153756D01*
X82252D01*
Y151756D01*
X83252D01*
X80496D02*
Y150756D01*
X82496D01*
Y151756D01*
X83496D01*
Y153756D01*
X82496D01*
Y154756D01*
X80496D01*
Y153756D01*
X79496D01*
Y151756D01*
X80496D01*
X83252Y161205D02*
Y160205D01*
X85252D01*
Y161205D01*
X86252D01*
Y163205D01*
X85252D01*
Y164205D01*
X83252D01*
Y163205D01*
X82252D01*
Y161205D01*
X83252D01*
X80496D02*
Y160205D01*
X82496D01*
Y161205D01*
X83496D01*
Y163205D01*
X82496D01*
Y164205D01*
X80496D01*
Y163205D01*
X79496D01*
Y161205D01*
X80496D01*
X68947Y132661D02*
Y131661D01*
X70947D01*
Y132661D01*
X71947D01*
Y134661D01*
X70947D01*
Y135661D01*
X68947D01*
Y134661D01*
X67947D01*
Y132661D01*
X68947D01*
X66110Y184614D02*
X67110Y186614D01*
X66110Y188614D01*
X68110Y187614D01*
X70110Y188614D01*
X69110Y186614D01*
X70110Y184614D01*
X68110Y185614D01*
X66110Y184614D01*
X59024D02*
X60024Y186614D01*
X59024Y188614D01*
X61024Y187614D01*
X63024Y188614D01*
X62024Y186614D01*
X63024Y184614D01*
X61024Y185614D01*
X59024Y184614D01*
X66110Y175165D02*
X67110Y177165D01*
X66110Y179165D01*
X68110Y178165D01*
X70110Y179165D01*
X69110Y177165D01*
X70110Y175165D01*
X68110Y176165D01*
X66110Y175165D01*
X59024D02*
X60024Y177165D01*
X59024Y179165D01*
X61024Y178165D01*
X63024Y179165D01*
X62024Y177165D01*
X63024Y175165D01*
X61024Y176165D01*
X59024Y175165D01*
X94457D02*
X95457Y177165D01*
X94457Y179165D01*
X96457Y178165D01*
X98457Y179165D01*
X97457Y177165D01*
X98457Y175165D01*
X96457Y176165D01*
X94457Y175165D01*
X87370D02*
X88370Y177165D01*
X87370Y179165D01*
X89370Y178165D01*
X91370Y179165D01*
X90370Y177165D01*
X91370Y175165D01*
X89370Y176165D01*
X87370Y175165D01*
X94457Y184614D02*
X95457Y186614D01*
X94457Y188614D01*
X96457Y187614D01*
X98457Y188614D01*
X97457Y186614D01*
X98457Y184614D01*
X96457Y185614D01*
X94457Y184614D01*
X87370D02*
X88370Y186614D01*
X87370Y188614D01*
X89370Y187614D01*
X91370Y188614D01*
X90370Y186614D01*
X91370Y184614D01*
X89370Y185614D01*
X87370Y184614D01*
X74984Y161205D02*
Y160205D01*
X76984D01*
Y161205D01*
X77984D01*
Y163205D01*
X76984D01*
Y164205D01*
X74984D01*
Y163205D01*
X73984D01*
Y161205D01*
X74984D01*
X72228D02*
Y160205D01*
X74228D01*
Y161205D01*
X75228D01*
Y163205D01*
X74228D01*
Y164205D01*
X72228D01*
Y163205D01*
X71228D01*
Y161205D01*
X72228D01*
X74984Y151756D02*
Y150756D01*
X76984D01*
Y151756D01*
X77984D01*
Y153756D01*
X76984D01*
Y154756D01*
X74984D01*
Y153756D01*
X73984D01*
Y151756D01*
X74984D01*
X72228D02*
Y150756D01*
X74228D01*
Y151756D01*
X75228D01*
Y153756D01*
X74228D01*
Y154756D01*
X72228D01*
Y153756D01*
X71228D01*
Y151756D01*
X72228D01*
X88370Y127347D02*
Y126347D01*
X90370D01*
Y127347D01*
X91370D01*
Y129347D01*
X90370D01*
Y130347D01*
X88370D01*
Y129347D01*
X87370D01*
Y127347D01*
X88370D01*
X84433Y122622D02*
Y121622D01*
X86433D01*
Y122622D01*
X87433D01*
Y124622D01*
X86433D01*
Y125622D01*
X84433D01*
Y124622D01*
X83433D01*
Y122622D01*
X84433D01*
X101862Y111992D02*
Y110992D01*
X103862D01*
Y111992D01*
X104862D01*
Y113992D01*
X103862D01*
Y114992D01*
X101862D01*
Y113992D01*
X100862D01*
Y111992D01*
X101862D01*
X105694Y107661D02*
Y106661D01*
X107694D01*
Y107661D01*
X108694D01*
Y109661D01*
X107694D01*
Y110661D01*
X105694D01*
Y109661D01*
X104694D01*
Y107661D01*
X105694D01*
X90339Y121047D02*
Y120047D01*
X92339D01*
Y121047D01*
X93339D01*
Y123047D01*
X92339D01*
Y124047D01*
X90339D01*
Y123047D01*
X89339D01*
Y121047D01*
X90339D01*
X184435Y190339D02*
Y189339D01*
X186435D01*
Y190339D01*
X187435D01*
Y192339D01*
X186435D01*
Y193339D01*
X184435D01*
Y192339D01*
X183435D01*
Y190339D01*
X184435D01*
X247819Y203724D02*
Y202724D01*
X249819D01*
Y203724D01*
X250819D01*
Y205724D01*
X249819D01*
Y206724D01*
X247819D01*
Y205724D01*
X246819D01*
Y203724D01*
X247819D01*
X263175Y190339D02*
Y189339D01*
X265175D01*
Y190339D01*
X266175D01*
Y192339D01*
X265175D01*
Y193339D01*
X263175D01*
Y192339D01*
X262175D01*
Y190339D01*
X263175D01*
X259343Y194669D02*
Y193669D01*
X261343D01*
Y194669D01*
X262343D01*
Y196669D01*
X261343D01*
Y197669D01*
X259343D01*
Y196669D01*
X258343D01*
Y194669D01*
X259343D01*
X241913Y205299D02*
Y204299D01*
X243913D01*
Y205299D01*
X244913D01*
Y207299D01*
X243913D01*
Y208299D01*
X241913D01*
Y207299D01*
X240913D01*
Y205299D01*
X241913D01*
X245850Y210024D02*
Y209024D01*
X247850D01*
Y210024D01*
X248850D01*
Y212024D01*
X247850D01*
Y213024D01*
X245850D01*
Y212024D01*
X244850D01*
Y210024D01*
X245850D01*
X229709Y234433D02*
Y233433D01*
X231709D01*
Y234433D01*
X232709D01*
Y236433D01*
X231709D01*
Y237433D01*
X229709D01*
Y236433D01*
X228709D01*
Y234433D01*
X229709D01*
X232465D02*
Y233433D01*
X234465D01*
Y234433D01*
X235465D01*
Y236433D01*
X234465D01*
Y237433D01*
X232465D01*
Y236433D01*
X231465D01*
Y234433D01*
X232465D01*
X229709Y243882D02*
Y242882D01*
X231709D01*
Y243882D01*
X232709D01*
Y245882D01*
X231709D01*
Y246882D01*
X229709D01*
Y245882D01*
X228709D01*
Y243882D01*
X229709D01*
X232465D02*
Y242882D01*
X234465D01*
Y243882D01*
X235465D01*
Y245882D01*
X234465D01*
Y246882D01*
X232465D01*
Y245882D01*
X231465D01*
Y243882D01*
X232465D01*
X244850Y267291D02*
X245850Y269291D01*
X244850Y271291D01*
X246850Y270291D01*
X248850Y271291D01*
X247850Y269291D01*
X248850Y267291D01*
X246850Y268291D01*
X244850Y267291D01*
X251937D02*
X252937Y269291D01*
X251937Y271291D01*
X253937Y270291D01*
X255937Y271291D01*
X254937Y269291D01*
X255937Y267291D01*
X253937Y268291D01*
X251937Y267291D01*
X244850Y257842D02*
X245850Y259842D01*
X244850Y261842D01*
X246850Y260842D01*
X248850Y261842D01*
X247850Y259842D01*
X248850Y257842D01*
X246850Y258842D01*
X244850Y257842D01*
X251937D02*
X252937Y259842D01*
X251937Y261842D01*
X253937Y260842D01*
X255937Y261842D01*
X254937Y259842D01*
X255937Y257842D01*
X253937Y258842D01*
X251937Y257842D01*
X216504D02*
X217504Y259842D01*
X216504Y261842D01*
X218504Y260842D01*
X220504Y261842D01*
X219504Y259842D01*
X220504Y257842D01*
X218504Y258842D01*
X216504Y257842D01*
X223591D02*
X224591Y259842D01*
X223591Y261842D01*
X225591Y260842D01*
X227591Y261842D01*
X226591Y259842D01*
X227591Y257842D01*
X225591Y258842D01*
X223591Y257842D01*
X216504Y267291D02*
X217504Y269291D01*
X216504Y271291D01*
X218504Y270291D01*
X220504Y271291D01*
X219504Y269291D01*
X220504Y267291D01*
X218504Y268291D01*
X216504Y267291D01*
X223591D02*
X224591Y269291D01*
X223591Y271291D01*
X225591Y270291D01*
X227591Y271291D01*
X226591Y269291D01*
X227591Y267291D01*
X225591Y268291D01*
X223591Y267291D01*
X226428Y215339D02*
Y214339D01*
X228428D01*
Y215339D01*
X229428D01*
Y217339D01*
X228428D01*
Y218339D01*
X226428D01*
Y217339D01*
X225428D01*
Y215339D01*
X226428D01*
X237976Y243882D02*
Y242882D01*
X239976D01*
Y243882D01*
X240976D01*
Y245882D01*
X239976D01*
Y246882D01*
X237976D01*
Y245882D01*
X236976D01*
Y243882D01*
X237976D01*
X240732D02*
Y242882D01*
X242732D01*
Y243882D01*
X243732D01*
Y245882D01*
X242732D01*
Y246882D01*
X240732D01*
Y245882D01*
X239732D01*
Y243882D01*
X240732D01*
X237976Y234433D02*
Y233433D01*
X239976D01*
Y234433D01*
X240976D01*
Y236433D01*
X239976D01*
Y237433D01*
X237976D01*
Y236433D01*
X236976D01*
Y234433D01*
X237976D01*
X240732D02*
Y233433D01*
X242732D01*
Y234433D01*
X243732D01*
Y236433D01*
X242732D01*
Y237433D01*
X240732D01*
Y236433D01*
X239732D01*
Y234433D01*
X240732D01*
X241388Y215339D02*
Y214339D01*
X243388D01*
Y215339D01*
X244388D01*
Y217339D01*
X243388D01*
Y218339D01*
X241388D01*
Y217339D01*
X240388D01*
Y215339D01*
X241388D01*
X249066Y218882D02*
Y217882D01*
X251066D01*
Y218882D01*
X252066D01*
Y220882D01*
X251066D01*
Y221882D01*
X249066D01*
Y220882D01*
X248066D01*
Y218882D01*
X249066D01*
X263962Y198213D02*
Y197213D01*
X265962D01*
Y198213D01*
X266962D01*
Y200213D01*
X265962D01*
Y201213D01*
X263962D01*
Y200213D01*
X262962D01*
Y198213D01*
X263962D01*
Y202150D02*
Y201150D01*
X265962D01*
Y202150D01*
X266962D01*
Y204150D01*
X265962D01*
Y205150D01*
X263962D01*
Y204150D01*
X262962D01*
Y202150D01*
X263962D01*
X267899Y198213D02*
Y197213D01*
X269899D01*
Y198213D01*
X270899D01*
Y200213D01*
X269899D01*
Y201213D01*
X267899D01*
Y200213D01*
X266899D01*
Y198213D01*
X267899D01*
Y202150D02*
Y201150D01*
X269899D01*
Y202150D01*
X270899D01*
Y204150D01*
X269899D01*
Y205150D01*
X267899D01*
Y204150D01*
X266899D01*
Y202150D01*
X267899D01*
X237583Y201362D02*
Y200362D01*
X239583D01*
Y201362D01*
X240583D01*
Y203362D01*
X239583D01*
Y204362D01*
X237583D01*
Y203362D01*
X236583D01*
Y201362D01*
X237583D01*
X241913D02*
Y200362D01*
X243913D01*
Y201362D01*
X244913D01*
Y203362D01*
X243913D01*
Y204362D01*
X241913D01*
Y203362D01*
X240913D01*
Y201362D01*
X241913D01*
X237583Y197425D02*
Y196425D01*
X239583D01*
Y197425D01*
X240583D01*
Y199425D01*
X239583D01*
Y200425D01*
X237583D01*
Y199425D01*
X236583D01*
Y197425D01*
X237583D01*
Y205299D02*
Y204299D01*
X239583D01*
Y205299D01*
X240583D01*
Y207299D01*
X239583D01*
Y208299D01*
X237583D01*
Y207299D01*
X236583D01*
Y205299D01*
X237583D01*
X241913Y197425D02*
Y196425D01*
X243913D01*
Y197425D01*
X244913D01*
Y199425D01*
X243913D01*
Y200425D01*
X241913D01*
Y199425D01*
X240913D01*
Y197425D01*
X241913D01*
X266718Y190339D02*
Y189339D01*
X268718D01*
Y190339D01*
X269718D01*
Y192339D01*
X268718D01*
Y193339D01*
X266718D01*
Y192339D01*
X265718D01*
Y190339D01*
X266718D01*
X234105Y218882D02*
Y217882D01*
X236105D01*
Y218882D01*
X237105D01*
Y220882D01*
X236105D01*
Y221882D01*
X234105D01*
Y220882D01*
X233105D01*
Y218882D01*
X234105D01*
X253724Y210024D02*
Y209024D01*
X255724D01*
Y210024D01*
X256724D01*
Y212024D01*
X255724D01*
Y213024D01*
X253724D01*
Y212024D01*
X252724D01*
Y210024D01*
X253724D01*
X249787D02*
Y209024D01*
X251787D01*
Y210024D01*
X252787D01*
Y212024D01*
X251787D01*
Y213024D01*
X249787D01*
Y212024D01*
X248787D01*
Y210024D01*
X249787D01*
X253724Y214354D02*
Y213354D01*
X255724D01*
Y214354D01*
X256724D01*
Y216354D01*
X255724D01*
Y217354D01*
X253724D01*
Y216354D01*
X252724D01*
Y214354D01*
X253724D01*
X249787D02*
Y213354D01*
X251787D01*
Y214354D01*
X252787D01*
Y216354D01*
X251787D01*
Y217354D01*
X249787D01*
Y216354D01*
X248787D01*
Y214354D01*
X249787D01*
X245850D02*
Y213354D01*
X247850D01*
Y214354D01*
X248850D01*
Y216354D01*
X247850D01*
Y217354D01*
X245850D01*
Y216354D01*
X244850D01*
Y214354D01*
X245850D01*
X228528Y205299D02*
Y204299D01*
X230528D01*
Y205299D01*
X231528D01*
Y207299D01*
X230528D01*
Y208299D01*
X228528D01*
Y207299D01*
X227528D01*
Y205299D01*
X228528D01*
Y197425D02*
Y196425D01*
X230528D01*
Y197425D01*
X231528D01*
Y199425D01*
X230528D01*
Y200425D01*
X228528D01*
Y199425D01*
X227528D01*
Y197425D01*
X228528D01*
X232858Y205299D02*
Y204299D01*
X234858D01*
Y205299D01*
X235858D01*
Y207299D01*
X234858D01*
Y208299D01*
X232858D01*
Y207299D01*
X231858D01*
Y205299D01*
X232858D01*
Y197425D02*
Y196425D01*
X234858D01*
Y197425D01*
X235858D01*
Y199425D01*
X234858D01*
Y200425D01*
X232858D01*
Y199425D01*
X231858D01*
Y197425D01*
X232858D01*
X228528Y201362D02*
Y200362D01*
X230528D01*
Y201362D01*
X231528D01*
Y203362D01*
X230528D01*
Y204362D01*
X228528D01*
Y203362D01*
X227528D01*
Y201362D01*
X228528D01*
X232858D02*
Y200362D01*
X234858D01*
Y201362D01*
X235858D01*
Y203362D01*
X234858D01*
Y204362D01*
X232858D01*
Y203362D01*
X231858D01*
Y201362D01*
X232858D01*
X219079Y210811D02*
Y209811D01*
X221079D01*
Y210811D01*
X222079D01*
Y212811D01*
X221079D01*
Y213811D01*
X219079D01*
Y212811D01*
X218079D01*
Y210811D01*
X219079D01*
Y218685D02*
Y217685D01*
X221079D01*
Y218685D01*
X222079D01*
Y220685D01*
X221079D01*
Y221685D01*
X219079D01*
Y220685D01*
X218079D01*
Y218685D01*
X219079D01*
X214748D02*
Y217685D01*
X216748D01*
Y218685D01*
X217748D01*
Y220685D01*
X216748D01*
Y221685D01*
X214748D01*
Y220685D01*
X213748D01*
Y218685D01*
X214748D01*
Y210811D02*
Y209811D01*
X216748D01*
Y210811D01*
X217748D01*
Y212811D01*
X216748D01*
Y213811D01*
X214748D01*
Y212811D01*
X213748D01*
Y210811D01*
X214748D01*
Y214748D02*
Y213748D01*
X216748D01*
Y214748D01*
X217748D01*
Y216748D01*
X216748D01*
Y217748D01*
X214748D01*
Y216748D01*
X213748D01*
Y214748D01*
X214748D01*
X219079D02*
Y213748D01*
X221079D01*
Y214748D01*
X222079D01*
Y216748D01*
X221079D01*
Y217748D01*
X219079D01*
Y216748D01*
X218079D01*
Y214748D01*
X219079D01*
X140339D02*
Y213748D01*
X142339D01*
Y214748D01*
X143339D01*
Y216748D01*
X142339D01*
Y217748D01*
X140339D01*
Y216748D01*
X139339D01*
Y214748D01*
X140339D01*
X136008D02*
Y213748D01*
X138008D01*
Y214748D01*
X139008D01*
Y216748D01*
X138008D01*
Y217748D01*
X136008D01*
Y216748D01*
X135008D01*
Y214748D01*
X136008D01*
Y210811D02*
Y209811D01*
X138008D01*
Y210811D01*
X139008D01*
Y212811D01*
X138008D01*
Y213811D01*
X136008D01*
Y212811D01*
X135008D01*
Y210811D01*
X136008D01*
Y218685D02*
Y217685D01*
X138008D01*
Y218685D01*
X139008D01*
Y220685D01*
X138008D01*
Y221685D01*
X136008D01*
Y220685D01*
X135008D01*
Y218685D01*
X136008D01*
X140339D02*
Y217685D01*
X142339D01*
Y218685D01*
X143339D01*
Y220685D01*
X142339D01*
Y221685D01*
X140339D01*
Y220685D01*
X139339D01*
Y218685D01*
X140339D01*
Y210811D02*
Y209811D01*
X142339D01*
Y210811D01*
X143339D01*
Y212811D01*
X142339D01*
Y213811D01*
X140339D01*
Y212811D01*
X139339D01*
Y210811D01*
X140339D01*
X154118Y201362D02*
Y200362D01*
X156118D01*
Y201362D01*
X157118D01*
Y203362D01*
X156118D01*
Y204362D01*
X154118D01*
Y203362D01*
X153118D01*
Y201362D01*
X154118D01*
X149787D02*
Y200362D01*
X151787D01*
Y201362D01*
X152787D01*
Y203362D01*
X151787D01*
Y204362D01*
X149787D01*
Y203362D01*
X148787D01*
Y201362D01*
X149787D01*
X154118Y197425D02*
Y196425D01*
X156118D01*
Y197425D01*
X157118D01*
Y199425D01*
X156118D01*
Y200425D01*
X154118D01*
Y199425D01*
X153118D01*
Y197425D01*
X154118D01*
Y205299D02*
Y204299D01*
X156118D01*
Y205299D01*
X157118D01*
Y207299D01*
X156118D01*
Y208299D01*
X154118D01*
Y207299D01*
X153118D01*
Y205299D01*
X154118D01*
X149787Y197425D02*
Y196425D01*
X151787D01*
Y197425D01*
X152787D01*
Y199425D01*
X151787D01*
Y200425D01*
X149787D01*
Y199425D01*
X148787D01*
Y197425D01*
X149787D01*
Y205299D02*
Y204299D01*
X151787D01*
Y205299D01*
X152787D01*
Y207299D01*
X151787D01*
Y208299D01*
X149787D01*
Y207299D01*
X148787D01*
Y205299D01*
X149787D01*
X167110Y214354D02*
Y213354D01*
X169110D01*
Y214354D01*
X170110D01*
Y216354D01*
X169110D01*
Y217354D01*
X167110D01*
Y216354D01*
X166110D01*
Y214354D01*
X167110D01*
X171047D02*
Y213354D01*
X173047D01*
Y214354D01*
X174047D01*
Y216354D01*
X173047D01*
Y217354D01*
X171047D01*
Y216354D01*
X170047D01*
Y214354D01*
X171047D01*
X174984D02*
Y213354D01*
X176984D01*
Y214354D01*
X177984D01*
Y216354D01*
X176984D01*
Y217354D01*
X174984D01*
Y216354D01*
X173984D01*
Y214354D01*
X174984D01*
X171047Y210024D02*
Y209024D01*
X173047D01*
Y210024D01*
X174047D01*
Y212024D01*
X173047D01*
Y213024D01*
X171047D01*
Y212024D01*
X170047D01*
Y210024D01*
X171047D01*
X174984D02*
Y209024D01*
X176984D01*
Y210024D01*
X177984D01*
Y212024D01*
X176984D01*
Y213024D01*
X174984D01*
Y212024D01*
X173984D01*
Y210024D01*
X174984D01*
X155365Y218882D02*
Y217882D01*
X157365D01*
Y218882D01*
X158365D01*
Y220882D01*
X157365D01*
Y221882D01*
X155365D01*
Y220882D01*
X154365D01*
Y218882D01*
X155365D01*
X187978Y190339D02*
Y189339D01*
X189978D01*
Y190339D01*
X190978D01*
Y192339D01*
X189978D01*
Y193339D01*
X187978D01*
Y192339D01*
X186978D01*
Y190339D01*
X187978D01*
X163173Y197425D02*
Y196425D01*
X165173D01*
Y197425D01*
X166173D01*
Y199425D01*
X165173D01*
Y200425D01*
X163173D01*
Y199425D01*
X162173D01*
Y197425D01*
X163173D01*
X158843Y205299D02*
Y204299D01*
X160843D01*
Y205299D01*
X161843D01*
Y207299D01*
X160843D01*
Y208299D01*
X158843D01*
Y207299D01*
X157843D01*
Y205299D01*
X158843D01*
Y197425D02*
Y196425D01*
X160843D01*
Y197425D01*
X161843D01*
Y199425D01*
X160843D01*
Y200425D01*
X158843D01*
Y199425D01*
X157843D01*
Y197425D01*
X158843D01*
X163173Y201362D02*
Y200362D01*
X165173D01*
Y201362D01*
X166173D01*
Y203362D01*
X165173D01*
Y204362D01*
X163173D01*
Y203362D01*
X162173D01*
Y201362D01*
X163173D01*
X158843D02*
Y200362D01*
X160843D01*
Y201362D01*
X161843D01*
Y203362D01*
X160843D01*
Y204362D01*
X158843D01*
Y203362D01*
X157843D01*
Y201362D01*
X158843D01*
X189159Y202150D02*
Y201150D01*
X191159D01*
Y202150D01*
X192159D01*
Y204150D01*
X191159D01*
Y205150D01*
X189159D01*
Y204150D01*
X188159D01*
Y202150D01*
X189159D01*
Y198213D02*
Y197213D01*
X191159D01*
Y198213D01*
X192159D01*
Y200213D01*
X191159D01*
Y201213D01*
X189159D01*
Y200213D01*
X188159D01*
Y198213D01*
X189159D01*
X185222Y202150D02*
Y201150D01*
X187222D01*
Y202150D01*
X188222D01*
Y204150D01*
X187222D01*
Y205150D01*
X185222D01*
Y204150D01*
X184222D01*
Y202150D01*
X185222D01*
Y198213D02*
Y197213D01*
X187222D01*
Y198213D01*
X188222D01*
Y200213D01*
X187222D01*
Y201213D01*
X185222D01*
Y200213D01*
X184222D01*
Y198213D01*
X185222D01*
X170325Y218882D02*
Y217882D01*
X172325D01*
Y218882D01*
X173325D01*
Y220882D01*
X172325D01*
Y221882D01*
X170325D01*
Y220882D01*
X169325D01*
Y218882D01*
X170325D01*
X162648Y215339D02*
Y214339D01*
X164648D01*
Y215339D01*
X165648D01*
Y217339D01*
X164648D01*
Y218339D01*
X162648D01*
Y217339D01*
X161648D01*
Y215339D01*
X162648D01*
X161992Y234433D02*
Y233433D01*
X163992D01*
Y234433D01*
X164992D01*
Y236433D01*
X163992D01*
Y237433D01*
X161992D01*
Y236433D01*
X160992D01*
Y234433D01*
X161992D01*
X159236D02*
Y233433D01*
X161236D01*
Y234433D01*
X162236D01*
Y236433D01*
X161236D01*
Y237433D01*
X159236D01*
Y236433D01*
X158236D01*
Y234433D01*
X159236D01*
X161992Y243882D02*
Y242882D01*
X163992D01*
Y243882D01*
X164992D01*
Y245882D01*
X163992D01*
Y246882D01*
X161992D01*
Y245882D01*
X160992D01*
Y243882D01*
X161992D01*
X159236D02*
Y242882D01*
X161236D01*
Y243882D01*
X162236D01*
Y245882D01*
X161236D01*
Y246882D01*
X159236D01*
Y245882D01*
X158236D01*
Y243882D01*
X159236D01*
X147687Y215339D02*
Y214339D01*
X149688D01*
Y215339D01*
X150688D01*
Y217339D01*
X149688D01*
Y218339D01*
X147687D01*
Y217339D01*
X146687D01*
Y215339D01*
X147687D01*
X144850Y267291D02*
X145850Y269291D01*
X144850Y271291D01*
X146850Y270291D01*
X148850Y271291D01*
X147850Y269291D01*
X148850Y267291D01*
X146850Y268291D01*
X144850Y267291D01*
X137764D02*
X138764Y269291D01*
X137764Y271291D01*
X139764Y270291D01*
X141764Y271291D01*
X140764Y269291D01*
X141764Y267291D01*
X139764Y268291D01*
X137764Y267291D01*
X144850Y257842D02*
X145850Y259842D01*
X144850Y261842D01*
X146850Y260842D01*
X148850Y261842D01*
X147850Y259842D01*
X148850Y257842D01*
X146850Y258842D01*
X144850Y257842D01*
X137764D02*
X138764Y259842D01*
X137764Y261842D01*
X139764Y260842D01*
X141764Y261842D01*
X140764Y259842D01*
X141764Y257842D01*
X139764Y258842D01*
X137764Y257842D01*
X173197D02*
X174197Y259842D01*
X173197Y261842D01*
X175197Y260842D01*
X177197Y261842D01*
X176197Y259842D01*
X177197Y257842D01*
X175197Y258842D01*
X173197Y257842D01*
X166110D02*
X167110Y259842D01*
X166110Y261842D01*
X168110Y260842D01*
X170110Y261842D01*
X169110Y259842D01*
X170110Y257842D01*
X168110Y258842D01*
X166110Y257842D01*
X173197Y267291D02*
X174197Y269291D01*
X173197Y271291D01*
X175197Y270291D01*
X177197Y271291D01*
X176197Y269291D01*
X177197Y267291D01*
X175197Y268291D01*
X173197Y267291D01*
X166110D02*
X167110Y269291D01*
X166110Y271291D01*
X168110Y270291D01*
X170110Y271291D01*
X169110Y269291D01*
X170110Y267291D01*
X168110Y268291D01*
X166110Y267291D01*
X153724Y243882D02*
Y242882D01*
X155724D01*
Y243882D01*
X156724D01*
Y245882D01*
X155724D01*
Y246882D01*
X153724D01*
Y245882D01*
X152724D01*
Y243882D01*
X153724D01*
X150969D02*
Y242882D01*
X152969D01*
Y243882D01*
X153969D01*
Y245882D01*
X152969D01*
Y246882D01*
X150969D01*
Y245882D01*
X149969D01*
Y243882D01*
X150969D01*
X153724Y234433D02*
Y233433D01*
X155724D01*
Y234433D01*
X156724D01*
Y236433D01*
X155724D01*
Y237433D01*
X153724D01*
Y236433D01*
X152724D01*
Y234433D01*
X153724D01*
X150969D02*
Y233433D01*
X152969D01*
Y234433D01*
X153969D01*
Y236433D01*
X152969D01*
Y237433D01*
X150969D01*
Y236433D01*
X149969D01*
Y234433D01*
X150969D01*
X167110Y210024D02*
Y209024D01*
X169110D01*
Y210024D01*
X170110D01*
Y212024D01*
X169110D01*
Y213024D01*
X167110D01*
Y212024D01*
X166110D01*
Y210024D01*
X167110D01*
X163173Y205299D02*
Y204299D01*
X165173D01*
Y205299D01*
X166173D01*
Y207299D01*
X165173D01*
Y208299D01*
X163173D01*
Y207299D01*
X162173D01*
Y205299D01*
X163173D01*
X180602Y194669D02*
Y193669D01*
X182602D01*
Y194669D01*
X183602D01*
Y196669D01*
X182602D01*
Y197669D01*
X180602D01*
Y196669D01*
X179602D01*
Y194669D01*
X180602D01*
X169079Y203724D02*
Y202724D01*
X171079D01*
Y203724D01*
X172079D01*
Y205724D01*
X171079D01*
Y206724D01*
X169079D01*
Y205724D01*
X168079D01*
Y203724D01*
X169079D01*
X90339D02*
Y202724D01*
X92339D01*
Y203724D01*
X93339D01*
Y205724D01*
X92339D01*
Y206724D01*
X90339D01*
Y205724D01*
X89339D01*
Y203724D01*
X90339D01*
X105694Y190339D02*
Y189339D01*
X107694D01*
Y190339D01*
X108694D01*
Y192339D01*
X107694D01*
Y193339D01*
X105694D01*
Y192339D01*
X104694D01*
Y190339D01*
X105694D01*
X101862Y194669D02*
Y193669D01*
X103862D01*
Y194669D01*
X104862D01*
Y196669D01*
X103862D01*
Y197669D01*
X101862D01*
Y196669D01*
X100862D01*
Y194669D01*
X101862D01*
X84433Y205299D02*
Y204299D01*
X86433D01*
Y205299D01*
X87433D01*
Y207299D01*
X86433D01*
Y208299D01*
X84433D01*
Y207299D01*
X83433D01*
Y205299D01*
X84433D01*
X88370Y210024D02*
Y209024D01*
X90370D01*
Y210024D01*
X91370D01*
Y212024D01*
X90370D01*
Y213024D01*
X88370D01*
Y212024D01*
X87370D01*
Y210024D01*
X88370D01*
X72228Y234433D02*
Y233433D01*
X74228D01*
Y234433D01*
X75228D01*
Y236433D01*
X74228D01*
Y237433D01*
X72228D01*
Y236433D01*
X71228D01*
Y234433D01*
X72228D01*
X74984D02*
Y233433D01*
X76984D01*
Y234433D01*
X77984D01*
Y236433D01*
X76984D01*
Y237433D01*
X74984D01*
Y236433D01*
X73984D01*
Y234433D01*
X74984D01*
X72228Y243882D02*
Y242882D01*
X74228D01*
Y243882D01*
X75228D01*
Y245882D01*
X74228D01*
Y246882D01*
X72228D01*
Y245882D01*
X71228D01*
Y243882D01*
X72228D01*
X74984D02*
Y242882D01*
X76984D01*
Y243882D01*
X77984D01*
Y245882D01*
X76984D01*
Y246882D01*
X74984D01*
Y245882D01*
X73984D01*
Y243882D01*
X74984D01*
X87370Y267291D02*
X88370Y269291D01*
X87370Y271291D01*
X89370Y270291D01*
X91370Y271291D01*
X90370Y269291D01*
X91370Y267291D01*
X89370Y268291D01*
X87370Y267291D01*
X94457D02*
X95457Y269291D01*
X94457Y271291D01*
X96457Y270291D01*
X98457Y271291D01*
X97457Y269291D01*
X98457Y267291D01*
X96457Y268291D01*
X94457Y267291D01*
X87370Y257842D02*
X88370Y259842D01*
X87370Y261842D01*
X89370Y260842D01*
X91370Y261842D01*
X90370Y259842D01*
X91370Y257842D01*
X89370Y258842D01*
X87370Y257842D01*
X94457D02*
X95457Y259842D01*
X94457Y261842D01*
X96457Y260842D01*
X98457Y261842D01*
X97457Y259842D01*
X98457Y257842D01*
X96457Y258842D01*
X94457Y257842D01*
X59024D02*
X60024Y259842D01*
X59024Y261842D01*
X61024Y260842D01*
X63024Y261842D01*
X62024Y259842D01*
X63024Y257842D01*
X61024Y258842D01*
X59024Y257842D01*
X66110D02*
X67110Y259842D01*
X66110Y261842D01*
X68110Y260842D01*
X70110Y261842D01*
X69110Y259842D01*
X70110Y257842D01*
X68110Y258842D01*
X66110Y257842D01*
X59024Y267291D02*
X60024Y269291D01*
X59024Y271291D01*
X61024Y270291D01*
X63024Y271291D01*
X62024Y269291D01*
X63024Y267291D01*
X61024Y268291D01*
X59024Y267291D01*
X66110D02*
X67110Y269291D01*
X66110Y271291D01*
X68110Y270291D01*
X70110Y271291D01*
X69110Y269291D01*
X70110Y267291D01*
X68110Y268291D01*
X66110Y267291D01*
X68947Y215339D02*
Y214339D01*
X70947D01*
Y215339D01*
X71947D01*
Y217339D01*
X70947D01*
Y218339D01*
X68947D01*
Y217339D01*
X67947D01*
Y215339D01*
X68947D01*
X80496Y243882D02*
Y242882D01*
X82496D01*
Y243882D01*
X83496D01*
Y245882D01*
X82496D01*
Y246882D01*
X80496D01*
Y245882D01*
X79496D01*
Y243882D01*
X80496D01*
X83252D02*
Y242882D01*
X85252D01*
Y243882D01*
X86252D01*
Y245882D01*
X85252D01*
Y246882D01*
X83252D01*
Y245882D01*
X82252D01*
Y243882D01*
X83252D01*
X80496Y234433D02*
Y233433D01*
X82496D01*
Y234433D01*
X83496D01*
Y236433D01*
X82496D01*
Y237433D01*
X80496D01*
Y236433D01*
X79496D01*
Y234433D01*
X80496D01*
X83252D02*
Y233433D01*
X85252D01*
Y234433D01*
X86252D01*
Y236433D01*
X85252D01*
Y237433D01*
X83252D01*
Y236433D01*
X82252D01*
Y234433D01*
X83252D01*
X83908Y215339D02*
Y214339D01*
X85908D01*
Y215339D01*
X86908D01*
Y217339D01*
X85908D01*
Y218339D01*
X83908D01*
Y217339D01*
X82908D01*
Y215339D01*
X83908D01*
X91585Y218882D02*
Y217882D01*
X93585D01*
Y218882D01*
X94585D01*
Y220882D01*
X93585D01*
Y221882D01*
X91585D01*
Y220882D01*
X90585D01*
Y218882D01*
X91585D01*
X61598Y218685D02*
Y217685D01*
X63598D01*
Y218685D01*
X64598D01*
Y220685D01*
X63598D01*
Y221685D01*
X61598D01*
Y220685D01*
X60598D01*
Y218685D01*
X61598D01*
X57268D02*
Y217685D01*
X59268D01*
Y218685D01*
X60268D01*
Y220685D01*
X59268D01*
Y221685D01*
X57268D01*
Y220685D01*
X56268D01*
Y218685D01*
X57268D01*
Y226559D02*
Y225559D01*
X59268D01*
Y226559D01*
X60268D01*
Y228559D01*
X59268D01*
Y229559D01*
X57268D01*
Y228559D01*
X56268D01*
Y226559D01*
X57268D01*
X61598D02*
Y225559D01*
X63598D01*
Y226559D01*
X64598D01*
Y228559D01*
X63598D01*
Y229559D01*
X61598D01*
Y228559D01*
X60598D01*
Y226559D01*
X61598D01*
X57268Y222622D02*
Y221622D01*
X59268D01*
Y222622D01*
X60268D01*
Y224622D01*
X59268D01*
Y225622D01*
X57268D01*
Y224622D01*
X56268D01*
Y222622D01*
X57268D01*
X61598D02*
Y221622D01*
X63598D01*
Y222622D01*
X64598D01*
Y224622D01*
X63598D01*
Y225622D01*
X61598D01*
Y224622D01*
X60598D01*
Y222622D01*
X61598D01*
X106482Y198213D02*
Y197213D01*
X108482D01*
Y198213D01*
X109482D01*
Y200213D01*
X108482D01*
Y201213D01*
X106482D01*
Y200213D01*
X105482D01*
Y198213D01*
X106482D01*
Y202150D02*
Y201150D01*
X108482D01*
Y202150D01*
X109482D01*
Y204150D01*
X108482D01*
Y205150D01*
X106482D01*
Y204150D01*
X105482D01*
Y202150D01*
X106482D01*
X110419Y198213D02*
Y197213D01*
X112419D01*
Y198213D01*
X113419D01*
Y200213D01*
X112419D01*
Y201213D01*
X110419D01*
Y200213D01*
X109419D01*
Y198213D01*
X110419D01*
Y202150D02*
Y201150D01*
X112419D01*
Y202150D01*
X113419D01*
Y204150D01*
X112419D01*
Y205150D01*
X110419D01*
Y204150D01*
X109419D01*
Y202150D01*
X110419D01*
X80102Y201362D02*
Y200362D01*
X82102D01*
Y201362D01*
X83102D01*
Y203362D01*
X82102D01*
Y204362D01*
X80102D01*
Y203362D01*
X79102D01*
Y201362D01*
X80102D01*
X84433D02*
Y200362D01*
X86433D01*
Y201362D01*
X87433D01*
Y203362D01*
X86433D01*
Y204362D01*
X84433D01*
Y203362D01*
X83433D01*
Y201362D01*
X84433D01*
X80102Y197425D02*
Y196425D01*
X82102D01*
Y197425D01*
X83102D01*
Y199425D01*
X82102D01*
Y200425D01*
X80102D01*
Y199425D01*
X79102D01*
Y197425D01*
X80102D01*
Y205299D02*
Y204299D01*
X82102D01*
Y205299D01*
X83102D01*
Y207299D01*
X82102D01*
Y208299D01*
X80102D01*
Y207299D01*
X79102D01*
Y205299D01*
X80102D01*
X84433Y197425D02*
Y196425D01*
X86433D01*
Y197425D01*
X87433D01*
Y199425D01*
X86433D01*
Y200425D01*
X84433D01*
Y199425D01*
X83433D01*
Y197425D01*
X84433D01*
X109238Y190339D02*
Y189339D01*
X111238D01*
Y190339D01*
X112238D01*
Y192339D01*
X111238D01*
Y193339D01*
X109238D01*
Y192339D01*
X108238D01*
Y190339D01*
X109238D01*
X76625Y218882D02*
Y217882D01*
X78625D01*
Y218882D01*
X79625D01*
Y220882D01*
X78625D01*
Y221882D01*
X76625D01*
Y220882D01*
X75625D01*
Y218882D01*
X76625D01*
X96244Y210024D02*
Y209024D01*
X98244D01*
Y210024D01*
X99244D01*
Y212024D01*
X98244D01*
Y213024D01*
X96244D01*
Y212024D01*
X95244D01*
Y210024D01*
X96244D01*
X92307D02*
Y209024D01*
X94307D01*
Y210024D01*
X95307D01*
Y212024D01*
X94307D01*
Y213024D01*
X92307D01*
Y212024D01*
X91307D01*
Y210024D01*
X92307D01*
X96244Y214354D02*
Y213354D01*
X98244D01*
Y214354D01*
X99244D01*
Y216354D01*
X98244D01*
Y217354D01*
X96244D01*
Y216354D01*
X95244D01*
Y214354D01*
X96244D01*
X92307D02*
Y213354D01*
X94307D01*
Y214354D01*
X95307D01*
Y216354D01*
X94307D01*
Y217354D01*
X92307D01*
Y216354D01*
X91307D01*
Y214354D01*
X92307D01*
X88370D02*
Y213354D01*
X90370D01*
Y214354D01*
X91370D01*
Y216354D01*
X90370D01*
Y217354D01*
X88370D01*
Y216354D01*
X87370D01*
Y214354D01*
X88370D01*
X71047Y205299D02*
Y204299D01*
X73047D01*
Y205299D01*
X74047D01*
Y207299D01*
X73047D01*
Y208299D01*
X71047D01*
Y207299D01*
X70047D01*
Y205299D01*
X71047D01*
Y197425D02*
Y196425D01*
X73047D01*
Y197425D01*
X74047D01*
Y199425D01*
X73047D01*
Y200425D01*
X71047D01*
Y199425D01*
X70047D01*
Y197425D01*
X71047D01*
X75378Y205299D02*
Y204299D01*
X77378D01*
Y205299D01*
X78378D01*
Y207299D01*
X77378D01*
Y208299D01*
X75378D01*
Y207299D01*
X74378D01*
Y205299D01*
X75378D01*
Y197425D02*
Y196425D01*
X77378D01*
Y197425D01*
X78378D01*
Y199425D01*
X77378D01*
Y200425D01*
X75378D01*
Y199425D01*
X74378D01*
Y197425D01*
X75378D01*
X71047Y201362D02*
Y200362D01*
X73047D01*
Y201362D01*
X74047D01*
Y203362D01*
X73047D01*
Y204362D01*
X71047D01*
Y203362D01*
X70047D01*
Y201362D01*
X71047D01*
X75378D02*
Y200362D01*
X77378D01*
Y201362D01*
X78378D01*
Y203362D01*
X77378D01*
Y204362D01*
X75378D01*
Y203362D01*
X74378D01*
Y201362D01*
X75378D01*
X240732Y69079D02*
Y68079D01*
X242732D01*
Y69079D01*
X243732D01*
Y71079D01*
X242732D01*
Y72079D01*
X240732D01*
Y71079D01*
X239732D01*
Y69079D01*
X240732D01*
X237976D02*
Y68079D01*
X239976D01*
Y69079D01*
X240976D01*
Y71079D01*
X239976D01*
Y72079D01*
X237976D01*
Y71079D01*
X236976D01*
Y69079D01*
X237976D01*
X240732Y78528D02*
Y77528D01*
X242732D01*
Y78528D01*
X243732D01*
Y80528D01*
X242732D01*
Y81528D01*
X240732D01*
Y80528D01*
X239732D01*
Y78528D01*
X240732D01*
X237976D02*
Y77528D01*
X239976D01*
Y78528D01*
X240976D01*
Y80528D01*
X239976D01*
Y81528D01*
X237976D01*
Y80528D01*
X236976D01*
Y78528D01*
X237976D01*
X251937Y92488D02*
X252937Y94488D01*
X251937Y96488D01*
X253937Y95488D01*
X255937Y96488D01*
X254937Y94488D01*
X255937Y92488D01*
X253937Y93488D01*
X251937Y92488D01*
X244850D02*
X245850Y94488D01*
X244850Y96488D01*
X246850Y95488D01*
X248850Y96488D01*
X247850Y94488D01*
X248850Y92488D01*
X246850Y93488D01*
X244850Y92488D01*
X251937Y101937D02*
X252937Y103937D01*
X251937Y105937D01*
X253937Y104937D01*
X255937Y105937D01*
X254937Y103937D01*
X255937Y101937D01*
X253937Y102937D01*
X251937Y101937D01*
X244850D02*
X245850Y103937D01*
X244850Y105937D01*
X246850Y104937D01*
X248850Y105937D01*
X247850Y103937D01*
X248850Y101937D01*
X246850Y102937D01*
X244850Y101937D01*
X234105Y53527D02*
Y52527D01*
X236105D01*
Y53527D01*
X237105D01*
Y55528D01*
X236105D01*
Y56528D01*
X234105D01*
Y55528D01*
X233105D01*
Y53527D01*
X234105D01*
X223591Y101937D02*
X224591Y103937D01*
X223591Y105937D01*
X225591Y104937D01*
X227591Y105937D01*
X226591Y103937D01*
X227591Y101937D01*
X225591Y102937D01*
X223591Y101937D01*
X216504D02*
X217504Y103937D01*
X216504Y105937D01*
X218504Y104937D01*
X220504Y105937D01*
X219504Y103937D01*
X220504Y101937D01*
X218504Y102937D01*
X216504Y101937D01*
X223591Y92488D02*
X224591Y94488D01*
X223591Y96488D01*
X225591Y95488D01*
X227591Y96488D01*
X226591Y94488D01*
X227591Y92488D01*
X225591Y93488D01*
X223591Y92488D01*
X216504D02*
X217504Y94488D01*
X216504Y96488D01*
X218504Y95488D01*
X220504Y96488D01*
X219504Y94488D01*
X220504Y92488D01*
X218504Y93488D01*
X216504Y92488D01*
X232465Y78528D02*
Y77528D01*
X234465D01*
Y78528D01*
X235465D01*
Y80528D01*
X234465D01*
Y81528D01*
X232465D01*
Y80528D01*
X231465D01*
Y78528D01*
X232465D01*
X229709D02*
Y77528D01*
X231709D01*
Y78528D01*
X232709D01*
Y80528D01*
X231709D01*
Y81528D01*
X229709D01*
Y80528D01*
X228709D01*
Y78528D01*
X229709D01*
X232465Y69079D02*
Y68079D01*
X234465D01*
Y69079D01*
X235465D01*
Y71079D01*
X234465D01*
Y72079D01*
X232465D01*
Y71079D01*
X231465D01*
Y69079D01*
X232465D01*
X229709D02*
Y68079D01*
X231709D01*
Y69079D01*
X232709D01*
Y71079D01*
X231709D01*
Y72079D01*
X229709D01*
Y71079D01*
X228709D01*
Y69079D01*
X229709D01*
X219079Y49394D02*
Y48394D01*
X221079D01*
Y49394D01*
X222079D01*
Y51394D01*
X221079D01*
Y52394D01*
X219079D01*
Y51394D01*
X218079D01*
Y49394D01*
X219079D01*
X214748D02*
Y48394D01*
X216748D01*
Y49394D01*
X217748D01*
Y51394D01*
X216748D01*
Y52394D01*
X214748D01*
Y51394D01*
X213748D01*
Y49394D01*
X214748D01*
Y45457D02*
Y44457D01*
X216748D01*
Y45457D01*
X217748D01*
Y47457D01*
X216748D01*
Y48457D01*
X214748D01*
Y47457D01*
X213748D01*
Y45457D01*
X214748D01*
Y53331D02*
Y52331D01*
X216748D01*
Y53331D01*
X217748D01*
Y55331D01*
X216748D01*
Y56331D01*
X214748D01*
Y55331D01*
X213748D01*
Y53331D01*
X214748D01*
X219079D02*
Y52331D01*
X221079D01*
Y53331D01*
X222079D01*
Y55331D01*
X221079D01*
Y56331D01*
X219079D01*
Y55331D01*
X218079D01*
Y53331D01*
X219079D01*
Y45457D02*
Y44457D01*
X221079D01*
Y45457D01*
X222079D01*
Y47457D01*
X221079D01*
Y48457D01*
X219079D01*
Y47457D01*
X218079D01*
Y45457D01*
X219079D01*
X140339D02*
Y44457D01*
X142339D01*
Y45457D01*
X143339D01*
Y47457D01*
X142339D01*
Y48457D01*
X140339D01*
Y47457D01*
X139339D01*
Y45457D01*
X140339D01*
Y53331D02*
Y52331D01*
X142339D01*
Y53331D01*
X143339D01*
Y55331D01*
X142339D01*
Y56331D01*
X140339D01*
Y55331D01*
X139339D01*
Y53331D01*
X140339D01*
X136008D02*
Y52331D01*
X138008D01*
Y53331D01*
X139008D01*
Y55331D01*
X138008D01*
Y56331D01*
X136008D01*
Y55331D01*
X135008D01*
Y53331D01*
X136008D01*
Y45457D02*
Y44457D01*
X138008D01*
Y45457D01*
X139008D01*
Y47457D01*
X138008D01*
Y48457D01*
X136008D01*
Y47457D01*
X135008D01*
Y45457D01*
X136008D01*
Y49394D02*
Y48394D01*
X138008D01*
Y49394D01*
X139008D01*
Y51394D01*
X138008D01*
Y52394D01*
X136008D01*
Y51394D01*
X135008D01*
Y49394D01*
X136008D01*
X140339D02*
Y48394D01*
X142339D01*
Y49394D01*
X143339D01*
Y51394D01*
X142339D01*
Y52394D01*
X140339D01*
Y51394D01*
X139339D01*
Y49394D01*
X140339D01*
X150969Y69079D02*
Y68079D01*
X152969D01*
Y69079D01*
X153969D01*
Y71079D01*
X152969D01*
Y72079D01*
X150969D01*
Y71079D01*
X149969D01*
Y69079D01*
X150969D01*
X153724D02*
Y68079D01*
X155724D01*
Y69079D01*
X156724D01*
Y71079D01*
X155724D01*
Y72079D01*
X153724D01*
Y71079D01*
X152724D01*
Y69079D01*
X153724D01*
X150969Y78528D02*
Y77528D01*
X152969D01*
Y78528D01*
X153969D01*
Y80528D01*
X152969D01*
Y81528D01*
X150969D01*
Y80528D01*
X149969D01*
Y78528D01*
X150969D01*
X153724D02*
Y77528D01*
X155724D01*
Y78528D01*
X156724D01*
Y80528D01*
X155724D01*
Y81528D01*
X153724D01*
Y80528D01*
X152724D01*
Y78528D01*
X153724D01*
X166110Y101937D02*
X167110Y103937D01*
X166110Y105937D01*
X168110Y104937D01*
X170110Y105937D01*
X169110Y103937D01*
X170110Y101937D01*
X168110Y102937D01*
X166110Y101937D01*
X173197D02*
X174197Y103937D01*
X173197Y105937D01*
X175197Y104937D01*
X177197Y105937D01*
X176197Y103937D01*
X177197Y101937D01*
X175197Y102937D01*
X173197Y101937D01*
X166110Y92488D02*
X167110Y94488D01*
X166110Y96488D01*
X168110Y95488D01*
X170110Y96488D01*
X169110Y94488D01*
X170110Y92488D01*
X168110Y93488D01*
X166110Y92488D01*
X173197D02*
X174197Y94488D01*
X173197Y96488D01*
X175197Y95488D01*
X177197Y96488D01*
X176197Y94488D01*
X177197Y92488D01*
X175197Y93488D01*
X173197Y92488D01*
X137764D02*
X138764Y94488D01*
X137764Y96488D01*
X139764Y95488D01*
X141764Y96488D01*
X140764Y94488D01*
X141764Y92488D01*
X139764Y93488D01*
X137764Y92488D01*
X144850D02*
X145850Y94488D01*
X144850Y96488D01*
X146850Y95488D01*
X148850Y96488D01*
X147850Y94488D01*
X148850Y92488D01*
X146850Y93488D01*
X144850Y92488D01*
X137764Y101937D02*
X138764Y103937D01*
X137764Y105937D01*
X139764Y104937D01*
X141764Y105937D01*
X140764Y103937D01*
X141764Y101937D01*
X139764Y102937D01*
X137764Y101937D01*
X144850D02*
X145850Y103937D01*
X144850Y105937D01*
X146850Y104937D01*
X148850Y105937D01*
X147850Y103937D01*
X148850Y101937D01*
X146850Y102937D01*
X144850Y101937D01*
X147687Y49984D02*
Y48984D01*
X149688D01*
Y49984D01*
X150688D01*
Y51984D01*
X149688D01*
Y52984D01*
X147687D01*
Y51984D01*
X146687D01*
Y49984D01*
X147687D01*
X159236Y78528D02*
Y77528D01*
X161236D01*
Y78528D01*
X162236D01*
Y80528D01*
X161236D01*
Y81528D01*
X159236D01*
Y80528D01*
X158236D01*
Y78528D01*
X159236D01*
X161992D02*
Y77528D01*
X163992D01*
Y78528D01*
X164992D01*
Y80528D01*
X163992D01*
Y81528D01*
X161992D01*
Y80528D01*
X160992D01*
Y78528D01*
X161992D01*
X159236Y69079D02*
Y68079D01*
X161236D01*
Y69079D01*
X162236D01*
Y71079D01*
X161236D01*
Y72079D01*
X159236D01*
Y71079D01*
X158236D01*
Y69079D01*
X159236D01*
X161992D02*
Y68079D01*
X163992D01*
Y69079D01*
X164992D01*
Y71079D01*
X163992D01*
Y72079D01*
X161992D01*
Y71079D01*
X160992D01*
Y69079D01*
X161992D01*
X162648Y49984D02*
Y48984D01*
X164648D01*
Y49984D01*
X165648D01*
Y51984D01*
X164648D01*
Y52984D01*
X162648D01*
Y51984D01*
X161648D01*
Y49984D01*
X162648D01*
X170325Y53527D02*
Y52527D01*
X172325D01*
Y53527D01*
X173325D01*
Y55528D01*
X172325D01*
Y56528D01*
X170325D01*
Y55528D01*
X169325D01*
Y53527D01*
X170325D01*
X185222Y32858D02*
Y31858D01*
X187222D01*
Y32858D01*
X188222D01*
Y34858D01*
X187222D01*
Y35858D01*
X185222D01*
Y34858D01*
X184222D01*
Y32858D01*
X185222D01*
Y36795D02*
Y35795D01*
X187222D01*
Y36795D01*
X188222D01*
Y38795D01*
X187222D01*
Y39795D01*
X185222D01*
Y38795D01*
X184222D01*
Y36795D01*
X185222D01*
X189159Y32858D02*
Y31858D01*
X191159D01*
Y32858D01*
X192159D01*
Y34858D01*
X191159D01*
Y35858D01*
X189159D01*
Y34858D01*
X188159D01*
Y32858D01*
X189159D01*
X180602Y29315D02*
Y28315D01*
X182602D01*
Y29315D01*
X183602D01*
Y31315D01*
X182602D01*
Y32315D01*
X180602D01*
Y31315D01*
X179602D01*
Y29315D01*
X180602D01*
X189159Y36795D02*
Y35795D01*
X191159D01*
Y36795D01*
X192159D01*
Y38795D01*
X191159D01*
Y39795D01*
X189159D01*
Y38795D01*
X188159D01*
Y36795D01*
X189159D01*
X158843Y36008D02*
Y35008D01*
X160843D01*
Y36008D01*
X161843D01*
Y38008D01*
X160843D01*
Y39008D01*
X158843D01*
Y38008D01*
X157843D01*
Y36008D01*
X158843D01*
X163173D02*
Y35008D01*
X165173D01*
Y36008D01*
X166173D01*
Y38008D01*
X165173D01*
Y39008D01*
X163173D01*
Y38008D01*
X162173D01*
Y36008D01*
X163173D01*
X158843Y32071D02*
Y31071D01*
X160843D01*
Y32071D01*
X161843D01*
Y34071D01*
X160843D01*
Y35071D01*
X158843D01*
Y34071D01*
X157843D01*
Y32071D01*
X158843D01*
Y39945D02*
Y38945D01*
X160843D01*
Y39945D01*
X161843D01*
Y41945D01*
X160843D01*
Y42945D01*
X158843D01*
Y41945D01*
X157843D01*
Y39945D01*
X158843D01*
X163173Y32071D02*
Y31071D01*
X165173D01*
Y32071D01*
X166173D01*
Y34071D01*
X165173D01*
Y35071D01*
X163173D01*
Y34071D01*
X162173D01*
Y32071D01*
X163173D01*
Y39945D02*
Y38945D01*
X165173D01*
Y39945D01*
X166173D01*
Y41945D01*
X165173D01*
Y42945D01*
X163173D01*
Y41945D01*
X162173D01*
Y39945D01*
X163173D01*
X187978Y24984D02*
Y23984D01*
X189978D01*
Y24984D01*
X190978D01*
Y26984D01*
X189978D01*
Y27984D01*
X187978D01*
Y26984D01*
X186978D01*
Y24984D01*
X187978D01*
X184435D02*
Y23984D01*
X186435D01*
Y24984D01*
X187435D01*
Y26984D01*
X186435D01*
Y27984D01*
X184435D01*
Y26984D01*
X183435D01*
Y24984D01*
X184435D01*
X155365Y53527D02*
Y52527D01*
X157365D01*
Y53527D01*
X158365D01*
Y55528D01*
X157365D01*
Y56528D01*
X155365D01*
Y55528D01*
X154365D01*
Y53527D01*
X155365D01*
X174984Y44669D02*
Y43669D01*
X176984D01*
Y44669D01*
X177984D01*
Y46669D01*
X176984D01*
Y47669D01*
X174984D01*
Y46669D01*
X173984D01*
Y44669D01*
X174984D01*
X171047D02*
Y43669D01*
X173047D01*
Y44669D01*
X174047D01*
Y46669D01*
X173047D01*
Y47669D01*
X171047D01*
Y46669D01*
X170047D01*
Y44669D01*
X171047D01*
X167110D02*
Y43669D01*
X169110D01*
Y44669D01*
X170110D01*
Y46669D01*
X169110D01*
Y47669D01*
X167110D01*
Y46669D01*
X166110D01*
Y44669D01*
X167110D01*
X174984Y49000D02*
Y48000D01*
X176984D01*
Y49000D01*
X177984D01*
Y51000D01*
X176984D01*
Y52000D01*
X174984D01*
Y51000D01*
X173984D01*
Y49000D01*
X174984D01*
X171047D02*
Y48000D01*
X173047D01*
Y49000D01*
X174047D01*
Y51000D01*
X173047D01*
Y52000D01*
X171047D01*
Y51000D01*
X170047D01*
Y49000D01*
X171047D01*
X167110D02*
Y48000D01*
X169110D01*
Y49000D01*
X170110D01*
Y51000D01*
X169110D01*
Y52000D01*
X167110D01*
Y51000D01*
X166110D01*
Y49000D01*
X167110D01*
X149787Y39945D02*
Y38945D01*
X151787D01*
Y39945D01*
X152787D01*
Y41945D01*
X151787D01*
Y42945D01*
X149787D01*
Y41945D01*
X148787D01*
Y39945D01*
X149787D01*
Y32071D02*
Y31071D01*
X151787D01*
Y32071D01*
X152787D01*
Y34071D01*
X151787D01*
Y35071D01*
X149787D01*
Y34071D01*
X148787D01*
Y32071D01*
X149787D01*
X154118Y39945D02*
Y38945D01*
X156118D01*
Y39945D01*
X157118D01*
Y41945D01*
X156118D01*
Y42945D01*
X154118D01*
Y41945D01*
X153118D01*
Y39945D01*
X154118D01*
Y32071D02*
Y31071D01*
X156118D01*
Y32071D01*
X157118D01*
Y34071D01*
X156118D01*
Y35071D01*
X154118D01*
Y34071D01*
X153118D01*
Y32071D01*
X154118D01*
X149787Y36008D02*
Y35008D01*
X151787D01*
Y36008D01*
X152787D01*
Y38008D01*
X151787D01*
Y39008D01*
X149787D01*
Y38008D01*
X148787D01*
Y36008D01*
X149787D01*
X154118D02*
Y35008D01*
X156118D01*
Y36008D01*
X157118D01*
Y38008D01*
X156118D01*
Y39008D01*
X154118D01*
Y38008D01*
X153118D01*
Y36008D01*
X154118D01*
X75378D02*
Y35008D01*
X77378D01*
Y36008D01*
X78378D01*
Y38008D01*
X77378D01*
Y39008D01*
X75378D01*
Y38008D01*
X74378D01*
Y36008D01*
X75378D01*
X71047D02*
Y35008D01*
X73047D01*
Y36008D01*
X74047D01*
Y38008D01*
X73047D01*
Y39008D01*
X71047D01*
Y38008D01*
X70047D01*
Y36008D01*
X71047D01*
X75378Y32071D02*
Y31071D01*
X77378D01*
Y32071D01*
X78378D01*
Y34071D01*
X77378D01*
Y35071D01*
X75378D01*
Y34071D01*
X74378D01*
Y32071D01*
X75378D01*
Y39945D02*
Y38945D01*
X77378D01*
Y39945D01*
X78378D01*
Y41945D01*
X77378D01*
Y42945D01*
X75378D01*
Y41945D01*
X74378D01*
Y39945D01*
X75378D01*
X71047Y32071D02*
Y31071D01*
X73047D01*
Y32071D01*
X74047D01*
Y34071D01*
X73047D01*
Y35071D01*
X71047D01*
Y34071D01*
X70047D01*
Y32071D01*
X71047D01*
Y39945D02*
Y38945D01*
X73047D01*
Y39945D01*
X74047D01*
Y41945D01*
X73047D01*
Y42945D01*
X71047D01*
Y41945D01*
X70047D01*
Y39945D01*
X71047D01*
X88370Y49000D02*
Y48000D01*
X90370D01*
Y49000D01*
X91370D01*
Y51000D01*
X90370D01*
Y52000D01*
X88370D01*
Y51000D01*
X87370D01*
Y49000D01*
X88370D01*
X92307D02*
Y48000D01*
X94307D01*
Y49000D01*
X95307D01*
Y51000D01*
X94307D01*
Y52000D01*
X92307D01*
Y51000D01*
X91307D01*
Y49000D01*
X92307D01*
X96244D02*
Y48000D01*
X98244D01*
Y49000D01*
X99244D01*
Y51000D01*
X98244D01*
Y52000D01*
X96244D01*
Y51000D01*
X95244D01*
Y49000D01*
X96244D01*
X88370Y44669D02*
Y43669D01*
X90370D01*
Y44669D01*
X91370D01*
Y46669D01*
X90370D01*
Y47669D01*
X88370D01*
Y46669D01*
X87370D01*
Y44669D01*
X88370D01*
X92307D02*
Y43669D01*
X94307D01*
Y44669D01*
X95307D01*
Y46669D01*
X94307D01*
Y47669D01*
X92307D01*
Y46669D01*
X91307D01*
Y44669D01*
X92307D01*
X96244D02*
Y43669D01*
X98244D01*
Y44669D01*
X99244D01*
Y46669D01*
X98244D01*
Y47669D01*
X96244D01*
Y46669D01*
X95244D01*
Y44669D01*
X96244D01*
X76625Y53527D02*
Y52527D01*
X78625D01*
Y53527D01*
X79625D01*
Y55528D01*
X78625D01*
Y56528D01*
X76625D01*
Y55528D01*
X75625D01*
Y53527D01*
X76625D01*
X105694Y24984D02*
Y23984D01*
X107694D01*
Y24984D01*
X108694D01*
Y26984D01*
X107694D01*
Y27984D01*
X105694D01*
Y26984D01*
X104694D01*
Y24984D01*
X105694D01*
X109238D02*
Y23984D01*
X111238D01*
Y24984D01*
X112238D01*
Y26984D01*
X111238D01*
Y27984D01*
X109238D01*
Y26984D01*
X108238D01*
Y24984D01*
X109238D01*
X84433Y39945D02*
Y38945D01*
X86433D01*
Y39945D01*
X87433D01*
Y41945D01*
X86433D01*
Y42945D01*
X84433D01*
Y41945D01*
X83433D01*
Y39945D01*
X84433D01*
Y32071D02*
Y31071D01*
X86433D01*
Y32071D01*
X87433D01*
Y34071D01*
X86433D01*
Y35071D01*
X84433D01*
Y34071D01*
X83433D01*
Y32071D01*
X84433D01*
X80102Y39945D02*
Y38945D01*
X82102D01*
Y39945D01*
X83102D01*
Y41945D01*
X82102D01*
Y42945D01*
X80102D01*
Y41945D01*
X79102D01*
Y39945D01*
X80102D01*
Y32071D02*
Y31071D01*
X82102D01*
Y32071D01*
X83102D01*
Y34071D01*
X82102D01*
Y35071D01*
X80102D01*
Y34071D01*
X79102D01*
Y32071D01*
X80102D01*
X84433Y36008D02*
Y35008D01*
X86433D01*
Y36008D01*
X87433D01*
Y38008D01*
X86433D01*
Y39008D01*
X84433D01*
Y38008D01*
X83433D01*
Y36008D01*
X84433D01*
X80102D02*
Y35008D01*
X82102D01*
Y36008D01*
X83102D01*
Y38008D01*
X82102D01*
Y39008D01*
X80102D01*
Y38008D01*
X79102D01*
Y36008D01*
X80102D01*
X110419Y36795D02*
Y35795D01*
X112419D01*
Y36795D01*
X113419D01*
Y38795D01*
X112419D01*
Y39795D01*
X110419D01*
Y38795D01*
X109419D01*
Y36795D01*
X110419D01*
X101862Y29315D02*
Y28315D01*
X103862D01*
Y29315D01*
X104862D01*
Y31315D01*
X103862D01*
Y32315D01*
X101862D01*
Y31315D01*
X100862D01*
Y29315D01*
X101862D01*
X110419Y32858D02*
Y31858D01*
X112419D01*
Y32858D01*
X113419D01*
Y34858D01*
X112419D01*
Y35858D01*
X110419D01*
Y34858D01*
X109419D01*
Y32858D01*
X110419D01*
X106482Y36795D02*
Y35795D01*
X108482D01*
Y36795D01*
X109482D01*
Y38795D01*
X108482D01*
Y39795D01*
X106482D01*
Y38795D01*
X105482D01*
Y36795D01*
X106482D01*
Y32858D02*
Y31858D01*
X108482D01*
Y32858D01*
X109482D01*
Y34858D01*
X108482D01*
Y35858D01*
X106482D01*
Y34858D01*
X105482D01*
Y32858D01*
X106482D01*
X61598Y57268D02*
Y56268D01*
X63598D01*
Y57268D01*
X64598D01*
Y59268D01*
X63598D01*
Y60268D01*
X61598D01*
Y59268D01*
X60598D01*
Y57268D01*
X61598D01*
X57268D02*
Y56268D01*
X59268D01*
Y57268D01*
X60268D01*
Y59268D01*
X59268D01*
Y60268D01*
X57268D01*
Y59268D01*
X56268D01*
Y57268D01*
X57268D01*
X61598Y61205D02*
Y60205D01*
X63598D01*
Y61205D01*
X64598D01*
Y63205D01*
X63598D01*
Y64205D01*
X61598D01*
Y63205D01*
X60598D01*
Y61205D01*
X61598D01*
X57268D02*
Y60205D01*
X59268D01*
Y61205D01*
X60268D01*
Y63205D01*
X59268D01*
Y64205D01*
X57268D01*
Y63205D01*
X56268D01*
Y61205D01*
X57268D01*
Y53331D02*
Y52331D01*
X59268D01*
Y53331D01*
X60268D01*
Y55331D01*
X59268D01*
Y56331D01*
X57268D01*
Y55331D01*
X56268D01*
Y53331D01*
X57268D01*
X61598D02*
Y52331D01*
X63598D01*
Y53331D01*
X64598D01*
Y55331D01*
X63598D01*
Y56331D01*
X61598D01*
Y55331D01*
X60598D01*
Y53331D01*
X61598D01*
X91585Y53527D02*
Y52527D01*
X93585D01*
Y53527D01*
X94585D01*
Y55528D01*
X93585D01*
Y56528D01*
X91585D01*
Y55528D01*
X90585D01*
Y53527D01*
X91585D01*
X83908Y49984D02*
Y48984D01*
X85908D01*
Y49984D01*
X86908D01*
Y51984D01*
X85908D01*
Y52984D01*
X83908D01*
Y51984D01*
X82908D01*
Y49984D01*
X83908D01*
X83252Y69079D02*
Y68079D01*
X85252D01*
Y69079D01*
X86252D01*
Y71079D01*
X85252D01*
Y72079D01*
X83252D01*
Y71079D01*
X82252D01*
Y69079D01*
X83252D01*
X80496D02*
Y68079D01*
X82496D01*
Y69079D01*
X83496D01*
Y71079D01*
X82496D01*
Y72079D01*
X80496D01*
Y71079D01*
X79496D01*
Y69079D01*
X80496D01*
X83252Y78528D02*
Y77528D01*
X85252D01*
Y78528D01*
X86252D01*
Y80528D01*
X85252D01*
Y81528D01*
X83252D01*
Y80528D01*
X82252D01*
Y78528D01*
X83252D01*
X80496D02*
Y77528D01*
X82496D01*
Y78528D01*
X83496D01*
Y80528D01*
X82496D01*
Y81528D01*
X80496D01*
Y80528D01*
X79496D01*
Y78528D01*
X80496D01*
X68947Y49984D02*
Y48984D01*
X70947D01*
Y49984D01*
X71947D01*
Y51984D01*
X70947D01*
Y52984D01*
X68947D01*
Y51984D01*
X67947D01*
Y49984D01*
X68947D01*
X66110Y101937D02*
X67110Y103937D01*
X66110Y105937D01*
X68110Y104937D01*
X70110Y105937D01*
X69110Y103937D01*
X70110Y101937D01*
X68110Y102937D01*
X66110Y101937D01*
X59024D02*
X60024Y103937D01*
X59024Y105937D01*
X61024Y104937D01*
X63024Y105937D01*
X62024Y103937D01*
X63024Y101937D01*
X61024Y102937D01*
X59024Y101937D01*
X66110Y92488D02*
X67110Y94488D01*
X66110Y96488D01*
X68110Y95488D01*
X70110Y96488D01*
X69110Y94488D01*
X70110Y92488D01*
X68110Y93488D01*
X66110Y92488D01*
X59024D02*
X60024Y94488D01*
X59024Y96488D01*
X61024Y95488D01*
X63024Y96488D01*
X62024Y94488D01*
X63024Y92488D01*
X61024Y93488D01*
X59024Y92488D01*
X94457D02*
X95457Y94488D01*
X94457Y96488D01*
X96457Y95488D01*
X98457Y96488D01*
X97457Y94488D01*
X98457Y92488D01*
X96457Y93488D01*
X94457Y92488D01*
X87370D02*
X88370Y94488D01*
X87370Y96488D01*
X89370Y95488D01*
X91370Y96488D01*
X90370Y94488D01*
X91370Y92488D01*
X89370Y93488D01*
X87370Y92488D01*
X94457Y101937D02*
X95457Y103937D01*
X94457Y105937D01*
X96457Y104937D01*
X98457Y105937D01*
X97457Y103937D01*
X98457Y101937D01*
X96457Y102937D01*
X94457Y101937D01*
X87370D02*
X88370Y103937D01*
X87370Y105937D01*
X89370Y104937D01*
X91370Y105937D01*
X90370Y103937D01*
X91370Y101937D01*
X89370Y102937D01*
X87370Y101937D01*
X74984Y78528D02*
Y77528D01*
X76984D01*
Y78528D01*
X77984D01*
Y80528D01*
X76984D01*
Y81528D01*
X74984D01*
Y80528D01*
X73984D01*
Y78528D01*
X74984D01*
X72228D02*
Y77528D01*
X74228D01*
Y78528D01*
X75228D01*
Y80528D01*
X74228D01*
Y81528D01*
X72228D01*
Y80528D01*
X71228D01*
Y78528D01*
X72228D01*
X74984Y69079D02*
Y68079D01*
X76984D01*
Y69079D01*
X77984D01*
Y71079D01*
X76984D01*
Y72079D01*
X74984D01*
Y71079D01*
X73984D01*
Y69079D01*
X74984D01*
X72228D02*
Y68079D01*
X74228D01*
Y69079D01*
X75228D01*
Y71079D01*
X74228D01*
Y72079D01*
X72228D01*
Y71079D01*
X71228D01*
Y69079D01*
X72228D01*
M02*
