G04*
G04 #@! TF.GenerationSoftware,Altium Limited,Altium Designer,23.3.1 (30)*
G04*
G04 Layer_Color=16711935*
%FSLAX25Y25*%
%MOIN*%
G70*
G04*
G04 #@! TF.SameCoordinates,CC060F13-8039-4013-9EB4-17962B1888DE*
G04*
G04*
G04 #@! TF.FilePolarity,Negative*
G04*
G01*
G75*
%ADD52C,0.11824*%
%ADD53C,0.07493*%
%ADD54P,0.10597X4X180.0*%
%ADD55C,0.10642*%
%ADD56R,0.10642X0.10642*%
%ADD57C,0.22453*%
D52*
X14764Y147636D02*
D03*
Y167321D02*
D03*
D53*
X267354Y295638D02*
D03*
X274425Y288567D02*
D03*
X281496Y281496D02*
D03*
X288567Y274425D02*
D03*
D54*
X295638Y267354D02*
D03*
D55*
X172126Y74803D02*
D03*
X250866D02*
D03*
X93386D02*
D03*
X142835Y157480D02*
D03*
X221575D02*
D03*
X64095D02*
D03*
X250866Y240158D02*
D03*
X172126D02*
D03*
X93386D02*
D03*
D56*
X142598Y74803D02*
D03*
X221339D02*
D03*
X63858D02*
D03*
X172362Y157480D02*
D03*
X251102D02*
D03*
X93622D02*
D03*
X221339Y240158D02*
D03*
X142598D02*
D03*
X63858D02*
D03*
D57*
X295276Y295276D02*
D03*
X19685D02*
D03*
X295276Y19685D02*
D03*
X19685D02*
D03*
M02*
