M48
;Layer_Color=9474304
;FILE_FORMAT=2:4
INCH,LZ
;TYPE=PLATED
T1F00S00C0.0118
T2F00S00C0.0157
T3F00S00C0.0354
T4F00S00C0.0551
T5F00S00C0.0709
T6F00S00C0.1181
%
T01
X007205Y003307
Y003701
Y004094
X006995Y005098
X00626Y005433
Y005827
Y00622
X005827
Y005827
Y005433
X007323Y007008
X007598
X00815
X008425
X008491Y005098
X008937Y005
X009331
X009724
Y004567
X009331
X008937
X009134Y003937
X008543Y004094
Y003701
Y003307
X00811
Y003701
Y004094
X007638
Y003701
Y003307
X007762Y005453
X009259
X010748Y00378
X011142
Y003386
X010748
X010286Y003031
X010669Y002598
X011024
X013701Y004646
Y005039
Y005433
X014134
Y005039
Y004646
X014869Y005098
X015636Y005453
X016365Y005098
X016811Y005
X017205
X017598
Y004567
X017205
X016811
X017008Y003937
X016417Y004094
Y003701
Y003307
X015984
Y003701
Y004094
X015512
Y003701
Y003307
X015079
Y003701
Y004094
X015197Y007008
X015472
X016024
X016299
X017133Y005453
X018622Y00378
Y003386
X019016
Y00378
X018898Y002598
X018543
X01816Y003031
X021575Y004646
Y005039
Y005433
X022008
Y005039
Y004646
X023071Y004646
Y005039
X023071Y007008
X023346
X023898
X024173
X02351Y005453
X023504Y005039
X023898
Y004606
X023504Y004646
X024882Y003937
X026496Y00378
X02689
Y003386
X026496
X026034Y003031
X026417Y002598
X026772
X024173Y007953
X023898
X023346
X023386Y011575
Y011969
Y012362
X023858
Y011969
Y011575
X024291
Y011969
Y012362
X024882Y012205
X024685Y012835
Y01315
X025079
Y012835
X025472
Y01315
X025007Y01372
X024239Y013366
X02351Y01372
X023346Y015276
X023898
X024173
Y01622
X023898
X023346
X023386Y019843
Y020236
Y02063
X023858
Y020236
Y019843
X024291
Y020236
Y02063
X024882Y020472
X024685Y021102
X025079
X025472
Y021535
X025079
X024685
X024239Y021634
X02351Y021988
X025007
X026496Y020315
Y019921
X02689
Y020315
X026772Y019134
X026417
X026034Y019567
X026299Y013425
X026496Y012047
X02689
Y011654
X026496
X026034Y011299
X026417Y010866
X026772
X022953Y011575
Y011969
Y012362
X022743Y013366
X022008Y013307
Y013701
X021575
Y013307
Y012913
X022008
X023071Y015276
Y01622
X022953Y019843
Y020236
Y02063
X022743Y021634
X022008Y021575
Y021181
X021575
Y021575
Y021969
X022008
X019016Y020315
Y019921
X018622
Y020315
X01816Y019567
X018543Y019134
X018898
X016417Y019843
Y020236
Y02063
X015984
Y020236
Y019843
X015512
Y020236
Y02063
X015079
Y020236
Y019843
X014869Y021634
X014134Y021575
Y021969
X013701
Y021575
Y021181
X014134
X015636Y021988
X016365Y021634
X016811Y021535
X017205
X017598
Y021102
X017205
X016811
X017008Y020472
X017133Y021988
X016299Y01622
X016024
X015472
X015197
Y015276
X015472
X016024
X016299
X016365Y013366
X016811Y01315
Y012835
X017205
Y01315
X017598
Y012835
X017008Y012205
X016417Y012362
Y011969
Y011575
X015984
Y011969
Y012362
X015512
Y011969
Y011575
X015079
Y011969
Y012362
X014869Y013366
X014134Y013307
Y012913
X013701
Y013307
Y013701
X014134
X015636Y01372
X017133
X018425Y013425
X018622Y012047
Y011654
X019016
Y012047
X018898Y010866
X018543
X01816Y011299
X016299Y007953
X016024
X015472
X015197
X008425
X00815
X007598
X007638Y011575
Y011968
Y012362
X00811
Y011968
Y011575
X008543
Y011968
Y012362
X009134Y012205
X008937Y012835
Y01315
X009331
Y012835
X009724
Y01315
X009259Y01372
X008491Y013366
X007762Y01372
X007598Y015276
X00815
X008425
Y01622
X00815
X007598
X007638Y019843
Y020236
Y02063
X00811
Y020236
Y019843
X008543
Y020236
Y02063
X009134Y020472
X008937Y021102
X009331
X009724
Y021535
X009331
X008937
X008491Y021634
X007762Y021988
X009259
X010748Y020315
Y019921
X011142
Y020315
X011024Y019134
X010669
X010286Y019567
X010551Y013425
X010748Y012047
X011142
Y011654
X010748
X010286Y011299
X010669Y010866
X011024
X023071Y007953
X007323
X007205Y011575
Y011968
Y012362
X006995Y013366
X00626Y013701
Y014094
Y014488
X005827
Y014094
Y013701
X007323Y015276
Y01622
X007205Y019843
Y020236
Y02063
X006995Y021634
X00626Y021969
Y022362
Y022756
X005827
Y022362
Y021969
X007323Y023543
Y024488
X006614Y030787
X003848Y02874
X007598Y024488
X00815
X008425
Y023543
X00815
X007598
X015197
X015472
X016024
X016299
Y024488
X016024
X015472
X015197
X015866Y029685
Y030039
Y030394
Y030748
X01626
Y030394
Y030039
Y029685
X019606Y029449
X02
X020394
X022736Y029341
X022736Y028967
X022736Y028593
X023071Y024488
Y023543
X023346
X023898
X024173
Y024488
X023898
X023346
X024989Y030669
X028475
T02
X012559Y002706
X012992Y003218
X012992Y003948
X012559Y00446
X020433
X020866Y003948
X020866Y003218
X020433Y002706
X028307
X02874Y003218
X02874Y003948
X028307Y00446
X028307Y010974
X02874Y011485
X02874Y012215
X028307Y012727
X025394Y010394
X024685
Y009449
X025394
Y017717
X024685
Y018661
X025394
X028307Y019241
X02874Y019753
X02874Y020483
X028307Y020995
X020433
X020866Y020483
X020866Y019753
X020433Y019241
X02185Y018661
X022559
Y017717
X02185
X01752
X016811
Y018661
X01752
X014685
X013976
Y017717
X014685
X012559Y019241
X012992Y019753
X012992Y020483
X012559Y020995
X009646Y018661
X008937
Y017717
X009646
Y010394
X008937
Y009449
X009646
X013976
X014685
Y010394
X013976
X012559Y010974
X012992Y011486
X012992Y012216
X012559Y012727
X016811Y010394
X01752
Y009449
X016811
X02185
X022559
Y010394
X02185
X020433Y010974
X020866Y011486
X020866Y012216
X020433Y012727
X006811Y010394
X006102
Y009449
X006811
Y017717
X006102
Y018661
X006811
X006811Y025984
X006102
Y026929
X006811
X00626Y027717
Y02811
Y028504
X006102Y029606
X005709
X005315
X004213Y028504
Y02811
Y027717
X007441Y029882
Y030276
Y030669
X009528Y03063
Y030236
Y029843
X009646Y026929
X008937
Y025984
X009646
X013976
X014685
Y026929
X013976
X016811
X01752
Y025984
X016811
X018307Y027824
X017913Y028296
X02185Y026929
X022559
Y025984
X02185
X024685
X025394
Y026929
X024685
X026693Y026732
X027165Y02622
Y027244
T03
X026735Y029564
X027443Y028857
X02815Y02815
X028857Y027443
X029564Y026735
T04
X006386Y00748
X009339
X01426
X017213
X022134
X025087
X02511Y015748
X022157
X017236
X014283
X009362
X006409
X006386Y024016
X009339
X01426
X017213
X022134
X025087
T05
X001476Y014764
Y016732
T06
X001969Y001969
X029528
X001969Y029528
X029528
M30
