G04*
G04 #@! TF.GenerationSoftware,Altium Limited,Altium Designer,23.3.1 (30)*
G04*
G04 Layer_Physical_Order=4*
G04 Layer_Color=16711680*
%FSLAX25Y25*%
%MOIN*%
G70*
G04*
G04 #@! TF.SameCoordinates,CC060F13-8039-4013-9EB4-17962B1888DE*
G04*
G04*
G04 #@! TF.FilePolarity,Positive*
G04*
G01*
G75*
%ADD11C,0.01181*%
%ADD58C,0.01968*%
%ADD60C,0.01575*%
%ADD108C,0.11024*%
%ADD109C,0.06693*%
%ADD110P,0.09465X4X180.0*%
%ADD111C,0.09843*%
%ADD112R,0.09843X0.09843*%
%ADD113C,0.21654*%
%ADD114C,0.01968*%
%ADD115C,0.02756*%
%ADD123C,0.01181*%
%ADD124R,0.03937X0.11024*%
%ADD125R,0.16142X0.18898*%
%ADD126R,0.68110X0.25591*%
%ADD127R,0.62992X0.27559*%
%ADD128R,0.62756X0.25591*%
%ADD129R,0.62756X0.25591*%
%ADD130R,0.66929X0.27559*%
%ADD131R,0.22047X1.07874*%
D11*
X66929Y217717D02*
X78740Y229528D01*
X66929Y194299D02*
Y217717D01*
Y194299D02*
X78740Y183071D01*
X212598Y138976D02*
X218110Y144488D01*
X212598Y118150D02*
Y138976D01*
X218110Y144488D02*
X230315D01*
X121653D02*
X150394D01*
X157480Y151575D01*
Y174803D01*
X230315Y144488D02*
X236221Y150394D01*
Y167323D01*
X205158Y118150D02*
X212598D01*
X214370D01*
X214410Y118110D02*
X223622D01*
X99213Y122047D02*
X121653Y144488D01*
X99213Y112598D02*
Y122047D01*
Y112598D02*
X103150Y108661D01*
X78740Y151575D02*
Y183071D01*
X52362Y126772D02*
X78740Y100394D01*
X52362Y126772D02*
Y143701D01*
X57480Y148819D01*
X75984D01*
X78740Y151575D01*
Y229528D02*
Y254724D01*
X90158Y266142D01*
X200098D02*
X227362Y293406D01*
X90158Y266142D02*
X200098D01*
X157480Y259842D02*
X161024Y263386D01*
X201083D02*
X227362Y289665D01*
X161024Y263386D02*
X201083D01*
X270866Y30315D02*
X276772Y36220D01*
Y107480D01*
X260343Y30315D02*
X270866D01*
X262570Y98003D02*
X270773Y106206D01*
X164145Y98003D02*
X262570D01*
X157480Y91339D02*
X164145Y98003D01*
X188978Y100394D02*
X259450D01*
X188978D02*
Y108661D01*
X109546Y100394D02*
X188978D01*
X78740D02*
X109546D01*
X259450D02*
X267718Y108661D01*
X109892Y100740D02*
X110238Y101086D01*
Y108661D01*
X109546Y100394D02*
X109892Y100740D01*
X102862Y112992D02*
X122835D01*
X127953Y118110D02*
X134646D01*
X122835Y112992D02*
X127953Y118110D01*
X134646D02*
X139764Y112992D01*
X181602D01*
X132677Y200394D02*
X137402Y195669D01*
X127165Y200394D02*
X132677D01*
X137402Y195669D02*
X181602D01*
X200787Y189370D02*
X262206D01*
X264175Y191339D01*
X266537Y193701D01*
X183860Y189764D02*
X187797Y193701D01*
X120866Y189764D02*
X183860D01*
X261726Y23536D02*
X264175Y25984D01*
X195669Y28346D02*
X200480Y23536D01*
X261726D01*
X183039Y23589D02*
X185435Y25984D01*
X117323Y28346D02*
X122080Y23589D01*
X183039D01*
X185435Y25984D02*
X187797Y28346D01*
X211811Y35433D02*
X216929Y30315D01*
X205512Y35433D02*
X211811D01*
X216929Y30315D02*
X260343D01*
X271260Y112992D02*
X276772Y107480D01*
X260343Y112992D02*
X271260D01*
X228740D02*
X260343D01*
X157480Y64173D02*
Y91339D01*
X150394Y57087D02*
X157480Y64173D01*
X270773Y106206D02*
Y109331D01*
X269080Y111024D02*
X270773Y109331D01*
X266537Y111024D02*
X269080D01*
X264175Y108661D02*
X266537Y111024D01*
X262657Y107144D02*
X264175Y108661D01*
X197581Y107144D02*
X262657D01*
X193701Y111024D02*
X197581Y107144D01*
X109057Y111024D02*
X111660D01*
X115621Y107063D01*
X183836D01*
X185435Y108661D02*
X187797Y111024D01*
X183836Y107063D02*
X185435Y108661D01*
X214370Y118150D02*
X214410Y118110D01*
X223622D02*
X228740Y112992D01*
X200000D02*
X205158Y118150D01*
X228740Y195669D02*
X260343D01*
X223622Y200787D02*
X228740Y195669D01*
X260343D02*
X271260D01*
X187797Y28346D02*
X195669D01*
X109057D02*
X117323D01*
X106694Y25984D02*
X109057Y28346D01*
X100000Y27559D02*
X101575Y25984D01*
X106694D01*
X100000Y27559D02*
Y48819D01*
X108268Y57087D01*
X150394D01*
X187797Y111024D02*
X193701D01*
X106694Y108661D02*
X109057Y111024D01*
X103150Y108661D02*
X106694D01*
X157480Y174803D02*
X163386Y180709D01*
X261811D01*
X270472Y189370D02*
Y192520D01*
X261811Y180709D02*
X270472Y189370D01*
X266537Y193701D02*
X269291D01*
X270472Y192520D01*
X188976Y18504D02*
X260238D01*
X109843D02*
X188976D01*
X188978Y18505D02*
Y25984D01*
X188976Y18504D02*
X188978Y18505D01*
X77165Y18504D02*
X109843D01*
X110238Y18899D01*
Y25984D01*
X260238Y18504D02*
X267718Y25984D01*
X66142Y29528D02*
X77165Y18504D01*
X66142Y29528D02*
Y53543D01*
X78740Y66142D01*
Y100394D01*
Y183071D02*
X110630D01*
X236221Y167323D02*
X242520Y173622D01*
X261024D01*
X274410Y187008D01*
X196457Y193701D02*
X200787Y189370D01*
X187797Y193701D02*
X196457D01*
X109057D02*
X116929D01*
X120866Y189764D01*
X106694Y191339D02*
X109057Y193701D01*
X110630Y183071D02*
X189370D01*
X110238Y183463D02*
Y191339D01*
Y183463D02*
X110630Y183071D01*
X189370D02*
X259450D01*
X188978Y183463D02*
Y191339D01*
Y183463D02*
X189370Y183071D01*
X259450D02*
X267718Y191339D01*
X119291Y222835D02*
X148819D01*
X99213Y202756D02*
X119291Y222835D01*
X148819D02*
X157480Y231496D01*
X99213Y193307D02*
Y202756D01*
Y193307D02*
X101181Y191339D01*
X106694D01*
X157480Y231496D02*
Y259842D01*
X133858Y35039D02*
X138583Y30315D01*
X181602D01*
X126378Y35039D02*
X133858D01*
X121653Y30315D02*
X126378Y35039D01*
X102862Y30315D02*
X121653D01*
X200394D02*
X205512Y35433D01*
X181602Y30315D02*
X200394D01*
X181602Y112992D02*
X200000D01*
X274410Y187008D02*
Y192520D01*
X271260Y195669D02*
X274410Y192520D01*
X102862Y195669D02*
X122441D01*
X127165Y200394D01*
X223622Y200787D02*
Y218898D01*
X206693Y200787D02*
X223622D01*
X201575Y195669D02*
X206693Y200787D01*
X181602Y195669D02*
X201575D01*
X223622Y218898D02*
X236221Y231496D01*
Y277067D01*
X227362Y285925D02*
X236221Y277067D01*
D58*
X66929Y131496D02*
X68110Y130315D01*
X71653D02*
X73228Y131890D01*
X68110Y130315D02*
X71653D01*
X66929Y131496D02*
Y135855D01*
X73228Y131890D02*
Y137008D01*
X62598Y137008D02*
X65776D01*
X66929Y135855D01*
X143307Y137008D02*
X145669Y134646D01*
X146822Y130315D02*
X150385D01*
X145669Y131468D02*
Y134646D01*
Y131468D02*
X146822Y130315D01*
X150385D02*
X151538Y131468D01*
Y136577D01*
X141339Y137008D02*
X143307D01*
X230709Y131890D02*
Y137008D01*
X228740Y129921D02*
X230709Y131890D01*
X226378Y129921D02*
X228740D01*
X224410Y131890D02*
X226378Y129921D01*
X224410Y131890D02*
Y135855D01*
X220079Y137008D02*
X223256D01*
X224410Y135855D01*
X90078Y134252D02*
X105512D01*
X76377Y140156D02*
X84173D01*
X90078Y134252D01*
X73228Y137008D02*
X76377Y140156D01*
X151538Y136577D02*
X155439Y140478D01*
X162278D02*
X168504Y134252D01*
X155439Y140478D02*
X162278D01*
X148688Y133661D02*
Y137970D01*
X153955Y143238D02*
X165284D01*
X148688Y137970D02*
X153955Y143238D01*
X165284D02*
X171317Y137205D01*
X86898Y142883D02*
X92577Y137205D01*
X69947Y138058D02*
X74773Y142883D01*
X86898D01*
X241886Y139851D02*
X247485Y134252D01*
X262992D01*
X233552Y139851D02*
X241886D01*
X227428Y133661D02*
Y138134D01*
X232207Y142913D01*
X244349D01*
X230709Y137008D02*
X233552Y139851D01*
X244349Y142913D02*
X250057Y137205D01*
X68110Y309842D02*
X91338D01*
X66142Y307874D02*
X68110Y309842D01*
X91338D02*
X94882Y306299D01*
X95276D01*
X168504Y134252D02*
X184252D01*
X69947Y133661D02*
Y138058D01*
X77625Y219882D02*
X81365D01*
X84908Y216339D01*
X69947D02*
X76443Y222835D01*
X89624D01*
X92577Y219882D01*
X240748Y54527D02*
X248819Y46457D01*
Y39370D02*
Y46457D01*
X235105Y54527D02*
X240748D01*
X163648Y45801D02*
Y50984D01*
Y45801D02*
X170079Y39370D01*
X84908Y45801D02*
X91339Y39370D01*
X84908Y45801D02*
Y50984D01*
X235105Y137205D02*
X238845D01*
X250057D02*
X250066D01*
X238845D02*
X242388Y133661D01*
Y128478D02*
Y133661D01*
X248819Y122047D02*
Y122047D01*
X242388Y128478D02*
X248819Y122047D01*
X163648Y128478D02*
X170079Y122047D01*
Y122047D02*
Y122047D01*
X163648Y128478D02*
Y133661D01*
X160105Y137205D02*
X163648Y133661D01*
X171317Y137205D02*
X171325D01*
X156365D02*
X160105D01*
X92577Y137205D02*
X92585D01*
X242388Y211155D02*
X248819Y204724D01*
Y204724D02*
Y204724D01*
X242388Y211155D02*
Y216339D01*
X238845Y219882D02*
X242388Y216339D01*
X250057Y219882D02*
X250066D01*
X235105D02*
X238845D01*
X227428Y216339D02*
X233924Y222835D01*
X247105D02*
X250057Y219882D01*
X233924Y222835D02*
X247105D01*
X155184D02*
X168365D01*
X171317Y219882D01*
X148688Y216339D02*
X155184Y222835D01*
X156365Y219882D02*
X160105D01*
X171317D02*
X171325D01*
X160105D02*
X163648Y216339D01*
Y211155D02*
Y216339D01*
X170079Y204724D02*
Y204724D01*
X163648Y211155D02*
X170079Y204724D01*
X84908Y211155D02*
X91339Y204724D01*
Y204724D02*
Y204724D01*
X84908Y211155D02*
Y216339D01*
X92577Y219882D02*
X92585D01*
X160105Y54527D02*
X163648Y50984D01*
X171317Y54527D02*
X171325D01*
X156365D02*
X160105D01*
X148688Y50984D02*
X155184Y57480D01*
X168365D02*
X171317Y54527D01*
X155184Y57480D02*
X168365D01*
X76443D02*
X89624D01*
X92577Y54527D01*
X69947Y50984D02*
X76443Y57480D01*
X77625Y54527D02*
X81365D01*
X92577D02*
X92585D01*
X81365D02*
X84908Y50984D01*
D60*
X81365Y137205D02*
X84908Y133661D01*
X77625Y137205D02*
X81365D01*
X84908Y128478D02*
Y133661D01*
X91339Y122047D02*
Y122047D01*
X84908Y128478D02*
X91339Y122047D01*
D108*
X14764Y147636D02*
D03*
Y167321D02*
D03*
D109*
X267354Y295638D02*
D03*
X274425Y288567D02*
D03*
X281496Y281496D02*
D03*
X288567Y274425D02*
D03*
D110*
X295638Y267354D02*
D03*
D111*
X172126Y74803D02*
D03*
X250866D02*
D03*
X93386D02*
D03*
X142835Y157480D02*
D03*
X221575D02*
D03*
X64095D02*
D03*
X250866Y240158D02*
D03*
X172126D02*
D03*
X93386D02*
D03*
D112*
X142598Y74803D02*
D03*
X221339D02*
D03*
X63858D02*
D03*
X172362Y157480D02*
D03*
X251102D02*
D03*
X93622D02*
D03*
X221339Y240158D02*
D03*
X142598D02*
D03*
X63858D02*
D03*
D113*
X295276Y295276D02*
D03*
X19685D02*
D03*
X295276Y19685D02*
D03*
X19685D02*
D03*
D114*
X38476Y287402D02*
D03*
X66142Y307874D02*
D03*
X158661Y296850D02*
D03*
Y300394D02*
D03*
Y307480D02*
D03*
Y303937D02*
D03*
X162598Y300394D02*
D03*
Y296850D02*
D03*
Y307480D02*
D03*
Y303937D02*
D03*
X262992Y134252D02*
D03*
X184252D02*
D03*
X105512D02*
D03*
X248819Y39370D02*
D03*
X170079D02*
D03*
X91339D02*
D03*
X268899Y33858D02*
D03*
X227362Y289665D02*
D03*
X227362Y293406D02*
D03*
Y285925D02*
D03*
X249893Y306693D02*
D03*
X284752D02*
D03*
X196063Y294488D02*
D03*
X200000D02*
D03*
X203937D02*
D03*
X264175Y25984D02*
D03*
X267718D02*
D03*
X268899Y37795D02*
D03*
X260343Y30315D02*
D03*
X264962Y37795D02*
D03*
Y33858D02*
D03*
X238976Y46063D02*
D03*
Y50394D02*
D03*
X230709Y46457D02*
D03*
Y50394D02*
D03*
X235039D02*
D03*
Y46457D02*
D03*
X220079Y133071D02*
D03*
X215748D02*
D03*
Y129134D02*
D03*
Y137008D02*
D03*
X220079D02*
D03*
Y129134D02*
D03*
X233858Y119685D02*
D03*
X229528D02*
D03*
X233858Y115748D02*
D03*
Y123622D02*
D03*
X229528Y115748D02*
D03*
Y123622D02*
D03*
X246850Y131496D02*
D03*
X250787D02*
D03*
X254724D02*
D03*
X250787Y128347D02*
D03*
X254724D02*
D03*
X235105Y137205D02*
D03*
X267718Y108661D02*
D03*
X242913Y115748D02*
D03*
X238583Y123622D02*
D03*
Y115748D02*
D03*
X242913Y119685D02*
D03*
X238583D02*
D03*
X268899Y120472D02*
D03*
Y116535D02*
D03*
X264962Y120472D02*
D03*
Y116535D02*
D03*
X250066Y137205D02*
D03*
X242388Y133661D02*
D03*
X241732Y152756D02*
D03*
X238976D02*
D03*
X241732Y162205D02*
D03*
X238976D02*
D03*
X227428Y133661D02*
D03*
X233465Y162205D02*
D03*
X230709D02*
D03*
X233465Y152756D02*
D03*
X230709D02*
D03*
X246850Y128347D02*
D03*
X242913Y123622D02*
D03*
X260343Y112992D02*
D03*
X264175Y108661D02*
D03*
X248819Y122047D02*
D03*
X170079D02*
D03*
X181602Y112992D02*
D03*
X164173Y123622D02*
D03*
X168110Y128347D02*
D03*
X151969Y152756D02*
D03*
X154724D02*
D03*
X151969Y162205D02*
D03*
X154724D02*
D03*
X148688Y133661D02*
D03*
X160236Y162205D02*
D03*
X162992D02*
D03*
X160236Y152756D02*
D03*
X162992D02*
D03*
X163648Y133661D02*
D03*
X171325Y137205D02*
D03*
X186222Y116535D02*
D03*
Y120472D02*
D03*
X190159Y116535D02*
D03*
Y120472D02*
D03*
X159843Y119685D02*
D03*
X164173D02*
D03*
X159843Y115748D02*
D03*
Y123622D02*
D03*
X164173Y115748D02*
D03*
X188978Y108661D02*
D03*
X156365Y137205D02*
D03*
X175984Y128347D02*
D03*
X172047D02*
D03*
X175984Y131496D02*
D03*
X172047D02*
D03*
X168110D02*
D03*
X150787Y123622D02*
D03*
Y115748D02*
D03*
X155118Y123622D02*
D03*
Y115748D02*
D03*
X150787Y119685D02*
D03*
X155118D02*
D03*
X141339Y129134D02*
D03*
Y137008D02*
D03*
X137008D02*
D03*
Y129134D02*
D03*
Y133071D02*
D03*
X141339D02*
D03*
X185435Y108661D02*
D03*
X76378Y119685D02*
D03*
X72047D02*
D03*
X76378Y115748D02*
D03*
Y123622D02*
D03*
X72047Y115748D02*
D03*
Y123622D02*
D03*
X89370Y131496D02*
D03*
X93307D02*
D03*
X97244D02*
D03*
X93307Y128347D02*
D03*
X97244D02*
D03*
X77625Y137205D02*
D03*
X110238Y108661D02*
D03*
X85433Y115748D02*
D03*
X81102Y123622D02*
D03*
Y115748D02*
D03*
X85433Y119685D02*
D03*
X81102D02*
D03*
X111419Y120472D02*
D03*
Y116535D02*
D03*
X107482Y120472D02*
D03*
Y116535D02*
D03*
X62598Y140945D02*
D03*
X58268D02*
D03*
X62598Y144882D02*
D03*
X58268D02*
D03*
Y137008D02*
D03*
X62598D02*
D03*
X92585Y137205D02*
D03*
X84908Y133661D02*
D03*
X84252Y152756D02*
D03*
X81496D02*
D03*
X84252Y162205D02*
D03*
X81496D02*
D03*
X69947Y133661D02*
D03*
X75984Y162205D02*
D03*
X73228D02*
D03*
X75984Y152756D02*
D03*
X73228D02*
D03*
X89370Y128347D02*
D03*
X85433Y123622D02*
D03*
X102862Y112992D02*
D03*
X106694Y108661D02*
D03*
X91339Y122047D02*
D03*
X185435Y191339D02*
D03*
X248819Y204724D02*
D03*
X264175Y191339D02*
D03*
X260343Y195669D02*
D03*
X242913Y206299D02*
D03*
X246850Y211024D02*
D03*
X230709Y235433D02*
D03*
X233465D02*
D03*
X230709Y244882D02*
D03*
X233465D02*
D03*
X227428Y216339D02*
D03*
X238976Y244882D02*
D03*
X241732D02*
D03*
X238976Y235433D02*
D03*
X241732D02*
D03*
X242388Y216339D02*
D03*
X250066Y219882D02*
D03*
X264962Y199213D02*
D03*
Y203150D02*
D03*
X268899Y199213D02*
D03*
Y203150D02*
D03*
X238583Y202362D02*
D03*
X242913D02*
D03*
X238583Y198425D02*
D03*
Y206299D02*
D03*
X242913Y198425D02*
D03*
X267718Y191339D02*
D03*
X235105Y219882D02*
D03*
X254724Y211024D02*
D03*
X250787D02*
D03*
X254724Y215354D02*
D03*
X250787D02*
D03*
X246850D02*
D03*
X229528Y206299D02*
D03*
Y198425D02*
D03*
X233858Y206299D02*
D03*
Y198425D02*
D03*
X229528Y202362D02*
D03*
X233858D02*
D03*
X220079Y211811D02*
D03*
Y219685D02*
D03*
X215748D02*
D03*
Y211811D02*
D03*
Y215748D02*
D03*
X220079D02*
D03*
X141339D02*
D03*
X137008D02*
D03*
Y211811D02*
D03*
Y219685D02*
D03*
X141339D02*
D03*
Y211811D02*
D03*
X155118Y202362D02*
D03*
X150787D02*
D03*
X155118Y198425D02*
D03*
Y206299D02*
D03*
X150787Y198425D02*
D03*
Y206299D02*
D03*
X168110Y215354D02*
D03*
X172047D02*
D03*
X175984D02*
D03*
X172047Y211024D02*
D03*
X175984D02*
D03*
X156365Y219882D02*
D03*
X188978Y191339D02*
D03*
X164173Y198425D02*
D03*
X159843Y206299D02*
D03*
Y198425D02*
D03*
X164173Y202362D02*
D03*
X159843D02*
D03*
X190159Y203150D02*
D03*
Y199213D02*
D03*
X186222Y203150D02*
D03*
Y199213D02*
D03*
X171325Y219882D02*
D03*
X163648Y216339D02*
D03*
X162992Y235433D02*
D03*
X160236D02*
D03*
X162992Y244882D02*
D03*
X160236D02*
D03*
X148688Y216339D02*
D03*
X154724Y244882D02*
D03*
X151969D02*
D03*
X154724Y235433D02*
D03*
X151969D02*
D03*
X168110Y211024D02*
D03*
X164173Y206299D02*
D03*
X181602Y195669D02*
D03*
X170079Y204724D02*
D03*
X91339D02*
D03*
X106694Y191339D02*
D03*
X102862Y195669D02*
D03*
X85433Y206299D02*
D03*
X89370Y211024D02*
D03*
X73228Y235433D02*
D03*
X75984D02*
D03*
X73228Y244882D02*
D03*
X75984D02*
D03*
X69947Y216339D02*
D03*
X81496Y244882D02*
D03*
X84252D02*
D03*
X81496Y235433D02*
D03*
X84252D02*
D03*
X84908Y216339D02*
D03*
X92585Y219882D02*
D03*
X62598Y219685D02*
D03*
X58268D02*
D03*
Y227559D02*
D03*
X62598D02*
D03*
X58268Y223622D02*
D03*
X62598D02*
D03*
X107482Y199213D02*
D03*
Y203150D02*
D03*
X111419Y199213D02*
D03*
Y203150D02*
D03*
X81102Y202362D02*
D03*
X85433D02*
D03*
X81102Y198425D02*
D03*
Y206299D02*
D03*
X85433Y198425D02*
D03*
X110238Y191339D02*
D03*
X77625Y219882D02*
D03*
X97244Y211024D02*
D03*
X93307D02*
D03*
X97244Y215354D02*
D03*
X93307D02*
D03*
X89370D02*
D03*
X72047Y206299D02*
D03*
Y198425D02*
D03*
X76378Y206299D02*
D03*
Y198425D02*
D03*
X72047Y202362D02*
D03*
X76378D02*
D03*
X241732Y70079D02*
D03*
X238976D02*
D03*
X241732Y79528D02*
D03*
X238976D02*
D03*
X235105Y54527D02*
D03*
X233465Y79528D02*
D03*
X230709D02*
D03*
X233465Y70079D02*
D03*
X230709D02*
D03*
X220079Y50394D02*
D03*
X215748D02*
D03*
Y46457D02*
D03*
Y54331D02*
D03*
X220079D02*
D03*
Y46457D02*
D03*
X141339D02*
D03*
Y54331D02*
D03*
X137008D02*
D03*
Y46457D02*
D03*
Y50394D02*
D03*
X141339D02*
D03*
X151969Y70079D02*
D03*
X154724D02*
D03*
X151969Y79528D02*
D03*
X154724D02*
D03*
X148688Y50984D02*
D03*
X160236Y79528D02*
D03*
X162992D02*
D03*
X160236Y70079D02*
D03*
X162992D02*
D03*
X163648Y50984D02*
D03*
X171325Y54527D02*
D03*
X186222Y33858D02*
D03*
Y37795D02*
D03*
X190159Y33858D02*
D03*
X181602Y30315D02*
D03*
X190159Y37795D02*
D03*
X159843Y37008D02*
D03*
X164173D02*
D03*
X159843Y33071D02*
D03*
Y40945D02*
D03*
X164173Y33071D02*
D03*
Y40945D02*
D03*
X188978Y25984D02*
D03*
X185435D02*
D03*
X156365Y54527D02*
D03*
X175984Y45669D02*
D03*
X172047D02*
D03*
X168110D02*
D03*
X175984Y50000D02*
D03*
X172047D02*
D03*
X168110D02*
D03*
X150787Y40945D02*
D03*
Y33071D02*
D03*
X155118Y40945D02*
D03*
Y33071D02*
D03*
X150787Y37008D02*
D03*
X155118D02*
D03*
X76378D02*
D03*
X72047D02*
D03*
X76378Y33071D02*
D03*
Y40945D02*
D03*
X72047Y33071D02*
D03*
Y40945D02*
D03*
X89370Y50000D02*
D03*
X93307D02*
D03*
X97244D02*
D03*
X89370Y45669D02*
D03*
X93307D02*
D03*
X97244D02*
D03*
X77625Y54527D02*
D03*
X106694Y25984D02*
D03*
X110238D02*
D03*
X85433Y40945D02*
D03*
Y33071D02*
D03*
X81102Y40945D02*
D03*
Y33071D02*
D03*
X85433Y37008D02*
D03*
X81102D02*
D03*
X111419Y37795D02*
D03*
X102862Y30315D02*
D03*
X111419Y33858D02*
D03*
X107482Y37795D02*
D03*
Y33858D02*
D03*
X62598Y58268D02*
D03*
X58268D02*
D03*
X62598Y62205D02*
D03*
X58268D02*
D03*
Y54331D02*
D03*
X62598D02*
D03*
X92585Y54527D02*
D03*
X84908Y50984D02*
D03*
X84252Y70079D02*
D03*
X81496D02*
D03*
X84252Y79528D02*
D03*
X81496D02*
D03*
X69947Y50984D02*
D03*
X75984Y79528D02*
D03*
X73228D02*
D03*
X75984Y70079D02*
D03*
X73228D02*
D03*
D115*
X42126Y277165D02*
D03*
Y281102D02*
D03*
Y285039D02*
D03*
X62598Y277165D02*
D03*
Y281102D02*
D03*
Y285039D02*
D03*
X74409Y306693D02*
D03*
Y302756D02*
D03*
Y298819D02*
D03*
X95276Y302362D02*
D03*
Y298425D02*
D03*
Y306299D02*
D03*
X179134Y282964D02*
D03*
X183071Y278240D02*
D03*
X266929Y267323D02*
D03*
X271654Y262205D02*
D03*
Y272441D02*
D03*
X125589Y44596D02*
D03*
X129921Y39478D02*
D03*
X129923Y32178D02*
D03*
X125591Y27060D02*
D03*
X204329Y44596D02*
D03*
X208661Y39478D02*
D03*
X208663Y32178D02*
D03*
X204331Y27060D02*
D03*
X283069Y44596D02*
D03*
X287402Y39478D02*
D03*
X287403Y32178D02*
D03*
X283071Y27060D02*
D03*
X283071Y127272D02*
D03*
X287403Y122154D02*
D03*
X287405Y114854D02*
D03*
X283072Y109736D02*
D03*
X204329Y127273D02*
D03*
X208661Y122155D02*
D03*
X208663Y114855D02*
D03*
X204331Y109737D02*
D03*
X125589Y127273D02*
D03*
X129921Y122155D02*
D03*
X129923Y114855D02*
D03*
X125591Y109737D02*
D03*
X125589Y209951D02*
D03*
X129921Y204833D02*
D03*
X129923Y197533D02*
D03*
X125591Y192414D02*
D03*
X204331Y209949D02*
D03*
X208663Y204831D02*
D03*
X208664Y197531D02*
D03*
X204332Y192413D02*
D03*
X283072D02*
D03*
X287405Y197531D02*
D03*
X287403Y204831D02*
D03*
X283071Y209949D02*
D03*
X61024Y296063D02*
D03*
X53150D02*
D03*
X57087D02*
D03*
X225591Y186614D02*
D03*
X218504D02*
D03*
X225591Y177165D02*
D03*
X218504D02*
D03*
X253937D02*
D03*
X246850D02*
D03*
X253937Y186614D02*
D03*
X246850D02*
D03*
X168110D02*
D03*
X175197D02*
D03*
X168110Y177165D02*
D03*
X175197D02*
D03*
X139764D02*
D03*
X146850D02*
D03*
X139764Y186614D02*
D03*
X146850D02*
D03*
X68110Y186614D02*
D03*
X61024D02*
D03*
X68110Y177165D02*
D03*
X61024D02*
D03*
X96457D02*
D03*
X89370D02*
D03*
X96457Y186614D02*
D03*
X89370D02*
D03*
X246850Y269291D02*
D03*
X253937D02*
D03*
X246850Y259842D02*
D03*
X253937D02*
D03*
X218504D02*
D03*
X225591D02*
D03*
X218504Y269291D02*
D03*
X225591D02*
D03*
X146850D02*
D03*
X139764D02*
D03*
X146850Y259842D02*
D03*
X139764D02*
D03*
X175197D02*
D03*
X168110D02*
D03*
X175197Y269291D02*
D03*
X168110D02*
D03*
X89370D02*
D03*
X96457D02*
D03*
X89370Y259842D02*
D03*
X96457D02*
D03*
X61024D02*
D03*
X68110D02*
D03*
X61024Y269291D02*
D03*
X68110D02*
D03*
X253937Y94488D02*
D03*
X246850D02*
D03*
X253937Y103937D02*
D03*
X246850D02*
D03*
X225591D02*
D03*
X218504D02*
D03*
X225591Y94488D02*
D03*
X218504D02*
D03*
X168110Y103937D02*
D03*
X175197D02*
D03*
X168110Y94488D02*
D03*
X175197D02*
D03*
X139764D02*
D03*
X146850D02*
D03*
X139764Y103937D02*
D03*
X146850D02*
D03*
X68110D02*
D03*
X61024D02*
D03*
X68110Y94488D02*
D03*
X61024D02*
D03*
X96457D02*
D03*
X89370D02*
D03*
X96457Y103937D02*
D03*
X89370D02*
D03*
D123*
X109892Y100740D02*
D03*
D124*
X95276Y302362D02*
D03*
D125*
X252165Y73622D02*
D03*
D126*
X278150Y158465D02*
D03*
D127*
X196850Y74803D02*
D03*
Y240158D02*
D03*
X118110Y74803D02*
D03*
Y240158D02*
D03*
D128*
X118228Y158465D02*
D03*
D129*
X196968D02*
D03*
D130*
X277559Y240158D02*
D03*
D131*
X301181Y200000D02*
D03*
M02*
