G04*
G04 #@! TF.GenerationSoftware,Altium Limited,Altium Designer,23.3.1 (30)*
G04*
G04 Layer_Color=32896*
%FSLAX25Y25*%
%MOIN*%
G70*
G04*
G04 #@! TF.SameCoordinates,CC060F13-8039-4013-9EB4-17962B1888DE*
G04*
G04*
G04 #@! TF.FilePolarity,Positive*
G04*
G01*
G75*
%ADD14C,0.01000*%
%ADD19C,0.00492*%
%ADD132C,0.01500*%
%ADD133C,0.06000*%
D14*
X22047Y147638D02*
G03*
X17243Y154486I-7283J-0D01*
G01*
X15944Y156337D02*
G03*
X17243Y154486I1969J-0D01*
G01*
X12284D02*
G03*
X13582Y156337I-670J1851D01*
G01*
X7480Y167323D02*
G03*
X12284Y160474I7283J0D01*
G01*
X13582Y158624D02*
G03*
X12284Y160474I-1969J0D01*
G01*
X17243D02*
G03*
X15944Y158624I670J-1851D01*
G01*
X12284Y154486D02*
G03*
X7480Y147638I2479J-6848D01*
G01*
X9448Y174606D02*
G03*
X7480Y172638I0J-1969D01*
G01*
X22047D02*
G03*
X20078Y174606I-1969J0D01*
G01*
X17243Y160474D02*
G03*
X22047Y167323I-2479J6848D01*
G01*
X19094Y137402D02*
G03*
X24999Y143798I-4331J9923D01*
G01*
X4527D02*
G03*
X10432Y137402I10236J3527D01*
G01*
X6889Y177559D02*
G03*
X4527Y175197I0J-2362D01*
G01*
X24999D02*
G03*
X22637Y177559I-2362J0D01*
G01*
X17913Y140354D02*
X22047Y144488D01*
X11613Y140354D02*
X17913D01*
X7480Y144488D02*
X11613Y140354D01*
X13582Y156337D02*
Y158624D01*
X15944Y156337D02*
Y158624D01*
X7480Y144488D02*
Y147638D01*
X22047Y144488D02*
Y147638D01*
X7480Y167323D02*
Y172638D01*
X22047Y167323D02*
Y172638D01*
X9448Y174606D02*
X20078D01*
X3739Y147047D02*
Y171260D01*
Y147047D02*
X4527Y145473D01*
X3739Y171260D02*
X4527Y172835D01*
X25787Y147047D02*
Y171260D01*
X24999Y145473D02*
X25787Y147047D01*
X24999Y172835D02*
X25787Y171260D01*
X4527Y143798D02*
Y175197D01*
X24999Y143798D02*
Y175197D01*
X10432Y137402D02*
X19094D01*
X6889Y177559D02*
X22637D01*
D19*
X116386Y282384D02*
X116686Y282684D01*
X117136Y282834D01*
X117735D01*
X118185Y282684D01*
X118485Y282384D01*
Y282084D01*
X118335Y281784D01*
X118185Y281634D01*
X117885Y281484D01*
X116985Y281185D01*
X116686Y281035D01*
X116536Y280885D01*
X116386Y280585D01*
Y280135D01*
X116686Y279835D01*
X117136Y279685D01*
X117735D01*
X118185Y279835D01*
X118485Y280135D01*
X113432Y282084D02*
X113582Y282384D01*
X113882Y282684D01*
X114181Y282834D01*
X114781D01*
X115081Y282684D01*
X115381Y282384D01*
X115531Y282084D01*
X115681Y281634D01*
Y280885D01*
X115531Y280435D01*
X115381Y280135D01*
X115081Y279835D01*
X114781Y279685D01*
X114181D01*
X113882Y279835D01*
X113582Y280135D01*
X113432Y280435D01*
X112547Y282234D02*
X112247Y282384D01*
X111797Y282834D01*
Y279685D01*
X195086Y282384D02*
X195386Y282684D01*
X195835Y282834D01*
X196435D01*
X196885Y282684D01*
X197185Y282384D01*
Y282084D01*
X197035Y281784D01*
X196885Y281634D01*
X196585Y281484D01*
X195686Y281185D01*
X195386Y281035D01*
X195236Y280885D01*
X195086Y280585D01*
Y280135D01*
X195386Y279835D01*
X195835Y279685D01*
X196435D01*
X196885Y279835D01*
X197185Y280135D01*
X192132Y282084D02*
X192282Y282384D01*
X192582Y282684D01*
X192882Y282834D01*
X193481D01*
X193781Y282684D01*
X194081Y282384D01*
X194231Y282084D01*
X194381Y281634D01*
Y280885D01*
X194231Y280435D01*
X194081Y280135D01*
X193781Y279835D01*
X193481Y279685D01*
X192882D01*
X192582Y279835D01*
X192282Y280135D01*
X192132Y280435D01*
X191097Y282084D02*
Y282234D01*
X190947Y282534D01*
X190797Y282684D01*
X190497Y282834D01*
X189898D01*
X189598Y282684D01*
X189448Y282534D01*
X189298Y282234D01*
Y281934D01*
X189448Y281634D01*
X189748Y281185D01*
X191247Y279685D01*
X189148D01*
X273886Y282384D02*
X274186Y282684D01*
X274636Y282834D01*
X275235D01*
X275685Y282684D01*
X275985Y282384D01*
Y282084D01*
X275835Y281784D01*
X275685Y281634D01*
X275385Y281484D01*
X274486Y281185D01*
X274186Y281035D01*
X274036Y280885D01*
X273886Y280585D01*
Y280135D01*
X274186Y279835D01*
X274636Y279685D01*
X275235D01*
X275685Y279835D01*
X275985Y280135D01*
X270932Y282084D02*
X271082Y282384D01*
X271382Y282684D01*
X271681Y282834D01*
X272281D01*
X272581Y282684D01*
X272881Y282384D01*
X273031Y282084D01*
X273181Y281634D01*
Y280885D01*
X273031Y280435D01*
X272881Y280135D01*
X272581Y279835D01*
X272281Y279685D01*
X271681D01*
X271382Y279835D01*
X271082Y280135D01*
X270932Y280435D01*
X269747Y282834D02*
X268098D01*
X268997Y281634D01*
X268548D01*
X268248Y281484D01*
X268098Y281334D01*
X267948Y280885D01*
Y280585D01*
X268098Y280135D01*
X268398Y279835D01*
X268847Y279685D01*
X269297D01*
X269747Y279835D01*
X269897Y279985D01*
X270047Y280285D01*
X271586Y199584D02*
X271886Y199884D01*
X272336Y200034D01*
X272935D01*
X273385Y199884D01*
X273685Y199584D01*
Y199284D01*
X273535Y198984D01*
X273385Y198834D01*
X273085Y198684D01*
X272186Y198384D01*
X271886Y198235D01*
X271736Y198085D01*
X271586Y197785D01*
Y197335D01*
X271886Y197035D01*
X272336Y196885D01*
X272935D01*
X273385Y197035D01*
X273685Y197335D01*
X268632Y199284D02*
X268782Y199584D01*
X269082Y199884D01*
X269381Y200034D01*
X269981D01*
X270281Y199884D01*
X270581Y199584D01*
X270731Y199284D01*
X270881Y198834D01*
Y198085D01*
X270731Y197635D01*
X270581Y197335D01*
X270281Y197035D01*
X269981Y196885D01*
X269381D01*
X269082Y197035D01*
X268782Y197335D01*
X268632Y197635D01*
X265948Y199584D02*
X266098Y199884D01*
X266547Y200034D01*
X266847D01*
X267297Y199884D01*
X267597Y199434D01*
X267747Y198684D01*
Y197935D01*
X267597Y197335D01*
X267297Y197035D01*
X266847Y196885D01*
X266697D01*
X266248Y197035D01*
X265948Y197335D01*
X265798Y197785D01*
Y197935D01*
X265948Y198384D01*
X266248Y198684D01*
X266697Y198834D01*
X266847D01*
X267297Y198684D01*
X267597Y198384D01*
X267747Y197935D01*
X192886Y199584D02*
X193186Y199884D01*
X193635Y200034D01*
X194235D01*
X194685Y199884D01*
X194985Y199584D01*
Y199284D01*
X194835Y198984D01*
X194685Y198834D01*
X194385Y198684D01*
X193485Y198384D01*
X193186Y198235D01*
X193036Y198085D01*
X192886Y197785D01*
Y197335D01*
X193186Y197035D01*
X193635Y196885D01*
X194235D01*
X194685Y197035D01*
X194985Y197335D01*
X189932Y199284D02*
X190082Y199584D01*
X190382Y199884D01*
X190682Y200034D01*
X191281D01*
X191581Y199884D01*
X191881Y199584D01*
X192031Y199284D01*
X192181Y198834D01*
Y198085D01*
X192031Y197635D01*
X191881Y197335D01*
X191581Y197035D01*
X191281Y196885D01*
X190682D01*
X190382Y197035D01*
X190082Y197335D01*
X189932Y197635D01*
X187248Y200034D02*
X188747D01*
X188897Y198684D01*
X188747Y198834D01*
X188297Y198984D01*
X187847D01*
X187398Y198834D01*
X187098Y198535D01*
X186948Y198085D01*
Y197785D01*
X187098Y197335D01*
X187398Y197035D01*
X187847Y196885D01*
X188297D01*
X188747Y197035D01*
X188897Y197185D01*
X189047Y197485D01*
X114086Y199584D02*
X114386Y199884D01*
X114836Y200034D01*
X115435D01*
X115885Y199884D01*
X116185Y199584D01*
Y199284D01*
X116035Y198984D01*
X115885Y198834D01*
X115585Y198684D01*
X114685Y198384D01*
X114386Y198235D01*
X114236Y198085D01*
X114086Y197785D01*
Y197335D01*
X114386Y197035D01*
X114836Y196885D01*
X115435D01*
X115885Y197035D01*
X116185Y197335D01*
X111132Y199284D02*
X111282Y199584D01*
X111582Y199884D01*
X111881Y200034D01*
X112481D01*
X112781Y199884D01*
X113081Y199584D01*
X113231Y199284D01*
X113381Y198834D01*
Y198085D01*
X113231Y197635D01*
X113081Y197335D01*
X112781Y197035D01*
X112481Y196885D01*
X111881D01*
X111582Y197035D01*
X111282Y197335D01*
X111132Y197635D01*
X108748Y200034D02*
X110247Y197935D01*
X107998D01*
X108748Y200034D02*
Y196885D01*
X116386Y116984D02*
X116686Y117284D01*
X117136Y117434D01*
X117735D01*
X118185Y117284D01*
X118485Y116984D01*
Y116684D01*
X118335Y116384D01*
X118185Y116234D01*
X117885Y116084D01*
X116985Y115785D01*
X116686Y115635D01*
X116536Y115485D01*
X116386Y115185D01*
Y114735D01*
X116686Y114435D01*
X117136Y114285D01*
X117735D01*
X118185Y114435D01*
X118485Y114735D01*
X113432Y116684D02*
X113582Y116984D01*
X113882Y117284D01*
X114181Y117434D01*
X114781D01*
X115081Y117284D01*
X115381Y116984D01*
X115531Y116684D01*
X115681Y116234D01*
Y115485D01*
X115531Y115035D01*
X115381Y114735D01*
X115081Y114435D01*
X114781Y114285D01*
X114181D01*
X113882Y114435D01*
X113582Y114735D01*
X113432Y115035D01*
X110448Y117434D02*
X111947Y114285D01*
X112547Y117434D02*
X110448D01*
X195086Y116984D02*
X195386Y117284D01*
X195835Y117434D01*
X196435D01*
X196885Y117284D01*
X197185Y116984D01*
Y116684D01*
X197035Y116384D01*
X196885Y116234D01*
X196585Y116084D01*
X195686Y115785D01*
X195386Y115635D01*
X195236Y115485D01*
X195086Y115185D01*
Y114735D01*
X195386Y114435D01*
X195835Y114285D01*
X196435D01*
X196885Y114435D01*
X197185Y114735D01*
X192132Y116684D02*
X192282Y116984D01*
X192582Y117284D01*
X192882Y117434D01*
X193481D01*
X193781Y117284D01*
X194081Y116984D01*
X194231Y116684D01*
X194381Y116234D01*
Y115485D01*
X194231Y115035D01*
X194081Y114735D01*
X193781Y114435D01*
X193481Y114285D01*
X192882D01*
X192582Y114435D01*
X192282Y114735D01*
X192132Y115035D01*
X190497Y117434D02*
X190947Y117284D01*
X191097Y116984D01*
Y116684D01*
X190947Y116384D01*
X190647Y116234D01*
X190048Y116084D01*
X189598Y115935D01*
X189298Y115635D01*
X189148Y115335D01*
Y114885D01*
X189298Y114585D01*
X189448Y114435D01*
X189898Y114285D01*
X190497D01*
X190947Y114435D01*
X191097Y114585D01*
X191247Y114885D01*
Y115335D01*
X191097Y115635D01*
X190797Y115935D01*
X190347Y116084D01*
X189748Y116234D01*
X189448Y116384D01*
X189298Y116684D01*
Y116984D01*
X189448Y117284D01*
X189898Y117434D01*
X190497D01*
X273886Y116984D02*
X274186Y117284D01*
X274636Y117434D01*
X275235D01*
X275685Y117284D01*
X275985Y116984D01*
Y116684D01*
X275835Y116384D01*
X275685Y116234D01*
X275385Y116084D01*
X274486Y115785D01*
X274186Y115635D01*
X274036Y115485D01*
X273886Y115185D01*
Y114735D01*
X274186Y114435D01*
X274636Y114285D01*
X275235D01*
X275685Y114435D01*
X275985Y114735D01*
X270932Y116684D02*
X271082Y116984D01*
X271382Y117284D01*
X271681Y117434D01*
X272281D01*
X272581Y117284D01*
X272881Y116984D01*
X273031Y116684D01*
X273181Y116234D01*
Y115485D01*
X273031Y115035D01*
X272881Y114735D01*
X272581Y114435D01*
X272281Y114285D01*
X271681D01*
X271382Y114435D01*
X271082Y114735D01*
X270932Y115035D01*
X268098Y116384D02*
X268248Y115935D01*
X268548Y115635D01*
X268997Y115485D01*
X269147D01*
X269597Y115635D01*
X269897Y115935D01*
X270047Y116384D01*
Y116534D01*
X269897Y116984D01*
X269597Y117284D01*
X269147Y117434D01*
X268997D01*
X268548Y117284D01*
X268248Y116984D01*
X268098Y116384D01*
Y115635D01*
X268248Y114885D01*
X268548Y114435D01*
X268997Y114285D01*
X269297D01*
X269747Y114435D01*
X269897Y114735D01*
X7237Y182085D02*
X5887D01*
X5438Y182235D01*
X5288Y182384D01*
X5138Y182684D01*
Y183134D01*
X5288Y183434D01*
X5438Y183584D01*
X5887Y183734D01*
X7237D01*
Y180585D01*
X4433Y183134D02*
X4133Y183284D01*
X3683Y183734D01*
Y180585D01*
D132*
X192724Y74853D02*
G03*
X192724Y74853I-36220J0D01*
G01*
X271464D02*
G03*
X271464Y74853I-36220J0D01*
G01*
X113984D02*
G03*
X113984Y74853I-36220J0D01*
G01*
X194677Y157430D02*
G03*
X194677Y157430I-36220J0D01*
G01*
X273418D02*
G03*
X273418Y157430I-36220J0D01*
G01*
X115937D02*
G03*
X115937Y157430I-36220J0D01*
G01*
X271464Y240208D02*
G03*
X271464Y240208I-36220J0D01*
G01*
X192724D02*
G03*
X192724Y240208I-36220J0D01*
G01*
X113984D02*
G03*
X113984Y240208I-36220J0D01*
G01*
X179134Y73150D02*
X189480Y62803D01*
X157480Y94803D02*
X169606Y82677D01*
X176370Y67913D02*
X187480Y56803D01*
X157480Y86803D02*
X165354Y78929D01*
X157480Y38803D02*
Y110803D01*
Y46803D02*
X164480Y39803D01*
X157480Y54803D02*
X170480Y41803D01*
X157480Y62803D02*
X175480Y44803D01*
X157480Y70803D02*
X179980Y48303D01*
X157480Y78803D02*
X183980Y52303D01*
X157480Y102803D02*
X191480Y68803D01*
X157480Y110803D02*
X191480Y76803D01*
X166980Y109303D02*
X191480Y84803D01*
X257874Y73150D02*
X268220Y62803D01*
X236221Y94803D02*
X248346Y82677D01*
X255110Y67913D02*
X266220Y56803D01*
X236221Y86803D02*
X244094Y78929D01*
X236221Y38803D02*
Y110803D01*
Y46803D02*
X243220Y39803D01*
X236221Y54803D02*
X249220Y41803D01*
X236221Y62803D02*
X254221Y44803D01*
X236221Y70803D02*
X258720Y48303D01*
X236221Y78803D02*
X262720Y52303D01*
X236221Y102803D02*
X270220Y68803D01*
X236221Y110803D02*
X270220Y76803D01*
X245721Y109303D02*
X270220Y84803D01*
X88240Y109303D02*
X112740Y84803D01*
X78740Y110803D02*
X112740Y76803D01*
X78740Y102803D02*
X112740Y68803D01*
X78740Y78803D02*
X105240Y52303D01*
X78740Y70803D02*
X101240Y48303D01*
X78740Y62803D02*
X96740Y44803D01*
X78740Y54803D02*
X91740Y41803D01*
X78740Y46803D02*
X85740Y39803D01*
X78740Y38803D02*
Y110803D01*
X78740Y86803D02*
X86614Y78929D01*
X97630Y67913D02*
X108740Y56803D01*
X78740Y94803D02*
X90866Y82677D01*
X100394Y73150D02*
X110740Y62803D01*
X123480Y147480D02*
X147980Y122980D01*
X123480Y155480D02*
X157480Y121480D01*
X123480Y163480D02*
X157480Y129480D01*
X130980Y179980D02*
X157480Y153480D01*
X134980Y183980D02*
X157480Y161480D01*
X139480Y187480D02*
X157480Y169480D01*
X144480Y190480D02*
X157480Y177480D01*
X150480Y192480D02*
X157480Y185480D01*
Y121480D02*
Y193480D01*
X149606Y153354D02*
X157480Y145480D01*
X127480Y175480D02*
X138591Y164370D01*
X145354Y149606D02*
X157480Y137480D01*
X125480Y169480D02*
X135827Y159134D01*
X202221Y147480D02*
X226720Y122980D01*
X202221Y155480D02*
X236221Y121480D01*
X202221Y163480D02*
X236221Y129480D01*
X209720Y179980D02*
X236221Y153480D01*
X213720Y183980D02*
X236221Y161480D01*
X218220Y187480D02*
X236221Y169480D01*
X223220Y190480D02*
X236221Y177480D01*
X229221Y192480D02*
X236221Y185480D01*
Y121480D02*
Y193480D01*
X228346Y153354D02*
X236221Y145480D01*
X206221Y175480D02*
X217331Y164370D01*
X224095Y149606D02*
X236221Y137480D01*
X204221Y169480D02*
X214567Y159134D01*
X44740Y147480D02*
X69240Y122980D01*
X44740Y155480D02*
X78740Y121480D01*
X44740Y163480D02*
X78740Y129480D01*
X52240Y179980D02*
X78740Y153480D01*
X56240Y183980D02*
X78740Y161480D01*
X60740Y187480D02*
X78740Y169480D01*
X65740Y190480D02*
X78740Y177480D01*
X71740Y192480D02*
X78740Y185480D01*
Y121480D02*
Y193480D01*
X70866Y153354D02*
X78740Y145480D01*
X48740Y175480D02*
X59850Y164370D01*
X66614Y149606D02*
X78740Y137480D01*
X46740Y169480D02*
X57087Y159134D01*
X245721Y274658D02*
X270220Y250157D01*
X236221Y276157D02*
X270220Y242158D01*
X236221Y268158D02*
X270220Y234157D01*
X236221Y244158D02*
X262720Y217657D01*
X236221Y236157D02*
X258720Y213657D01*
X236221Y228157D02*
X254221Y210157D01*
X236221Y220158D02*
X249220Y207157D01*
X236221Y212158D02*
X243220Y205157D01*
X236221Y204157D02*
Y276157D01*
X236221Y252157D02*
X244094Y244284D01*
X255110Y233268D02*
X266220Y222158D01*
X236221Y260157D02*
X248346Y248031D01*
X257874Y238504D02*
X268220Y228157D01*
X166980Y274658D02*
X191480Y250157D01*
X157480Y276157D02*
X191480Y242158D01*
X157480Y268158D02*
X191480Y234157D01*
X157480Y244158D02*
X183980Y217657D01*
X157480Y236157D02*
X179980Y213657D01*
X157480Y228157D02*
X175480Y210157D01*
X157480Y220158D02*
X170480Y207157D01*
X157480Y212158D02*
X164480Y205157D01*
X157480Y204157D02*
Y276157D01*
X157480Y252157D02*
X165354Y244284D01*
X176370Y233268D02*
X187480Y222158D01*
X157480Y260157D02*
X169606Y248031D01*
X179134Y238504D02*
X189480Y228157D01*
X88240Y274658D02*
X112740Y250157D01*
X78740Y276157D02*
X112740Y242158D01*
X78740Y268158D02*
X112740Y234157D01*
X78740Y244158D02*
X105240Y217657D01*
X78740Y236157D02*
X101240Y213657D01*
X78740Y228157D02*
X96740Y210157D01*
X78740Y220158D02*
X91740Y207157D01*
X78740Y212158D02*
X85740Y205157D01*
X78740Y204157D02*
Y276157D01*
X78740Y252157D02*
X86614Y244284D01*
X97630Y233268D02*
X108740Y222158D01*
X78740Y260157D02*
X90866Y248031D01*
X100394Y238504D02*
X110740Y228157D01*
D133*
X180942Y45450D02*
G03*
X180942Y104157I-24462J29353D01*
G01*
X259682Y45450D02*
G03*
X259682Y104157I-24462J29353D01*
G01*
X102202Y45450D02*
G03*
X102202Y104157I-24462J29353D01*
G01*
X134019Y186834D02*
G03*
X134019Y128127I24462J-29353D01*
G01*
X212759Y186834D02*
G03*
X212759Y128127I24462J-29353D01*
G01*
X55278Y186834D02*
G03*
X55278Y128127I24462J-29353D01*
G01*
X259682Y210804D02*
G03*
X259682Y269511I-24462J29353D01*
G01*
X180942Y210804D02*
G03*
X180942Y269511I-24462J29353D01*
G01*
X102202Y210804D02*
G03*
X102202Y269511I-24462J29353D01*
G01*
M02*
