G04*
G04 #@! TF.GenerationSoftware,Altium Limited,Altium Designer,23.3.1 (30)*
G04*
G04 Layer_Color=8421504*
%FSLAX25Y25*%
%MOIN*%
G70*
G04*
G04 #@! TF.SameCoordinates,CC060F13-8039-4013-9EB4-17962B1888DE*
G04*
G04*
G04 #@! TF.FilePolarity,Positive*
G04*
G01*
G75*
%ADD20R,0.04724X0.05512*%
%ADD21R,0.04724X0.05512*%
%ADD22R,0.05000X0.05000*%
%ADD23R,0.09843X0.04331*%
%ADD24R,0.01181X0.02559*%
%ADD25R,0.10236X0.06496*%
%ADD26R,0.04000X0.03000*%
%ADD27R,0.04000X0.03150*%
%ADD28R,0.03937X0.03937*%
%ADD29R,0.03150X0.04000*%
%ADD30R,0.03000X0.04000*%
%ADD31R,0.01575X0.03150*%
%ADD32R,0.04724X0.07087*%
%ADD33R,0.11811X0.05118*%
%ADD34R,0.02362X0.04331*%
%ADD35O,0.06693X0.01378*%
D20*
X141339Y288583D02*
D03*
D21*
X154724D02*
D03*
D22*
X143532Y298425D02*
D03*
X152532D02*
D03*
X143532Y307087D02*
D03*
X152532D02*
D03*
X80146Y298425D02*
D03*
X89146D02*
D03*
X80146Y307087D02*
D03*
X89146D02*
D03*
X56862Y277559D02*
D03*
X47862D02*
D03*
D23*
X105905Y299803D02*
D03*
Y293110D02*
D03*
X128740Y299803D02*
D03*
Y293110D02*
D03*
D24*
X262993Y41339D02*
D03*
X264961D02*
D03*
X262992Y30315D02*
D03*
X270867Y41339D02*
D03*
X268898D02*
D03*
X266929D02*
D03*
X264961Y30315D02*
D03*
X266929D02*
D03*
X268898D02*
D03*
X270867D02*
D03*
X105514Y124016D02*
D03*
X107482D02*
D03*
X105513Y112992D02*
D03*
X113388Y124016D02*
D03*
X111419D02*
D03*
X109450D02*
D03*
X107482Y112992D02*
D03*
X109450D02*
D03*
X111419D02*
D03*
X113388D02*
D03*
X192127Y30315D02*
D03*
X190157D02*
D03*
X188189D02*
D03*
X186221D02*
D03*
X188189Y41339D02*
D03*
X190157D02*
D03*
X192127D02*
D03*
X184251Y30315D02*
D03*
X186221Y41339D02*
D03*
X184253D02*
D03*
X270867Y195669D02*
D03*
X268898D02*
D03*
X266929D02*
D03*
X264961D02*
D03*
X266929Y206693D02*
D03*
X268898D02*
D03*
X270867D02*
D03*
X262992Y195669D02*
D03*
X264961Y206693D02*
D03*
X262993D02*
D03*
X192127Y195669D02*
D03*
X190157D02*
D03*
X188189D02*
D03*
X186221D02*
D03*
X188189Y206693D02*
D03*
X190157D02*
D03*
X192127D02*
D03*
X184251Y195669D02*
D03*
X186221Y206693D02*
D03*
X184253D02*
D03*
X113388Y195669D02*
D03*
X111419D02*
D03*
X109450D02*
D03*
X107482D02*
D03*
X109450Y206693D02*
D03*
X111419D02*
D03*
X113388D02*
D03*
X105513Y195669D02*
D03*
X107482Y206693D02*
D03*
X105514D02*
D03*
X270867Y112992D02*
D03*
X268898D02*
D03*
X266929D02*
D03*
X264961D02*
D03*
X266929Y124016D02*
D03*
X268898D02*
D03*
X270867D02*
D03*
X262992Y112992D02*
D03*
X264961Y124016D02*
D03*
X262993D02*
D03*
X192127Y112992D02*
D03*
X190157D02*
D03*
X188189D02*
D03*
X186221D02*
D03*
X188189Y124016D02*
D03*
X190157D02*
D03*
X192127D02*
D03*
X184251Y112992D02*
D03*
X186221Y124016D02*
D03*
X184253D02*
D03*
X113388Y30315D02*
D03*
X111419D02*
D03*
X109450D02*
D03*
X107482D02*
D03*
X109450Y41339D02*
D03*
X111419D02*
D03*
X113388D02*
D03*
X105513Y30315D02*
D03*
X107482Y41339D02*
D03*
X105514D02*
D03*
D25*
X266928Y35827D02*
D03*
X109449Y118504D02*
D03*
X188188Y35827D02*
D03*
X266928Y201181D02*
D03*
X188188D02*
D03*
X109449D02*
D03*
X266928Y118504D02*
D03*
X188188D02*
D03*
X109449Y35827D02*
D03*
D26*
X272334Y306693D02*
D03*
X279634D02*
D03*
X75090Y46457D02*
D03*
X82390D02*
D03*
X75090Y129134D02*
D03*
X82390D02*
D03*
X153830D02*
D03*
X161130D02*
D03*
X191839Y48425D02*
D03*
X184539D02*
D03*
X232571Y240158D02*
D03*
X239871D02*
D03*
X153830D02*
D03*
X161130D02*
D03*
X75090D02*
D03*
X82390D02*
D03*
X232571Y157480D02*
D03*
X239871D02*
D03*
X153830D02*
D03*
X161130D02*
D03*
X75090D02*
D03*
X82390D02*
D03*
X75090Y74803D02*
D03*
X82390D02*
D03*
X153830D02*
D03*
X161130D02*
D03*
X232571D02*
D03*
X239871D02*
D03*
X161130Y46457D02*
D03*
X153830D02*
D03*
X263279Y48425D02*
D03*
X270579D02*
D03*
Y213779D02*
D03*
X263279D02*
D03*
X191839D02*
D03*
X184539D02*
D03*
X270579Y131102D02*
D03*
X263279D02*
D03*
X113099Y213779D02*
D03*
X105799D02*
D03*
X191839Y131102D02*
D03*
X184539D02*
D03*
X113099D02*
D03*
X105799D02*
D03*
X113100Y48425D02*
D03*
X105800D02*
D03*
X56012Y284646D02*
D03*
X48712D02*
D03*
X82390Y211811D02*
D03*
X75090D02*
D03*
X161130D02*
D03*
X153830D02*
D03*
X239871D02*
D03*
X232571D02*
D03*
X239871Y129134D02*
D03*
X232571D02*
D03*
D27*
X262311Y306693D02*
D03*
X255011D02*
D03*
X38476Y291732D02*
D03*
X45776D02*
D03*
X60737Y307874D02*
D03*
X53437D02*
D03*
X184539Y22047D02*
D03*
X191839D02*
D03*
Y55118D02*
D03*
X184539D02*
D03*
X113099Y22047D02*
D03*
X105799D02*
D03*
X234752Y39370D02*
D03*
X227452D02*
D03*
X270579Y22047D02*
D03*
X263279D02*
D03*
Y187402D02*
D03*
X270579D02*
D03*
X263279Y220472D02*
D03*
X270579D02*
D03*
X184539Y187402D02*
D03*
X191839D02*
D03*
X184539Y220472D02*
D03*
X191839D02*
D03*
X263279Y137795D02*
D03*
X270579D02*
D03*
X263279Y104724D02*
D03*
X270579D02*
D03*
X105799Y187402D02*
D03*
X113099D02*
D03*
X105799Y220472D02*
D03*
X113099D02*
D03*
X184539Y137795D02*
D03*
X191839D02*
D03*
X184539Y104724D02*
D03*
X191839D02*
D03*
X105799D02*
D03*
X113099D02*
D03*
X105799Y137795D02*
D03*
X113099D02*
D03*
X105800Y55118D02*
D03*
X113100D02*
D03*
D28*
X281102Y267323D02*
D03*
X271654D02*
D03*
D29*
X38189Y307587D02*
D03*
Y300287D02*
D03*
X45669D02*
D03*
Y307587D02*
D03*
X189764Y282964D02*
D03*
Y290264D02*
D03*
X183071Y282964D02*
D03*
Y290264D02*
D03*
D30*
X240551Y55799D02*
D03*
Y63099D02*
D03*
X276772Y122154D02*
D03*
Y114854D02*
D03*
X283071Y122154D02*
D03*
Y114854D02*
D03*
X276772Y32177D02*
D03*
Y39477D02*
D03*
X283071Y32177D02*
D03*
Y39477D02*
D03*
X198031Y32177D02*
D03*
Y39477D02*
D03*
X204331Y32177D02*
D03*
Y39477D02*
D03*
X283071Y197531D02*
D03*
Y204831D02*
D03*
X276772Y197531D02*
D03*
Y204831D02*
D03*
X204331Y197531D02*
D03*
Y204831D02*
D03*
X198031Y197531D02*
D03*
Y204831D02*
D03*
X125591Y197531D02*
D03*
Y204831D02*
D03*
X119291Y197531D02*
D03*
Y204831D02*
D03*
X204331Y114854D02*
D03*
Y122154D02*
D03*
X198031Y114854D02*
D03*
Y122154D02*
D03*
X125591Y114854D02*
D03*
Y122154D02*
D03*
X119291Y114854D02*
D03*
Y122154D02*
D03*
X119293Y32177D02*
D03*
Y39477D02*
D03*
X125592Y32177D02*
D03*
Y39477D02*
D03*
X196457Y282964D02*
D03*
Y290264D02*
D03*
X203150Y282964D02*
D03*
Y290264D02*
D03*
X68504Y292413D02*
D03*
Y299713D02*
D03*
D31*
X232579Y66023D02*
D03*
X230020Y54449D02*
D03*
Y66023D02*
D03*
X224902D02*
D03*
Y54449D02*
D03*
X227461D02*
D03*
Y66023D02*
D03*
X232579Y54449D02*
D03*
X153839Y66023D02*
D03*
X151279Y54449D02*
D03*
Y66023D02*
D03*
X146161D02*
D03*
Y54449D02*
D03*
X148721D02*
D03*
Y66023D02*
D03*
X153839Y54449D02*
D03*
X168799D02*
D03*
X163681Y66023D02*
D03*
Y54449D02*
D03*
X161122D02*
D03*
Y66023D02*
D03*
X166240D02*
D03*
Y54449D02*
D03*
X168799Y66023D02*
D03*
X75098D02*
D03*
X72539Y54449D02*
D03*
Y66023D02*
D03*
X67421D02*
D03*
Y54449D02*
D03*
X69980D02*
D03*
Y66023D02*
D03*
X75098Y54449D02*
D03*
X90059D02*
D03*
X84941Y66023D02*
D03*
Y54449D02*
D03*
X82382D02*
D03*
Y66023D02*
D03*
X87500D02*
D03*
Y54449D02*
D03*
X90059Y66023D02*
D03*
Y148700D02*
D03*
X87500Y137126D02*
D03*
Y148700D02*
D03*
X82382D02*
D03*
Y137126D02*
D03*
X84941D02*
D03*
Y148700D02*
D03*
X90059Y137126D02*
D03*
X75098D02*
D03*
X69980Y148700D02*
D03*
Y137126D02*
D03*
X67421D02*
D03*
Y148700D02*
D03*
X72539D02*
D03*
Y137126D02*
D03*
X75098Y148700D02*
D03*
X168799D02*
D03*
X166240Y137126D02*
D03*
Y148700D02*
D03*
X161122D02*
D03*
Y137126D02*
D03*
X163681D02*
D03*
Y148700D02*
D03*
X168799Y137126D02*
D03*
X153839D02*
D03*
X148721Y148700D02*
D03*
Y137126D02*
D03*
X146161D02*
D03*
Y148700D02*
D03*
X151279D02*
D03*
Y137126D02*
D03*
X153839Y148700D02*
D03*
X247539D02*
D03*
X244980Y137126D02*
D03*
Y148700D02*
D03*
X239862D02*
D03*
Y137126D02*
D03*
X242421D02*
D03*
Y148700D02*
D03*
X247539Y137126D02*
D03*
X232579D02*
D03*
X227461Y148700D02*
D03*
Y137126D02*
D03*
X224902D02*
D03*
Y148700D02*
D03*
X230020D02*
D03*
Y137126D02*
D03*
X232579Y148700D02*
D03*
Y231378D02*
D03*
X230020Y219804D02*
D03*
Y231378D02*
D03*
X224902D02*
D03*
Y219804D02*
D03*
X227461D02*
D03*
Y231378D02*
D03*
X232579Y219804D02*
D03*
X247539D02*
D03*
X242421Y231378D02*
D03*
Y219804D02*
D03*
X239862D02*
D03*
Y231378D02*
D03*
X244980D02*
D03*
Y219804D02*
D03*
X247539Y231378D02*
D03*
X153839D02*
D03*
X151279Y219804D02*
D03*
Y231378D02*
D03*
X146161D02*
D03*
Y219804D02*
D03*
X148721D02*
D03*
Y231378D02*
D03*
X153839Y219804D02*
D03*
X168799D02*
D03*
X163681Y231378D02*
D03*
Y219804D02*
D03*
X161122D02*
D03*
Y231378D02*
D03*
X166240D02*
D03*
Y219804D02*
D03*
X168799Y231378D02*
D03*
X75098D02*
D03*
X72539Y219804D02*
D03*
Y231378D02*
D03*
X67421D02*
D03*
Y219804D02*
D03*
X69980D02*
D03*
Y231378D02*
D03*
X75098Y219804D02*
D03*
X90059D02*
D03*
X84941Y231378D02*
D03*
Y219804D02*
D03*
X82382D02*
D03*
Y231378D02*
D03*
X87500D02*
D03*
Y219804D02*
D03*
X90059Y231378D02*
D03*
D32*
X231594Y61417D02*
D03*
X225886D02*
D03*
X152854D02*
D03*
X147146D02*
D03*
X162106D02*
D03*
X167815D02*
D03*
X74114D02*
D03*
X68405D02*
D03*
X83366D02*
D03*
X89075D02*
D03*
Y144095D02*
D03*
X83366D02*
D03*
X68405D02*
D03*
X74114D02*
D03*
X167815D02*
D03*
X162106D02*
D03*
X147146D02*
D03*
X152854D02*
D03*
X246555D02*
D03*
X240846D02*
D03*
X225886D02*
D03*
X231594D02*
D03*
Y226772D02*
D03*
X225886D02*
D03*
X240846D02*
D03*
X246555D02*
D03*
X152854D02*
D03*
X147146D02*
D03*
X162106D02*
D03*
X167815D02*
D03*
X74114D02*
D03*
X68405D02*
D03*
X83366D02*
D03*
X89075D02*
D03*
D33*
X220472Y99213D02*
D03*
X251969D02*
D03*
X173228Y99213D02*
D03*
X141732D02*
D03*
X251969Y264567D02*
D03*
X220472D02*
D03*
X173228D02*
D03*
X141732D02*
D03*
X94488D02*
D03*
X62992D02*
D03*
X220472Y181890D02*
D03*
X251969D02*
D03*
X141732D02*
D03*
X173228D02*
D03*
X62992D02*
D03*
X94488D02*
D03*
Y99213D02*
D03*
X62992D02*
D03*
D34*
X60827Y300787D02*
D03*
X57087D02*
D03*
X53346D02*
D03*
Y291339D02*
D03*
X57087D02*
D03*
X60827D02*
D03*
D35*
X212795Y307579D02*
D03*
X212795Y305020D02*
D03*
X212795Y302461D02*
D03*
X212795Y299902D02*
D03*
Y297342D02*
D03*
Y294783D02*
D03*
Y292224D02*
D03*
X212795Y289665D02*
D03*
X212795Y287106D02*
D03*
X212795Y284547D02*
D03*
X235236Y307579D02*
D03*
X235236Y305020D02*
D03*
X235236Y302461D02*
D03*
X235236Y299902D02*
D03*
Y297342D02*
D03*
Y294783D02*
D03*
Y292224D02*
D03*
X235236Y289665D02*
D03*
X235236Y287106D02*
D03*
X235236Y284547D02*
D03*
M02*
