G04*
G04 #@! TF.GenerationSoftware,Altium Limited,Altium Designer,23.3.1 (30)*
G04*
G04 Layer_Physical_Order=3*
G04 Layer_Color=128*
%FSLAX25Y25*%
%MOIN*%
G70*
G04*
G04 #@! TF.SameCoordinates,CC060F13-8039-4013-9EB4-17962B1888DE*
G04*
G04*
G04 #@! TF.FilePolarity,Negative*
G04*
G01*
G75*
%ADD14C,0.01000*%
%ADD116C,0.04000*%
%ADD117C,0.09055*%
%ADD118C,0.05512*%
%ADD119C,0.07480*%
%ADD120C,0.13780*%
%ADD121C,0.03150*%
%ADD122C,0.03543*%
D14*
X0Y293701D02*
X98425D01*
Y296063D01*
X122835D01*
X148425D01*
X122835Y279528D02*
Y296063D01*
X101969Y279528D02*
X122835D01*
X101969Y272441D02*
Y279528D01*
X164961Y272441D02*
Y309842D01*
X148425D02*
X164961D01*
X134252Y94095D02*
Y272441D01*
Y30315D02*
Y94095D01*
Y30315D02*
X180709D01*
Y39764D01*
Y223228D01*
X212992D01*
Y190945D02*
Y223228D01*
Y107087D02*
Y190945D01*
Y90551D02*
Y107087D01*
Y42913D02*
Y90551D01*
Y42913D02*
X259449D01*
Y222835D01*
X289764D01*
X289764Y18504D01*
X101969D02*
X289764D01*
X101969D02*
Y272441D01*
X82284D02*
X101969D01*
X259449Y255906D02*
X314961D01*
X259449D02*
Y272441D01*
X134252D02*
X259449D01*
X148425Y296063D02*
Y309842D01*
X0Y246850D02*
Y250394D01*
X55512D02*
Y272441D01*
X82284D01*
X0Y64173D02*
X71260D01*
Y90158D01*
X55512D02*
X71260D01*
X55512D02*
Y146850D01*
X71260D01*
Y172047D01*
X55512D02*
X71260D01*
X0Y157480D02*
X30315D01*
Y172047D01*
X55512D01*
Y229528D01*
X71260D01*
Y250394D01*
X55512D02*
X71260D01*
D116*
X0Y0D02*
X314961D01*
X314961Y314961D02*
X314961Y0D01*
X-0Y314961D02*
X314961D01*
X-0D02*
X0Y0D01*
D117*
X14764Y147636D02*
D03*
D118*
X267354Y295638D02*
D03*
X274425Y288567D02*
D03*
X281496Y281496D02*
D03*
X288567Y274425D02*
D03*
X295638Y267354D02*
D03*
D119*
X172126Y74803D02*
D03*
X142598D02*
D03*
X250866D02*
D03*
X221339D02*
D03*
X93386D02*
D03*
X172362Y157480D02*
D03*
X142835D02*
D03*
X251102D02*
D03*
X221575D02*
D03*
X93622D02*
D03*
X221339Y240158D02*
D03*
X250866D02*
D03*
X142598D02*
D03*
X172126D02*
D03*
X93386D02*
D03*
D120*
X295276Y295276D02*
D03*
X19685D02*
D03*
X295276Y19685D02*
D03*
X19685D02*
D03*
D121*
X262992Y134252D02*
D03*
X184252D02*
D03*
X105512D02*
D03*
X248819Y39370D02*
D03*
X170079D02*
D03*
X91339D02*
D03*
X268899Y33858D02*
D03*
X227362Y289665D02*
D03*
X227362Y293406D02*
D03*
Y285925D02*
D03*
X284752Y306693D02*
D03*
X196063Y294488D02*
D03*
X200000D02*
D03*
X203937D02*
D03*
X264175Y25984D02*
D03*
X267718D02*
D03*
X268899Y37795D02*
D03*
X260343Y30315D02*
D03*
X264962Y37795D02*
D03*
Y33858D02*
D03*
X220079Y133071D02*
D03*
X215748D02*
D03*
Y129134D02*
D03*
Y137008D02*
D03*
X220079D02*
D03*
Y129134D02*
D03*
X233858Y119685D02*
D03*
X229528D02*
D03*
X233858Y115748D02*
D03*
Y123622D02*
D03*
X229528Y115748D02*
D03*
Y123622D02*
D03*
X246850Y131496D02*
D03*
X250787D02*
D03*
X254724D02*
D03*
X250787Y128347D02*
D03*
X254724D02*
D03*
X235105Y137205D02*
D03*
X267718Y108661D02*
D03*
X268899Y120472D02*
D03*
Y116535D02*
D03*
X264962Y120472D02*
D03*
Y116535D02*
D03*
X250066Y137205D02*
D03*
X242388Y133661D02*
D03*
X241732Y152756D02*
D03*
X238976D02*
D03*
X241732Y162205D02*
D03*
X238976D02*
D03*
X227428Y133661D02*
D03*
X233465Y162205D02*
D03*
X230709D02*
D03*
X233465Y152756D02*
D03*
X230709D02*
D03*
X246850Y128347D02*
D03*
X260343Y112992D02*
D03*
X264175Y108661D02*
D03*
X248819Y122047D02*
D03*
X170079D02*
D03*
X181602Y112992D02*
D03*
X168110Y128347D02*
D03*
X151969Y152756D02*
D03*
X154724D02*
D03*
X151969Y162205D02*
D03*
X154724D02*
D03*
X148688Y133661D02*
D03*
X160236Y162205D02*
D03*
X162992D02*
D03*
X160236Y152756D02*
D03*
X162992D02*
D03*
X163648Y133661D02*
D03*
X171325Y137205D02*
D03*
X186222Y116535D02*
D03*
Y120472D02*
D03*
X190159Y116535D02*
D03*
Y120472D02*
D03*
X188978Y108661D02*
D03*
X156365Y137205D02*
D03*
X175984Y128347D02*
D03*
X172047D02*
D03*
X175984Y131496D02*
D03*
X172047D02*
D03*
X168110D02*
D03*
X150787Y123622D02*
D03*
Y115748D02*
D03*
X155118Y123622D02*
D03*
Y115748D02*
D03*
X150787Y119685D02*
D03*
X155118D02*
D03*
X141339Y129134D02*
D03*
Y137008D02*
D03*
X137008D02*
D03*
Y129134D02*
D03*
Y133071D02*
D03*
X141339D02*
D03*
X185435Y108661D02*
D03*
X76378Y119685D02*
D03*
X72047D02*
D03*
X76378Y115748D02*
D03*
Y123622D02*
D03*
X72047Y115748D02*
D03*
Y123622D02*
D03*
X89370Y131496D02*
D03*
X93307D02*
D03*
X97244D02*
D03*
X93307Y128347D02*
D03*
X97244D02*
D03*
X77625Y137205D02*
D03*
X110238Y108661D02*
D03*
X111419Y120472D02*
D03*
Y116535D02*
D03*
X107482Y120472D02*
D03*
Y116535D02*
D03*
X62598Y140945D02*
D03*
X58268D02*
D03*
X62598Y144882D02*
D03*
X58268D02*
D03*
Y137008D02*
D03*
X62598D02*
D03*
X92585Y137205D02*
D03*
X84908Y133661D02*
D03*
X84252Y152756D02*
D03*
X81496D02*
D03*
X84252Y162205D02*
D03*
X81496D02*
D03*
X69947Y133661D02*
D03*
X75984Y162205D02*
D03*
X73228D02*
D03*
X75984Y152756D02*
D03*
X73228D02*
D03*
X89370Y128347D02*
D03*
X102862Y112992D02*
D03*
X106694Y108661D02*
D03*
X91339Y122047D02*
D03*
X185435Y191339D02*
D03*
X248819Y204724D02*
D03*
X264175Y191339D02*
D03*
X260343Y195669D02*
D03*
X242913Y206299D02*
D03*
X246850Y211024D02*
D03*
X230709Y235433D02*
D03*
X233465D02*
D03*
X230709Y244882D02*
D03*
X233465D02*
D03*
X227428Y216339D02*
D03*
X238976Y244882D02*
D03*
X241732D02*
D03*
X238976Y235433D02*
D03*
X241732D02*
D03*
X242388Y216339D02*
D03*
X250066Y219882D02*
D03*
X264962Y199213D02*
D03*
Y203150D02*
D03*
X268899Y199213D02*
D03*
Y203150D02*
D03*
X238583Y202362D02*
D03*
X242913D02*
D03*
X238583Y198425D02*
D03*
Y206299D02*
D03*
X242913Y198425D02*
D03*
X267718Y191339D02*
D03*
X235105Y219882D02*
D03*
X254724Y211024D02*
D03*
X250787D02*
D03*
X254724Y215354D02*
D03*
X250787D02*
D03*
X246850D02*
D03*
X220079Y211811D02*
D03*
Y219685D02*
D03*
X215748D02*
D03*
Y211811D02*
D03*
Y215748D02*
D03*
X220079D02*
D03*
X141339D02*
D03*
X137008D02*
D03*
Y211811D02*
D03*
Y219685D02*
D03*
X141339D02*
D03*
Y211811D02*
D03*
X168110Y215354D02*
D03*
X172047D02*
D03*
X175984D02*
D03*
X172047Y211024D02*
D03*
X175984D02*
D03*
X156365Y219882D02*
D03*
X188978Y191339D02*
D03*
X164173Y198425D02*
D03*
X159843Y206299D02*
D03*
Y198425D02*
D03*
X164173Y202362D02*
D03*
X159843D02*
D03*
X190159Y203150D02*
D03*
Y199213D02*
D03*
X186222Y203150D02*
D03*
Y199213D02*
D03*
X171325Y219882D02*
D03*
X163648Y216339D02*
D03*
X162992Y235433D02*
D03*
X160236D02*
D03*
X162992Y244882D02*
D03*
X160236D02*
D03*
X148688Y216339D02*
D03*
X154724Y244882D02*
D03*
X151969D02*
D03*
X154724Y235433D02*
D03*
X151969D02*
D03*
X168110Y211024D02*
D03*
X164173Y206299D02*
D03*
X181602Y195669D02*
D03*
X170079Y204724D02*
D03*
X91339D02*
D03*
X106694Y191339D02*
D03*
X102862Y195669D02*
D03*
X85433Y206299D02*
D03*
X89370Y211024D02*
D03*
X73228Y235433D02*
D03*
X75984D02*
D03*
X73228Y244882D02*
D03*
X75984D02*
D03*
X69947Y216339D02*
D03*
X81496Y244882D02*
D03*
X84252D02*
D03*
X81496Y235433D02*
D03*
X84252D02*
D03*
X84908Y216339D02*
D03*
X92585Y219882D02*
D03*
X62598Y219685D02*
D03*
X58268D02*
D03*
Y227559D02*
D03*
X62598D02*
D03*
X58268Y223622D02*
D03*
X62598D02*
D03*
X107482Y199213D02*
D03*
Y203150D02*
D03*
X111419Y199213D02*
D03*
Y203150D02*
D03*
X81102Y202362D02*
D03*
X85433D02*
D03*
X81102Y198425D02*
D03*
Y206299D02*
D03*
X85433Y198425D02*
D03*
X110238Y191339D02*
D03*
X77625Y219882D02*
D03*
X97244Y211024D02*
D03*
X93307D02*
D03*
X97244Y215354D02*
D03*
X93307D02*
D03*
X89370D02*
D03*
X241732Y70079D02*
D03*
X238976D02*
D03*
X241732Y79528D02*
D03*
X238976D02*
D03*
X235105Y54527D02*
D03*
X233465Y79528D02*
D03*
X230709D02*
D03*
X233465Y70079D02*
D03*
X230709D02*
D03*
X220079Y50394D02*
D03*
X215748D02*
D03*
Y46457D02*
D03*
Y54331D02*
D03*
X220079D02*
D03*
Y46457D02*
D03*
X141339D02*
D03*
Y54331D02*
D03*
X137008D02*
D03*
Y46457D02*
D03*
Y50394D02*
D03*
X141339D02*
D03*
X151969Y70079D02*
D03*
X154724D02*
D03*
X151969Y79528D02*
D03*
X154724D02*
D03*
X148688Y50984D02*
D03*
X160236Y79528D02*
D03*
X162992D02*
D03*
X160236Y70079D02*
D03*
X162992D02*
D03*
X163648Y50984D02*
D03*
X171325Y54527D02*
D03*
X186222Y33858D02*
D03*
Y37795D02*
D03*
X190159Y33858D02*
D03*
X181602Y30315D02*
D03*
X190159Y37795D02*
D03*
X159843Y37008D02*
D03*
X164173D02*
D03*
X159843Y33071D02*
D03*
Y40945D02*
D03*
X164173Y33071D02*
D03*
Y40945D02*
D03*
X188978Y25984D02*
D03*
X185435D02*
D03*
X156365Y54527D02*
D03*
X175984Y45669D02*
D03*
X172047D02*
D03*
X168110D02*
D03*
X175984Y50000D02*
D03*
X172047D02*
D03*
X168110D02*
D03*
X89370D02*
D03*
X93307D02*
D03*
X97244D02*
D03*
X89370Y45669D02*
D03*
X93307D02*
D03*
X97244D02*
D03*
X77625Y54527D02*
D03*
X106694Y25984D02*
D03*
X110238D02*
D03*
X85433Y40945D02*
D03*
Y33071D02*
D03*
X81102Y40945D02*
D03*
Y33071D02*
D03*
X85433Y37008D02*
D03*
X81102D02*
D03*
X111419Y37795D02*
D03*
X102862Y30315D02*
D03*
X111419Y33858D02*
D03*
X107482Y37795D02*
D03*
Y33858D02*
D03*
X62598Y58268D02*
D03*
X58268D02*
D03*
X62598Y62205D02*
D03*
X58268D02*
D03*
Y54331D02*
D03*
X62598D02*
D03*
X92585Y54527D02*
D03*
X84908Y50984D02*
D03*
X84252Y70079D02*
D03*
X81496D02*
D03*
X84252Y79528D02*
D03*
X81496D02*
D03*
X69947Y50984D02*
D03*
X75984Y79528D02*
D03*
X73228D02*
D03*
X75984Y70079D02*
D03*
X73228D02*
D03*
D122*
X42126Y277165D02*
D03*
Y281102D02*
D03*
Y285039D02*
D03*
X74409Y306693D02*
D03*
Y302756D02*
D03*
Y298819D02*
D03*
X129923Y32178D02*
D03*
X125591Y27060D02*
D03*
X208663Y32178D02*
D03*
X204331Y27060D02*
D03*
X287403Y32178D02*
D03*
X283071Y27060D02*
D03*
X287405Y114854D02*
D03*
X283072Y109736D02*
D03*
X208663Y114855D02*
D03*
X204331Y109737D02*
D03*
X129923Y114855D02*
D03*
X125591Y109737D02*
D03*
X129923Y197533D02*
D03*
X125591Y192414D02*
D03*
X208664Y197531D02*
D03*
X204332Y192413D02*
D03*
X283072D02*
D03*
X287405Y197531D02*
D03*
X61024Y296063D02*
D03*
X53150D02*
D03*
X57087D02*
D03*
X225591Y186614D02*
D03*
X218504D02*
D03*
X225591Y177165D02*
D03*
X218504D02*
D03*
X253937D02*
D03*
X246850D02*
D03*
X253937Y186614D02*
D03*
X246850D02*
D03*
X168110D02*
D03*
X175197D02*
D03*
X168110Y177165D02*
D03*
X175197D02*
D03*
X139764D02*
D03*
X146850D02*
D03*
X139764Y186614D02*
D03*
X146850D02*
D03*
X68110Y186614D02*
D03*
X61024D02*
D03*
X68110Y177165D02*
D03*
X61024D02*
D03*
X96457D02*
D03*
X89370D02*
D03*
X96457Y186614D02*
D03*
X89370D02*
D03*
X246850Y269291D02*
D03*
X253937D02*
D03*
X246850Y259842D02*
D03*
X253937D02*
D03*
X218504D02*
D03*
X225591D02*
D03*
X218504Y269291D02*
D03*
X225591D02*
D03*
X146850D02*
D03*
X139764D02*
D03*
X146850Y259842D02*
D03*
X139764D02*
D03*
X175197D02*
D03*
X168110D02*
D03*
X175197Y269291D02*
D03*
X168110D02*
D03*
X89370D02*
D03*
X96457D02*
D03*
X89370Y259842D02*
D03*
X96457D02*
D03*
X61024D02*
D03*
X68110D02*
D03*
X61024Y269291D02*
D03*
X68110D02*
D03*
X253937Y94488D02*
D03*
X246850D02*
D03*
X253937Y103937D02*
D03*
X246850D02*
D03*
X225591D02*
D03*
X218504D02*
D03*
X225591Y94488D02*
D03*
X218504D02*
D03*
X168110Y103937D02*
D03*
X175197D02*
D03*
X168110Y94488D02*
D03*
X175197D02*
D03*
X139764D02*
D03*
X146850D02*
D03*
X139764Y103937D02*
D03*
X146850D02*
D03*
X68110D02*
D03*
X61024D02*
D03*
X68110Y94488D02*
D03*
X61024D02*
D03*
X96457D02*
D03*
X89370D02*
D03*
X96457Y103937D02*
D03*
X89370D02*
D03*
M02*
