G04*
G04 #@! TF.GenerationSoftware,Altium Limited,Altium Designer,23.3.1 (30)*
G04*
G04 Layer_Color=8388736*
%FSLAX25Y25*%
%MOIN*%
G70*
G04*
G04 #@! TF.SameCoordinates,CC060F13-8039-4013-9EB4-17962B1888DE*
G04*
G04*
G04 #@! TF.FilePolarity,Negative*
G04*
G01*
G75*
%ADD36R,0.05524X0.06312*%
%ADD37R,0.05524X0.06312*%
%ADD38R,0.05800X0.05800*%
%ADD39R,0.10642X0.05131*%
%ADD40R,0.01581X0.02959*%
%ADD41R,0.10636X0.06896*%
%ADD42R,0.04800X0.03800*%
%ADD43R,0.04800X0.03950*%
%ADD44R,0.04737X0.04737*%
%ADD45R,0.03950X0.04800*%
%ADD46R,0.03800X0.04800*%
%ADD47R,0.02375X0.03950*%
%ADD48R,0.05524X0.07887*%
%ADD49R,0.12611X0.05918*%
%ADD50R,0.03162X0.05131*%
%ADD51O,0.07493X0.02178*%
%ADD52C,0.11824*%
%ADD53C,0.07493*%
%ADD54P,0.10597X4X180.0*%
%ADD55C,0.10642*%
%ADD56R,0.10642X0.10642*%
%ADD57C,0.22453*%
D36*
X141339Y288583D02*
D03*
D37*
X154724D02*
D03*
D38*
X143532Y298425D02*
D03*
X152532D02*
D03*
X143532Y307087D02*
D03*
X152532D02*
D03*
X80146Y298425D02*
D03*
X89146D02*
D03*
X80146Y307087D02*
D03*
X89146D02*
D03*
X56862Y277559D02*
D03*
X47862D02*
D03*
D39*
X105905Y299803D02*
D03*
Y293110D02*
D03*
X128740Y299803D02*
D03*
Y293110D02*
D03*
D40*
X262993Y41339D02*
D03*
X264961D02*
D03*
X262992Y30315D02*
D03*
X270867Y41339D02*
D03*
X268898D02*
D03*
X266929D02*
D03*
X264961Y30315D02*
D03*
X266929D02*
D03*
X268898D02*
D03*
X270867D02*
D03*
X105514Y124016D02*
D03*
X107482D02*
D03*
X105513Y112992D02*
D03*
X113388Y124016D02*
D03*
X111419D02*
D03*
X109450D02*
D03*
X107482Y112992D02*
D03*
X109450D02*
D03*
X111419D02*
D03*
X113388D02*
D03*
X192127Y30315D02*
D03*
X190157D02*
D03*
X188189D02*
D03*
X186221D02*
D03*
X188189Y41339D02*
D03*
X190157D02*
D03*
X192127D02*
D03*
X184251Y30315D02*
D03*
X186221Y41339D02*
D03*
X184253D02*
D03*
X270867Y195669D02*
D03*
X268898D02*
D03*
X266929D02*
D03*
X264961D02*
D03*
X266929Y206693D02*
D03*
X268898D02*
D03*
X270867D02*
D03*
X262992Y195669D02*
D03*
X264961Y206693D02*
D03*
X262993D02*
D03*
X192127Y195669D02*
D03*
X190157D02*
D03*
X188189D02*
D03*
X186221D02*
D03*
X188189Y206693D02*
D03*
X190157D02*
D03*
X192127D02*
D03*
X184251Y195669D02*
D03*
X186221Y206693D02*
D03*
X184253D02*
D03*
X113388Y195669D02*
D03*
X111419D02*
D03*
X109450D02*
D03*
X107482D02*
D03*
X109450Y206693D02*
D03*
X111419D02*
D03*
X113388D02*
D03*
X105513Y195669D02*
D03*
X107482Y206693D02*
D03*
X105514D02*
D03*
X270867Y112992D02*
D03*
X268898D02*
D03*
X266929D02*
D03*
X264961D02*
D03*
X266929Y124016D02*
D03*
X268898D02*
D03*
X270867D02*
D03*
X262992Y112992D02*
D03*
X264961Y124016D02*
D03*
X262993D02*
D03*
X192127Y112992D02*
D03*
X190157D02*
D03*
X188189D02*
D03*
X186221D02*
D03*
X188189Y124016D02*
D03*
X190157D02*
D03*
X192127D02*
D03*
X184251Y112992D02*
D03*
X186221Y124016D02*
D03*
X184253D02*
D03*
X113388Y30315D02*
D03*
X111419D02*
D03*
X109450D02*
D03*
X107482D02*
D03*
X109450Y41339D02*
D03*
X111419D02*
D03*
X113388D02*
D03*
X105513Y30315D02*
D03*
X107482Y41339D02*
D03*
X105514D02*
D03*
D41*
X266928Y35827D02*
D03*
X109449Y118504D02*
D03*
X188188Y35827D02*
D03*
X266928Y201181D02*
D03*
X188188D02*
D03*
X109449D02*
D03*
X266928Y118504D02*
D03*
X188188D02*
D03*
X109449Y35827D02*
D03*
D42*
X272334Y306693D02*
D03*
X279634D02*
D03*
X75090Y46457D02*
D03*
X82390D02*
D03*
X75090Y129134D02*
D03*
X82390D02*
D03*
X153830D02*
D03*
X161130D02*
D03*
X191839Y48425D02*
D03*
X184539D02*
D03*
X232571Y240158D02*
D03*
X239871D02*
D03*
X153830D02*
D03*
X161130D02*
D03*
X75090D02*
D03*
X82390D02*
D03*
X232571Y157480D02*
D03*
X239871D02*
D03*
X153830D02*
D03*
X161130D02*
D03*
X75090D02*
D03*
X82390D02*
D03*
X75090Y74803D02*
D03*
X82390D02*
D03*
X153830D02*
D03*
X161130D02*
D03*
X232571D02*
D03*
X239871D02*
D03*
X161130Y46457D02*
D03*
X153830D02*
D03*
X263279Y48425D02*
D03*
X270579D02*
D03*
Y213779D02*
D03*
X263279D02*
D03*
X191839D02*
D03*
X184539D02*
D03*
X270579Y131102D02*
D03*
X263279D02*
D03*
X113099Y213779D02*
D03*
X105799D02*
D03*
X191839Y131102D02*
D03*
X184539D02*
D03*
X113099D02*
D03*
X105799D02*
D03*
X113100Y48425D02*
D03*
X105800D02*
D03*
X56012Y284646D02*
D03*
X48712D02*
D03*
X82390Y211811D02*
D03*
X75090D02*
D03*
X161130D02*
D03*
X153830D02*
D03*
X239871D02*
D03*
X232571D02*
D03*
X239871Y129134D02*
D03*
X232571D02*
D03*
D43*
X262311Y306693D02*
D03*
X255011D02*
D03*
X38476Y291732D02*
D03*
X45776D02*
D03*
X60737Y307874D02*
D03*
X53437D02*
D03*
X184539Y22047D02*
D03*
X191839D02*
D03*
Y55118D02*
D03*
X184539D02*
D03*
X113099Y22047D02*
D03*
X105799D02*
D03*
X234752Y39370D02*
D03*
X227452D02*
D03*
X270579Y22047D02*
D03*
X263279D02*
D03*
Y187402D02*
D03*
X270579D02*
D03*
X263279Y220472D02*
D03*
X270579D02*
D03*
X184539Y187402D02*
D03*
X191839D02*
D03*
X184539Y220472D02*
D03*
X191839D02*
D03*
X263279Y137795D02*
D03*
X270579D02*
D03*
X263279Y104724D02*
D03*
X270579D02*
D03*
X105799Y187402D02*
D03*
X113099D02*
D03*
X105799Y220472D02*
D03*
X113099D02*
D03*
X184539Y137795D02*
D03*
X191839D02*
D03*
X184539Y104724D02*
D03*
X191839D02*
D03*
X105799D02*
D03*
X113099D02*
D03*
X105799Y137795D02*
D03*
X113099D02*
D03*
X105800Y55118D02*
D03*
X113100D02*
D03*
D44*
X281102Y267323D02*
D03*
X271654D02*
D03*
D45*
X38189Y307587D02*
D03*
Y300287D02*
D03*
X45669D02*
D03*
Y307587D02*
D03*
X189764Y282964D02*
D03*
Y290264D02*
D03*
X183071Y282964D02*
D03*
Y290264D02*
D03*
D46*
X240551Y55799D02*
D03*
Y63099D02*
D03*
X276772Y122154D02*
D03*
Y114854D02*
D03*
X283071Y122154D02*
D03*
Y114854D02*
D03*
X276772Y32177D02*
D03*
Y39477D02*
D03*
X283071Y32177D02*
D03*
Y39477D02*
D03*
X198031Y32177D02*
D03*
Y39477D02*
D03*
X204331Y32177D02*
D03*
Y39477D02*
D03*
X283071Y197531D02*
D03*
Y204831D02*
D03*
X276772Y197531D02*
D03*
Y204831D02*
D03*
X204331Y197531D02*
D03*
Y204831D02*
D03*
X198031Y197531D02*
D03*
Y204831D02*
D03*
X125591Y197531D02*
D03*
Y204831D02*
D03*
X119291Y197531D02*
D03*
Y204831D02*
D03*
X204331Y114854D02*
D03*
Y122154D02*
D03*
X198031Y114854D02*
D03*
Y122154D02*
D03*
X125591Y114854D02*
D03*
Y122154D02*
D03*
X119291Y114854D02*
D03*
Y122154D02*
D03*
X119293Y32177D02*
D03*
Y39477D02*
D03*
X125592Y32177D02*
D03*
Y39477D02*
D03*
X196457Y282964D02*
D03*
Y290264D02*
D03*
X203150Y282964D02*
D03*
Y290264D02*
D03*
X68504Y292413D02*
D03*
Y299713D02*
D03*
D47*
X232579Y66023D02*
D03*
X230020Y54449D02*
D03*
Y66023D02*
D03*
X224902D02*
D03*
Y54449D02*
D03*
X227461D02*
D03*
Y66023D02*
D03*
X232579Y54449D02*
D03*
X153839Y66023D02*
D03*
X151279Y54449D02*
D03*
Y66023D02*
D03*
X146161D02*
D03*
Y54449D02*
D03*
X148721D02*
D03*
Y66023D02*
D03*
X153839Y54449D02*
D03*
X168799D02*
D03*
X163681Y66023D02*
D03*
Y54449D02*
D03*
X161122D02*
D03*
Y66023D02*
D03*
X166240D02*
D03*
Y54449D02*
D03*
X168799Y66023D02*
D03*
X75098D02*
D03*
X72539Y54449D02*
D03*
Y66023D02*
D03*
X67421D02*
D03*
Y54449D02*
D03*
X69980D02*
D03*
Y66023D02*
D03*
X75098Y54449D02*
D03*
X90059D02*
D03*
X84941Y66023D02*
D03*
Y54449D02*
D03*
X82382D02*
D03*
Y66023D02*
D03*
X87500D02*
D03*
Y54449D02*
D03*
X90059Y66023D02*
D03*
Y148700D02*
D03*
X87500Y137126D02*
D03*
Y148700D02*
D03*
X82382D02*
D03*
Y137126D02*
D03*
X84941D02*
D03*
Y148700D02*
D03*
X90059Y137126D02*
D03*
X75098D02*
D03*
X69980Y148700D02*
D03*
Y137126D02*
D03*
X67421D02*
D03*
Y148700D02*
D03*
X72539D02*
D03*
Y137126D02*
D03*
X75098Y148700D02*
D03*
X168799D02*
D03*
X166240Y137126D02*
D03*
Y148700D02*
D03*
X161122D02*
D03*
Y137126D02*
D03*
X163681D02*
D03*
Y148700D02*
D03*
X168799Y137126D02*
D03*
X153839D02*
D03*
X148721Y148700D02*
D03*
Y137126D02*
D03*
X146161D02*
D03*
Y148700D02*
D03*
X151279D02*
D03*
Y137126D02*
D03*
X153839Y148700D02*
D03*
X247539D02*
D03*
X244980Y137126D02*
D03*
Y148700D02*
D03*
X239862D02*
D03*
Y137126D02*
D03*
X242421D02*
D03*
Y148700D02*
D03*
X247539Y137126D02*
D03*
X232579D02*
D03*
X227461Y148700D02*
D03*
Y137126D02*
D03*
X224902D02*
D03*
Y148700D02*
D03*
X230020D02*
D03*
Y137126D02*
D03*
X232579Y148700D02*
D03*
Y231378D02*
D03*
X230020Y219804D02*
D03*
Y231378D02*
D03*
X224902D02*
D03*
Y219804D02*
D03*
X227461D02*
D03*
Y231378D02*
D03*
X232579Y219804D02*
D03*
X247539D02*
D03*
X242421Y231378D02*
D03*
Y219804D02*
D03*
X239862D02*
D03*
Y231378D02*
D03*
X244980D02*
D03*
Y219804D02*
D03*
X247539Y231378D02*
D03*
X153839D02*
D03*
X151279Y219804D02*
D03*
Y231378D02*
D03*
X146161D02*
D03*
Y219804D02*
D03*
X148721D02*
D03*
Y231378D02*
D03*
X153839Y219804D02*
D03*
X168799D02*
D03*
X163681Y231378D02*
D03*
Y219804D02*
D03*
X161122D02*
D03*
Y231378D02*
D03*
X166240D02*
D03*
Y219804D02*
D03*
X168799Y231378D02*
D03*
X75098D02*
D03*
X72539Y219804D02*
D03*
Y231378D02*
D03*
X67421D02*
D03*
Y219804D02*
D03*
X69980D02*
D03*
Y231378D02*
D03*
X75098Y219804D02*
D03*
X90059D02*
D03*
X84941Y231378D02*
D03*
Y219804D02*
D03*
X82382D02*
D03*
Y231378D02*
D03*
X87500D02*
D03*
Y219804D02*
D03*
X90059Y231378D02*
D03*
D48*
X231594Y61417D02*
D03*
X225886D02*
D03*
X152854D02*
D03*
X147146D02*
D03*
X162106D02*
D03*
X167815D02*
D03*
X74114D02*
D03*
X68405D02*
D03*
X83366D02*
D03*
X89075D02*
D03*
Y144095D02*
D03*
X83366D02*
D03*
X68405D02*
D03*
X74114D02*
D03*
X167815D02*
D03*
X162106D02*
D03*
X147146D02*
D03*
X152854D02*
D03*
X246555D02*
D03*
X240846D02*
D03*
X225886D02*
D03*
X231594D02*
D03*
Y226772D02*
D03*
X225886D02*
D03*
X240846D02*
D03*
X246555D02*
D03*
X152854D02*
D03*
X147146D02*
D03*
X162106D02*
D03*
X167815D02*
D03*
X74114D02*
D03*
X68405D02*
D03*
X83366D02*
D03*
X89075D02*
D03*
D49*
X220472Y99213D02*
D03*
X251969D02*
D03*
X173228Y99213D02*
D03*
X141732D02*
D03*
X251969Y264567D02*
D03*
X220472D02*
D03*
X173228D02*
D03*
X141732D02*
D03*
X94488D02*
D03*
X62992D02*
D03*
X220472Y181890D02*
D03*
X251969D02*
D03*
X141732D02*
D03*
X173228D02*
D03*
X62992D02*
D03*
X94488D02*
D03*
Y99213D02*
D03*
X62992D02*
D03*
D50*
X60827Y300787D02*
D03*
X57087D02*
D03*
X53346D02*
D03*
Y291339D02*
D03*
X57087D02*
D03*
X60827D02*
D03*
D51*
X212795Y307579D02*
D03*
X212795Y305020D02*
D03*
X212795Y302461D02*
D03*
X212795Y299902D02*
D03*
Y297342D02*
D03*
Y294783D02*
D03*
Y292224D02*
D03*
X212795Y289665D02*
D03*
X212795Y287106D02*
D03*
X212795Y284547D02*
D03*
X235236Y307579D02*
D03*
X235236Y305020D02*
D03*
X235236Y302461D02*
D03*
X235236Y299902D02*
D03*
Y297342D02*
D03*
Y294783D02*
D03*
Y292224D02*
D03*
X235236Y289665D02*
D03*
X235236Y287106D02*
D03*
X235236Y284547D02*
D03*
D52*
X14764Y147636D02*
D03*
Y167321D02*
D03*
D53*
X267354Y295638D02*
D03*
X274425Y288567D02*
D03*
X281496Y281496D02*
D03*
X288567Y274425D02*
D03*
D54*
X295638Y267354D02*
D03*
D55*
X172126Y74803D02*
D03*
X250866D02*
D03*
X93386D02*
D03*
X142835Y157480D02*
D03*
X221575D02*
D03*
X64095D02*
D03*
X250866Y240158D02*
D03*
X172126D02*
D03*
X93386D02*
D03*
D56*
X142598Y74803D02*
D03*
X221339D02*
D03*
X63858D02*
D03*
X172362Y157480D02*
D03*
X251102D02*
D03*
X93622D02*
D03*
X221339Y240158D02*
D03*
X142598D02*
D03*
X63858D02*
D03*
D57*
X295276Y295276D02*
D03*
X19685D02*
D03*
X295276Y19685D02*
D03*
X19685D02*
D03*
M02*
