G04*
G04 #@! TF.GenerationSoftware,Altium Limited,Altium Designer,23.3.1 (30)*
G04*
G04 Layer_Color=65535*
%FSLAX25Y25*%
%MOIN*%
G70*
G04*
G04 #@! TF.SameCoordinates,CC060F13-8039-4013-9EB4-17962B1888DE*
G04*
G04*
G04 #@! TF.FilePolarity,Positive*
G04*
G01*
G75*
%ADD10C,0.00787*%
%ADD11C,0.01181*%
%ADD12C,0.00984*%
%ADD13C,0.02362*%
%ADD14C,0.01000*%
%ADD15C,0.00800*%
%ADD16C,0.00600*%
%ADD17C,0.00400*%
%ADD18C,0.00394*%
%ADD19C,0.00492*%
D10*
X99606Y299803D02*
G03*
X99606Y299803I-394J0D01*
G01*
X225000Y51378D02*
G03*
X225000Y51378I-197J0D01*
G01*
X146260D02*
G03*
X146260Y51378I-197J0D01*
G01*
X161221D02*
G03*
X161221Y51378I-197J0D01*
G01*
X67520D02*
G03*
X67520Y51378I-197J0D01*
G01*
X82480D02*
G03*
X82480Y51378I-197J0D01*
G01*
Y134055D02*
G03*
X82480Y134055I-197J0D01*
G01*
X67520D02*
G03*
X67520Y134055I-197J0D01*
G01*
X161221D02*
G03*
X161221Y134055I-197J0D01*
G01*
X146260D02*
G03*
X146260Y134055I-197J0D01*
G01*
X239961D02*
G03*
X239961Y134055I-197J0D01*
G01*
X225000D02*
G03*
X225000Y134055I-197J0D01*
G01*
Y216733D02*
G03*
X225000Y216733I-197J0D01*
G01*
X239961D02*
G03*
X239961Y216733I-197J0D01*
G01*
X146260D02*
G03*
X146260Y216733I-197J0D01*
G01*
X161221D02*
G03*
X161221Y216733I-197J0D01*
G01*
X67520D02*
G03*
X67520Y216733I-197J0D01*
G01*
X82480D02*
G03*
X82480Y216733I-197J0D01*
G01*
X102559Y281693D02*
Y288583D01*
Y281693D02*
Y288583D01*
Y281693D02*
X132087D01*
X102559D02*
X132087D01*
Y288583D01*
Y281693D02*
Y288583D01*
Y304331D02*
Y311221D01*
Y304331D02*
Y311221D01*
X102559D02*
X132087D01*
X102559D02*
X132087D01*
X102559Y305315D02*
Y311221D01*
Y305315D02*
Y311221D01*
X222441Y53937D02*
Y66142D01*
X235039Y53937D02*
Y66142D01*
X295638Y260283D02*
X302709Y267354D01*
X260283Y295638D02*
X295638Y260283D01*
X267354Y302709D02*
X302709Y267354D01*
X260283Y295638D02*
X267354Y302709D01*
X143701Y53937D02*
Y66142D01*
X156299Y53937D02*
Y66142D01*
X171260Y53937D02*
Y66142D01*
X158661Y53937D02*
Y66142D01*
X64961Y53937D02*
Y66142D01*
X77559Y53937D02*
Y66142D01*
X92520Y53937D02*
Y66142D01*
X79921Y53937D02*
Y66142D01*
Y136614D02*
Y148819D01*
X92520Y136614D02*
Y148819D01*
X77559Y136614D02*
Y148819D01*
X64961Y136614D02*
Y148819D01*
X158661Y136614D02*
Y148819D01*
X171260Y136614D02*
Y148819D01*
X156299Y136614D02*
Y148819D01*
X143701Y136614D02*
Y148819D01*
X237402Y136614D02*
Y148819D01*
X250000Y136614D02*
Y148819D01*
X235039Y136614D02*
Y148819D01*
X222441Y136614D02*
Y148819D01*
Y219291D02*
Y231496D01*
X235039Y219291D02*
Y231496D01*
X250000Y219291D02*
Y231496D01*
X237402Y219291D02*
Y231496D01*
X143701Y219291D02*
Y231496D01*
X156299Y219291D02*
Y231496D01*
X171260Y219291D02*
Y231496D01*
X158661Y219291D02*
Y231496D01*
X64961Y219291D02*
Y231496D01*
X77559Y219291D02*
Y231496D01*
X92520Y219291D02*
Y231496D01*
X79921Y219291D02*
Y231496D01*
X220488Y83268D02*
Y86417D01*
X218898Y84842D02*
X222047D01*
X140157Y84842D02*
X143307D01*
X141748Y83268D02*
Y86417D01*
X218898Y250197D02*
X222047D01*
X220488Y248622D02*
Y251772D01*
X140157Y250197D02*
X143307D01*
X141748Y248622D02*
Y251772D01*
X61417Y250197D02*
X64567D01*
X63008Y248622D02*
Y251772D01*
X250394Y196260D02*
X253543D01*
X251953Y194685D02*
Y197835D01*
X171653Y196260D02*
X174803D01*
X173213Y194685D02*
Y197835D01*
X92913Y196260D02*
X96063D01*
X94472Y194685D02*
Y197835D01*
X61417Y84842D02*
X64567D01*
X63008Y83268D02*
Y86417D01*
X63189Y295079D02*
Y297047D01*
X50984Y295079D02*
Y297047D01*
X63189D01*
X50984Y295079D02*
X63189D01*
X217717Y283071D02*
Y309055D01*
X230315D02*
X230315Y283071D01*
X217717Y309055D02*
X230315D01*
X217717Y283071D02*
X230315D01*
D11*
X270905Y44094D02*
G03*
X270905Y44094I-39J0D01*
G01*
X113427Y126772D02*
G03*
X113427Y126772I-39J0D01*
G01*
X192165Y44094D02*
G03*
X192165Y44094I-39J0D01*
G01*
X270905Y209449D02*
G03*
X270905Y209449I-39J0D01*
G01*
X192165D02*
G03*
X192165Y209449I-39J0D01*
G01*
X113427D02*
G03*
X113427Y209449I-39J0D01*
G01*
X270905Y126772D02*
G03*
X270905Y126772I-39J0D01*
G01*
X192165D02*
G03*
X192165Y126772I-39J0D01*
G01*
X113427Y44094D02*
G03*
X113427Y44094I-39J0D01*
G01*
D12*
X64665Y300787D02*
G03*
X64665Y300787I-492J0D01*
G01*
X213287Y310433D02*
G03*
X213287Y310433I-492J0D01*
G01*
D13*
X222835Y305118D02*
G03*
X222835Y305118I-1181J0D01*
G01*
D14*
X146031Y290183D02*
X150031Y288583D01*
X146031Y286983D02*
Y290183D01*
Y286983D02*
X150031Y288583D01*
X145031D02*
X151031D01*
X150031Y286583D02*
Y290583D01*
X142126Y292520D02*
X153937D01*
X142126Y284646D02*
X153937D01*
X272441Y270472D02*
X280315D01*
X272441Y264173D02*
X280315D01*
X274995D02*
Y270472D01*
X219685Y103150D02*
Y108268D01*
Y90158D02*
Y95276D01*
X252756Y103150D02*
Y115748D01*
Y82677D02*
Y95276D01*
X219685Y108268D02*
X227165Y115748D01*
X252756D01*
X227165Y82677D02*
X252756D01*
X219685Y90158D02*
X227165Y82677D01*
X140945Y90158D02*
X148425Y82677D01*
X174016D01*
X148425Y115748D02*
X174016D01*
X140945Y108268D02*
X148425Y115748D01*
X174016Y82677D02*
Y95276D01*
Y103150D02*
Y115748D01*
X140945Y90158D02*
Y95276D01*
Y103150D02*
Y108268D01*
X219685Y255512D02*
X227165Y248031D01*
X252756D01*
X227165Y281102D02*
X252756D01*
X219685Y273622D02*
X227165Y281102D01*
X252756Y248031D02*
Y260630D01*
Y268504D02*
Y281102D01*
X219685Y255512D02*
Y260630D01*
Y268504D02*
Y273622D01*
X140945Y255512D02*
X148425Y248031D01*
X174016D01*
X148425Y281102D02*
X174016D01*
X140945Y273622D02*
X148425Y281102D01*
X174016Y248031D02*
Y260630D01*
Y268504D02*
Y281102D01*
X140945Y255512D02*
Y260630D01*
Y268504D02*
Y273622D01*
X62205Y255512D02*
X69685Y248031D01*
X95276D01*
X69685Y281102D02*
X95276D01*
X62205Y273622D02*
X69685Y281102D01*
X95276Y248031D02*
Y260630D01*
Y268504D02*
Y281102D01*
X62205Y255512D02*
Y260630D01*
Y268504D02*
Y273622D01*
X245276Y198425D02*
X252756Y190945D01*
X219685Y198425D02*
X245276D01*
X219685Y165354D02*
X245276D01*
X252756Y172835D01*
X219685Y185827D02*
Y198425D01*
Y165354D02*
Y177953D01*
X252756Y185827D02*
Y190945D01*
Y172835D02*
Y177953D01*
X166535Y198425D02*
X174016Y190945D01*
X140945Y198425D02*
X166535D01*
X140945Y165354D02*
X166535D01*
X174016Y172835D01*
X140945Y185827D02*
Y198425D01*
Y165354D02*
Y177953D01*
X174016Y185827D02*
Y190945D01*
Y172835D02*
Y177953D01*
X87795Y198425D02*
X95276Y190945D01*
X62205Y198425D02*
X87795D01*
X62205Y165354D02*
X87795D01*
X95276Y172835D01*
X62205Y185827D02*
Y198425D01*
Y165354D02*
Y177953D01*
X95276Y185827D02*
Y190945D01*
Y172835D02*
Y177953D01*
X62205Y90158D02*
X69685Y82677D01*
X95276D01*
X69685Y115748D02*
X95276D01*
X62205Y108268D02*
X69685Y115748D01*
X95276Y82677D02*
Y95276D01*
Y103150D02*
Y115748D01*
X62205Y90158D02*
Y95276D01*
Y103150D02*
Y108268D01*
D15*
X150432Y294825D02*
X156131D01*
X150432Y302025D02*
X156131D01*
X139931Y294825D02*
X145632D01*
X139931Y302025D02*
X145632D01*
X156131Y294825D02*
Y302025D01*
X139931Y294825D02*
Y302025D01*
X150432Y303487D02*
X156131D01*
X150432Y310687D02*
X156131D01*
X139931Y303487D02*
X145632D01*
X139931Y310687D02*
X145632D01*
X156131Y303487D02*
Y310687D01*
X139931Y303487D02*
Y310687D01*
X87046Y294825D02*
X92746D01*
X87046Y302025D02*
X92746D01*
X76546Y294825D02*
X82246D01*
X76546Y302025D02*
X82246D01*
X92746Y294825D02*
Y302025D01*
X76546Y294825D02*
Y302025D01*
X87046Y303487D02*
X92746D01*
X87046Y310687D02*
X92746D01*
X76546Y303487D02*
X82246D01*
X76546Y310687D02*
X82246D01*
X92746Y303487D02*
Y310687D01*
X76546Y303487D02*
Y310687D01*
X269234Y304093D02*
Y309293D01*
X282734Y304093D02*
Y309293D01*
X277784Y304093D02*
X282734D01*
X277784Y309293D02*
X282734D01*
X269234Y304093D02*
X274184D01*
X269234Y309293D02*
X274184D01*
X251911Y304093D02*
X265411D01*
Y309293D01*
X251911D02*
X265411D01*
X251911Y304093D02*
Y309293D01*
X35376Y294332D02*
X48876D01*
X35376Y289132D02*
Y294332D01*
Y289132D02*
X48876D01*
Y294332D01*
X40789Y297187D02*
Y310687D01*
X35589D02*
X40789D01*
X35589Y297187D02*
Y310687D01*
Y297187D02*
X40789D01*
X237951Y52699D02*
X243151D01*
X237951Y66199D02*
X243151D01*
Y61249D02*
Y66199D01*
X237951Y61249D02*
Y66199D01*
X243151Y52699D02*
Y57649D01*
X237951Y52699D02*
Y57649D01*
X43069Y297187D02*
Y310687D01*
Y297187D02*
X48269D01*
Y310687D01*
X43069D02*
X48269D01*
X50337Y305274D02*
X63837D01*
Y310474D01*
X50337D02*
X63837D01*
X50337Y305274D02*
Y310474D01*
X187164Y279864D02*
Y293364D01*
Y279864D02*
X192364D01*
Y293364D01*
X187164D02*
X192364D01*
X274172Y111754D02*
Y116704D01*
X279372Y111754D02*
Y116704D01*
X274172Y120304D02*
Y125254D01*
X279372Y120304D02*
Y125254D01*
X274172D02*
X279372D01*
X274172Y111754D02*
X279372D01*
X280471D02*
Y116704D01*
X285671Y111754D02*
Y116704D01*
X280471Y120304D02*
Y125254D01*
X285671Y120304D02*
Y125254D01*
X280471D02*
X285671D01*
X280471Y111754D02*
X285671D01*
X80540Y43857D02*
X85490D01*
X80540Y49057D02*
X85490D01*
X71990Y43857D02*
X76940D01*
X71990Y49057D02*
X76940D01*
X71990Y43857D02*
Y49057D01*
X85490Y43857D02*
Y49057D01*
X274172Y29077D02*
X279372D01*
X274172Y42577D02*
X279372Y42577D01*
Y37627D02*
Y42577D01*
X274172Y37627D02*
Y42577D01*
X279372Y29077D02*
Y34027D01*
X274172Y29077D02*
X274172Y34027D01*
X280471Y29077D02*
X285671D01*
X280471Y42577D02*
X285671Y42577D01*
Y37627D02*
Y42577D01*
X280471Y37627D02*
Y42577D01*
X285671Y29077D02*
X285671Y34027D01*
X280471Y29077D02*
Y34027D01*
X80540Y126534D02*
X85490D01*
X80540Y131734D02*
X85490D01*
X71990Y126534D02*
X76940D01*
X71990Y131734D02*
X76940D01*
X71990Y126534D02*
Y131734D01*
X85490Y126534D02*
Y131734D01*
X159280Y126534D02*
X164230D01*
X159280Y131734D02*
X164230D01*
X150730Y126534D02*
X155680D01*
X150730Y131734D02*
X155680D01*
X150730Y126534D02*
Y131734D01*
X164230Y126534D02*
Y131734D01*
X195431Y29077D02*
X200631D01*
X195431Y42577D02*
X200631D01*
Y37627D02*
Y42577D01*
X195431Y37627D02*
Y42577D01*
X200631Y29077D02*
Y34027D01*
X195431Y29077D02*
Y34027D01*
X201731Y29077D02*
X206931D01*
X201731Y42577D02*
X206931D01*
Y37627D02*
Y42577D01*
X201731Y37627D02*
Y42577D01*
X206931Y29077D02*
Y34027D01*
X201731Y29077D02*
Y34027D01*
X181439Y24647D02*
X194939D01*
X181439Y19447D02*
Y24647D01*
Y19447D02*
X194939D01*
Y24647D01*
Y45825D02*
Y51025D01*
X181439Y45825D02*
Y51025D01*
X186389D01*
X181439Y45825D02*
X186389D01*
X189989Y51025D02*
X194939D01*
X189989Y45825D02*
X194939D01*
Y52518D02*
Y57718D01*
X181439Y52518D02*
X194939D01*
X181439D02*
Y57718D01*
X194939D01*
X116199Y19447D02*
Y24647D01*
X102699Y19447D02*
X116199D01*
X102699D02*
Y24647D01*
X116199D01*
X238020Y237558D02*
X242970D01*
X238020Y242758D02*
X242970D01*
X229470Y237558D02*
X234420D01*
X229470Y242758D02*
X234420D01*
X229470Y237558D02*
Y242758D01*
X242970Y237558D02*
Y242758D01*
X159280Y237558D02*
X164230D01*
X159280Y242758D02*
X164230D01*
X150730Y237558D02*
X155680D01*
X150730Y242758D02*
X155680D01*
X150730Y237558D02*
Y242758D01*
X164230Y237558D02*
Y242758D01*
X80540Y237558D02*
X85490D01*
X80540Y242758D02*
X85490D01*
X71990Y237558D02*
X76940D01*
X71990Y242758D02*
X76940D01*
X71990Y237558D02*
Y242758D01*
X85490Y237558D02*
Y242758D01*
X238020Y154880D02*
X242970D01*
X238020Y160080D02*
X242970D01*
X229470Y154880D02*
X234420D01*
X229470Y160080D02*
X234420D01*
X229470Y154880D02*
Y160080D01*
X242970Y154880D02*
Y160080D01*
X159280Y154880D02*
X164230D01*
X159280Y160080D02*
X164230D01*
X150730Y154880D02*
X155680D01*
X150730Y160080D02*
X155680D01*
X150730Y154880D02*
Y160080D01*
X164230Y154880D02*
Y160080D01*
X80540Y154880D02*
X85490D01*
X80540Y160080D02*
X85490D01*
X71990Y154880D02*
X76940D01*
X71990Y160080D02*
X76940D01*
X71990Y154880D02*
Y160080D01*
X85490Y154880D02*
Y160080D01*
X80540Y72203D02*
X85490D01*
X80540Y77403D02*
X85490D01*
X71990Y72203D02*
X76940D01*
X71990Y77403D02*
X76940D01*
X71990Y72203D02*
Y77403D01*
X85490Y72203D02*
Y77403D01*
X159280Y72203D02*
X164230D01*
X159280Y77403D02*
X164230D01*
X150730Y72203D02*
X155680D01*
X150730Y77403D02*
X155680D01*
X150730Y72203D02*
Y77403D01*
X164230Y72203D02*
Y77403D01*
X238020Y72203D02*
X242970D01*
X238020Y77403D02*
X242970D01*
X229470Y72203D02*
X234420D01*
X229470Y77403D02*
X234420D01*
X229470Y72203D02*
Y77403D01*
X242970Y72203D02*
Y77403D01*
X164230Y43857D02*
Y49057D01*
X150730Y43857D02*
Y49057D01*
X155680D01*
X150730Y43857D02*
X155680D01*
X159280Y49057D02*
X164230D01*
X159280Y43857D02*
X164230D01*
X237852Y36770D02*
Y41970D01*
X224352Y36770D02*
X237852D01*
X224352D02*
Y41970D01*
X237852D01*
X268729Y45825D02*
X273679D01*
X268729Y51025D02*
X273679D01*
X260179Y45825D02*
X265129D01*
X260179Y51025D02*
X265129D01*
X260179Y45825D02*
Y51025D01*
X273679Y45825D02*
Y51025D01*
Y19447D02*
Y24647D01*
X260179Y19447D02*
X273679D01*
X260179D02*
Y24647D01*
X273679D01*
X260179Y190002D02*
X273679D01*
X260179Y184802D02*
Y190002D01*
Y184802D02*
X273679D01*
Y190002D01*
X260179Y223072D02*
X273679D01*
X260179Y217872D02*
Y223072D01*
Y217872D02*
X273679D01*
Y223072D01*
Y211179D02*
Y216379D01*
X260179Y211179D02*
Y216379D01*
X265129D01*
X260179Y211179D02*
X265129D01*
X268729Y216379D02*
X273679D01*
X268729Y211179D02*
X273679D01*
X280471Y194431D02*
X285671D01*
X280471Y207931D02*
X285671D01*
Y202981D02*
Y207931D01*
X280471Y202981D02*
Y207931D01*
X285671Y194431D02*
Y199381D01*
X280471Y194431D02*
Y199381D01*
X274172Y194431D02*
X279372D01*
X274172Y207931D02*
X279372D01*
Y202981D02*
Y207931D01*
X274172Y202981D02*
Y207931D01*
X279372Y194431D02*
Y199381D01*
X274172Y194431D02*
Y199381D01*
X181439Y190002D02*
X194939D01*
X181439Y184802D02*
Y190002D01*
Y184802D02*
X194939D01*
Y190002D01*
X181439Y223072D02*
X194939D01*
X181439Y217872D02*
Y223072D01*
Y217872D02*
X194939D01*
Y223072D01*
X201731Y194431D02*
X206931D01*
X201731Y207931D02*
X206931D01*
Y202981D02*
Y207931D01*
X201731Y202981D02*
Y207931D01*
X206931Y194431D02*
Y199381D01*
X201731Y194431D02*
Y199381D01*
X194939Y211179D02*
Y216379D01*
X181439Y211179D02*
Y216379D01*
X186389D01*
X181439Y211179D02*
X186389D01*
X189989Y216379D02*
X194939D01*
X189989Y211179D02*
X194939D01*
X195431Y194431D02*
X200631D01*
X195431Y207931D02*
X200631D01*
Y202981D02*
Y207931D01*
X195431Y202981D02*
Y207931D01*
X200631Y194431D02*
Y199381D01*
X195431Y194431D02*
Y199381D01*
X260179Y140395D02*
X273679D01*
X260179Y135195D02*
Y140395D01*
Y135195D02*
X273679D01*
Y140395D01*
X260179Y107324D02*
X273679D01*
X260179Y102124D02*
Y107324D01*
Y102124D02*
X273679D01*
Y107324D01*
Y128502D02*
Y133702D01*
X260179Y128502D02*
Y133702D01*
X265129D01*
X260179Y128502D02*
X265129D01*
X268729Y133702D02*
X273679D01*
X268729Y128502D02*
X273679D01*
X102699Y190002D02*
X116199D01*
X102699Y184802D02*
Y190002D01*
Y184802D02*
X116199D01*
Y190002D01*
Y211179D02*
Y216379D01*
X102699Y211179D02*
Y216379D01*
X107649D01*
X102699Y211179D02*
X107649D01*
X111249Y216379D02*
X116199D01*
X111249Y211179D02*
X116199D01*
X102699Y223072D02*
X116199D01*
X102699Y217872D02*
Y223072D01*
Y217872D02*
X116199D01*
Y223072D01*
X122991Y194431D02*
X128191D01*
X122991Y207931D02*
X128191D01*
Y202981D02*
Y207931D01*
X122991Y202981D02*
Y207931D01*
X128191Y194431D02*
Y199381D01*
X122991Y194431D02*
Y199381D01*
X116691Y194431D02*
X121891D01*
X116691Y207931D02*
X121891D01*
Y202981D02*
Y207931D01*
X116691Y202981D02*
Y207931D01*
X121891Y194431D02*
Y199381D01*
X116691Y194431D02*
Y199381D01*
X181439Y140395D02*
X194939D01*
X181439Y135195D02*
Y140395D01*
Y135195D02*
X194939D01*
Y140395D01*
X181439Y107324D02*
X194939D01*
X181439Y102124D02*
Y107324D01*
Y102124D02*
X194939D01*
Y107324D01*
Y128502D02*
Y133702D01*
X181439Y128502D02*
Y133702D01*
X186389D01*
X181439Y128502D02*
X186389D01*
X189989Y133702D02*
X194939D01*
X189989Y128502D02*
X194939D01*
X201731Y111754D02*
X206931D01*
X201731Y125254D02*
X206931D01*
Y120304D02*
Y125254D01*
X201731Y120304D02*
Y125254D01*
X206931Y111754D02*
Y116704D01*
X201731Y111754D02*
Y116704D01*
X195431Y111754D02*
X200631D01*
X195431Y125254D02*
X200631D01*
Y120304D02*
Y125254D01*
X195431Y120304D02*
Y125254D01*
X200631Y111754D02*
Y116704D01*
X195431Y111754D02*
Y116704D01*
X102699Y107324D02*
X116199D01*
X102699Y102124D02*
Y107324D01*
Y102124D02*
X116199D01*
Y107324D01*
Y128502D02*
Y133702D01*
X102699Y128502D02*
Y133702D01*
X107649D01*
X102699Y128502D02*
X107649D01*
X111249Y133702D02*
X116199D01*
X111249Y128502D02*
X116199D01*
X102699Y140395D02*
X116199D01*
X102699Y135195D02*
Y140395D01*
Y135195D02*
X116199D01*
Y140395D01*
X122991Y111754D02*
X128191D01*
X122991Y125254D02*
X128191D01*
Y120304D02*
Y125254D01*
X122991Y120304D02*
Y125254D01*
X128191Y111754D02*
Y116704D01*
X122991Y111754D02*
Y116704D01*
X116691Y111754D02*
X121891D01*
X116691Y125254D02*
X121891D01*
Y120304D02*
Y125254D01*
X116691Y120304D02*
Y125254D01*
X121891Y111754D02*
Y116704D01*
X116691Y111754D02*
Y116704D01*
X102700Y57718D02*
X116200D01*
X102700Y52518D02*
Y57718D01*
Y52518D02*
X116200D01*
Y57718D01*
Y45825D02*
Y51025D01*
X102700Y45825D02*
Y51025D01*
X107650D01*
X102700Y45825D02*
X107650D01*
X111250Y51025D02*
X116200D01*
X111250Y45825D02*
X116200D01*
X116693Y29077D02*
X121893D01*
X116693Y42577D02*
X121893D01*
Y37627D02*
Y42577D01*
X116693Y37627D02*
Y42577D01*
X121893Y29077D02*
Y34027D01*
X116693Y29077D02*
Y34027D01*
X122992Y29077D02*
X128192D01*
X122992Y42577D02*
X128192D01*
Y37627D02*
Y42577D01*
X122992Y37627D02*
Y42577D01*
X128192Y29077D02*
Y34027D01*
X122992Y29077D02*
Y34027D01*
X180471Y279864D02*
X185671D01*
X180471D02*
Y293364D01*
X185671D01*
Y279864D02*
Y293364D01*
X193857Y279864D02*
X199057D01*
X193857Y293364D02*
X199057D01*
Y288414D02*
Y293364D01*
X193857Y288414D02*
Y293364D01*
X199057Y279864D02*
Y284814D01*
X193857Y279864D02*
Y284814D01*
X200550Y279864D02*
X205750D01*
X200550Y293364D02*
X205750D01*
Y288414D02*
Y293364D01*
X200550Y288414D02*
Y293364D01*
X205750Y279864D02*
Y284814D01*
X200550Y279864D02*
Y284814D01*
X65904Y289313D02*
X71104D01*
X65904Y302813D02*
X71104D01*
Y297863D02*
Y302813D01*
X65904Y297863D02*
Y302813D01*
X71104Y289313D02*
Y294263D01*
X65904Y289313D02*
Y294263D01*
X44262Y273959D02*
Y281159D01*
X60462Y273959D02*
Y281159D01*
X44262D02*
X49962D01*
X44262Y273959D02*
X49962D01*
X54762Y281159D02*
X60462D01*
X54762Y273959D02*
X60462D01*
X59112Y282046D02*
Y287246D01*
X45612Y282046D02*
Y287246D01*
X50562D01*
X45612Y282046D02*
X50562D01*
X54162Y287246D02*
X59112D01*
X54162Y282046D02*
X59112D01*
X85490Y209211D02*
Y214411D01*
X71990Y209211D02*
Y214411D01*
X76940D01*
X71990Y209211D02*
X76940D01*
X80540Y214411D02*
X85490D01*
X80540Y209211D02*
X85490D01*
X164230D02*
Y214411D01*
X150730Y209211D02*
Y214411D01*
X155680D01*
X150730Y209211D02*
X155680D01*
X159280Y214411D02*
X164230D01*
X159280Y209211D02*
X164230D01*
X242970D02*
Y214411D01*
X229470Y209211D02*
Y214411D01*
X234420D01*
X229470Y209211D02*
X234420D01*
X238020Y214411D02*
X242970D01*
X238020Y209211D02*
X242970D01*
Y126534D02*
Y131734D01*
X229470Y126534D02*
Y131734D01*
X234420D01*
X229470Y126534D02*
X234420D01*
X238020Y131734D02*
X242970D01*
X238020Y126534D02*
X242970D01*
D16*
X147531Y296925D02*
Y299925D01*
X148531Y296925D02*
Y299925D01*
Y298425D02*
X149031D01*
X147031D02*
X147531D01*
Y305587D02*
Y308587D01*
X148531Y305587D02*
Y308587D01*
Y307087D02*
X149031D01*
X147031D02*
X147531D01*
X84146Y296925D02*
Y299925D01*
X85146Y296925D02*
Y299925D01*
Y298425D02*
X85646D01*
X83646D02*
X84146D01*
Y305587D02*
Y308587D01*
X85146Y305587D02*
Y308587D01*
Y307087D02*
X85646D01*
X83646D02*
X84146D01*
X276484Y306693D02*
X276984D01*
X274984D02*
X275484D01*
Y305693D02*
Y307693D01*
X276484Y305693D02*
Y307693D01*
X240551Y59949D02*
Y60449D01*
Y58449D02*
Y58949D01*
X239551D02*
X241551D01*
X239551Y59949D02*
X241551D01*
X275772Y119004D02*
X277772D01*
X275772Y118004D02*
X277772D01*
X276772Y117504D02*
Y118004D01*
Y119004D02*
Y119504D01*
X282071Y119004D02*
X284071D01*
X282071Y118004D02*
X284071D01*
X283071Y117504D02*
Y118004D01*
Y119004D02*
Y119504D01*
X78240Y45457D02*
Y47457D01*
X79240Y45457D02*
Y47457D01*
Y46457D02*
X79740D01*
X77740D02*
X78240D01*
X276772Y36327D02*
Y36827D01*
Y34827D02*
Y35327D01*
X275772Y35327D02*
X277772D01*
X275772Y36327D02*
X277772D01*
X283071D02*
Y36827D01*
Y34827D02*
Y35327D01*
X282071D02*
X284071Y35327D01*
X282071Y36327D02*
X284071D01*
X78240Y128134D02*
Y130134D01*
X79240Y128134D02*
Y130134D01*
Y129134D02*
X79740D01*
X77740D02*
X78240D01*
X156980Y128134D02*
Y130134D01*
X157980Y128134D02*
Y130134D01*
Y129134D02*
X158480D01*
X156480D02*
X156980D01*
X198031Y36327D02*
Y36827D01*
Y34827D02*
Y35327D01*
X197031D02*
X199031D01*
X197031Y36327D02*
X199031D01*
X204331D02*
Y36827D01*
Y34827D02*
Y35327D01*
X203331D02*
X205331D01*
X203331Y36327D02*
X205331D01*
X187189Y48425D02*
X187689D01*
X188689D02*
X189189D01*
X188689Y47425D02*
Y49425D01*
X187689Y47425D02*
Y49425D01*
X235720Y239158D02*
Y241158D01*
X236720Y239158D02*
Y241158D01*
Y240158D02*
X237221D01*
X235221D02*
X235720D01*
X156980Y239158D02*
Y241158D01*
X157980Y239158D02*
Y241158D01*
Y240158D02*
X158480D01*
X156480D02*
X156980D01*
X78240Y239158D02*
Y241158D01*
X79240Y239158D02*
Y241158D01*
Y240158D02*
X79740D01*
X77740D02*
X78240D01*
X235720Y156480D02*
Y158480D01*
X236720Y156480D02*
Y158480D01*
Y157480D02*
X237221D01*
X235221D02*
X235720D01*
X156980Y156480D02*
Y158480D01*
X157980Y156480D02*
Y158480D01*
Y157480D02*
X158480D01*
X156480D02*
X156980D01*
X78240Y156480D02*
Y158480D01*
X79240Y156480D02*
Y158480D01*
Y157480D02*
X79740D01*
X77740D02*
X78240D01*
Y73803D02*
Y75803D01*
X79240Y73803D02*
Y75803D01*
Y74803D02*
X79740D01*
X77740D02*
X78240D01*
X156980Y73803D02*
Y75803D01*
X157980Y73803D02*
Y75803D01*
Y74803D02*
X158480D01*
X156480D02*
X156980D01*
X235720Y73803D02*
Y75803D01*
X236720Y73803D02*
Y75803D01*
Y74803D02*
X237221D01*
X235221D02*
X235720D01*
X156480Y46457D02*
X156980D01*
X157980D02*
X158480D01*
X157980Y45457D02*
Y47457D01*
X156980Y45457D02*
Y47457D01*
X266429Y47425D02*
Y49425D01*
X267429Y47425D02*
Y49425D01*
Y48425D02*
X267929D01*
X265929D02*
X266429D01*
X265929Y213779D02*
X266429D01*
X267429D02*
X267929D01*
X267429Y212779D02*
Y214779D01*
X266429Y212779D02*
Y214779D01*
X283071Y201681D02*
Y202181D01*
Y200181D02*
Y200681D01*
X282071D02*
X284071D01*
X282071Y201681D02*
X284071D01*
X276772D02*
Y202181D01*
Y200181D02*
Y200681D01*
X275772D02*
X277772D01*
X275772Y201681D02*
X277772D01*
X204331D02*
Y202181D01*
Y200181D02*
Y200681D01*
X203331D02*
X205331D01*
X203331Y201681D02*
X205331D01*
X187189Y213779D02*
X187689D01*
X188689D02*
X189189D01*
X188689Y212779D02*
Y214779D01*
X187689Y212779D02*
Y214779D01*
X198031Y201681D02*
Y202181D01*
Y200181D02*
Y200681D01*
X197031D02*
X199031D01*
X197031Y201681D02*
X199031D01*
X265929Y131102D02*
X266429D01*
X267429D02*
X267929D01*
X267429Y130102D02*
Y132102D01*
X266429Y130102D02*
Y132102D01*
X108449Y213779D02*
X108949D01*
X109949D02*
X110449D01*
X109949Y212779D02*
Y214779D01*
X108949Y212779D02*
Y214779D01*
X125591Y201681D02*
Y202181D01*
Y200181D02*
Y200681D01*
X124591D02*
X126591D01*
X124591Y201681D02*
X126591D01*
X119291D02*
Y202181D01*
Y200181D02*
Y200681D01*
X118291D02*
X120291D01*
X118291Y201681D02*
X120291D01*
X187189Y131102D02*
X187689D01*
X188689D02*
X189189D01*
X188689Y130102D02*
Y132102D01*
X187689Y130102D02*
Y132102D01*
X204331Y119004D02*
Y119504D01*
Y117504D02*
Y118004D01*
X203331D02*
X205331D01*
X203331Y119004D02*
X205331D01*
X198031D02*
Y119504D01*
Y117504D02*
Y118004D01*
X197031D02*
X199031D01*
X197031Y119004D02*
X199031D01*
X108449Y131102D02*
X108949D01*
X109949D02*
X110449D01*
X109949Y130102D02*
Y132102D01*
X108949Y130102D02*
Y132102D01*
X125591Y119004D02*
Y119504D01*
Y117504D02*
Y118004D01*
X124591D02*
X126591D01*
X124591Y119004D02*
X126591D01*
X119291D02*
Y119504D01*
Y117504D02*
Y118004D01*
X118291D02*
X120291D01*
X118291Y119004D02*
X120291D01*
X108450Y48425D02*
X108950D01*
X109950D02*
X110450D01*
X109950Y47425D02*
Y49425D01*
X108950Y47425D02*
Y49425D01*
X119293Y36327D02*
Y36827D01*
Y34827D02*
Y35327D01*
X118293D02*
X120293D01*
X118293Y36327D02*
X120293D01*
X125592D02*
Y36827D01*
Y34827D02*
Y35327D01*
X124592D02*
X126592D01*
X124592Y36327D02*
X126592D01*
X196457Y287114D02*
Y287614D01*
Y285614D02*
Y286114D01*
X195457D02*
X197457D01*
X195457Y287114D02*
X197457D01*
X203150D02*
Y287614D01*
Y285614D02*
Y286114D01*
X202150D02*
X204150D01*
X202150Y287114D02*
X204150D01*
X68504Y296563D02*
Y297063D01*
Y295063D02*
Y295563D01*
X67504D02*
X69504D01*
X67504Y296563D02*
X69504D01*
X51362Y277559D02*
X51862D01*
X52862D02*
X53362D01*
X52862Y276059D02*
Y279059D01*
X51862Y276059D02*
Y279059D01*
X51362Y284646D02*
X51862D01*
X52862D02*
X53362D01*
X52862Y283646D02*
Y285646D01*
X51862Y283646D02*
Y285646D01*
X77740Y211811D02*
X78240D01*
X79240D02*
X79740D01*
X79240Y210811D02*
Y212811D01*
X78240Y210811D02*
Y212811D01*
X156480Y211811D02*
X156980D01*
X157980D02*
X158480D01*
X157980Y210811D02*
Y212811D01*
X156980Y210811D02*
Y212811D01*
X235221Y211811D02*
X235720D01*
X236720D02*
X237221D01*
X236720Y210811D02*
Y212811D01*
X235720Y210811D02*
Y212811D01*
X235221Y129134D02*
X235720D01*
X236720D02*
X237221D01*
X236720Y128134D02*
Y130134D01*
X235720Y128134D02*
Y130134D01*
D17*
X272835Y29921D02*
Y41732D01*
X272067Y29921D02*
X272835D01*
X272067Y41732D02*
X272835D01*
X115356Y112598D02*
Y124409D01*
X114588Y112598D02*
X115356D01*
X114588Y124409D02*
X115356D01*
X193327Y41732D02*
X194095D01*
X193327Y29921D02*
X194095D01*
Y41732D01*
X272067Y207087D02*
X272835D01*
X272067Y195276D02*
X272835D01*
Y207087D01*
X193327D02*
X194095D01*
X193327Y195276D02*
X194095D01*
Y207087D01*
X114588D02*
X115356D01*
X114588Y195276D02*
X115356D01*
Y207087D01*
X272067Y124409D02*
X272835D01*
X272067Y112598D02*
X272835D01*
Y124409D01*
X193327D02*
X194095D01*
X193327Y112598D02*
X194095D01*
Y124409D01*
X114588Y41732D02*
X115356D01*
X114588Y29921D02*
X115356D01*
Y41732D01*
D18*
X261024Y29921D02*
Y41732D01*
Y29921D02*
X261791D01*
X261024Y41732D02*
X261791D01*
X103545Y112598D02*
Y124409D01*
Y112598D02*
X104313D01*
X103545Y124409D02*
X104313D01*
X182283Y41732D02*
X183051D01*
X182283Y29921D02*
X183051D01*
X182283D02*
Y41732D01*
X261024Y207087D02*
X261791D01*
X261024Y195276D02*
X261791D01*
X261024D02*
Y207087D01*
X182283D02*
X183051D01*
X182283Y195276D02*
X183051D01*
X182283D02*
Y207087D01*
X103545D02*
X104313D01*
X103545Y195276D02*
X104313D01*
X103545D02*
Y207087D01*
X261024Y124409D02*
X261791D01*
X261024Y112598D02*
X261791D01*
X261024D02*
Y124409D01*
X182283D02*
X183051D01*
X182283Y112598D02*
X183051D01*
X182283D02*
Y124409D01*
X103545Y41732D02*
X104313D01*
X103545Y29921D02*
X104313D01*
X103545D02*
Y41732D01*
D19*
X244882Y30930D02*
X247131D01*
X247581Y31080D01*
X247881Y31380D01*
X248031Y31830D01*
Y32130D01*
X247881Y32580D01*
X247581Y32880D01*
X247131Y33030D01*
X244882D01*
Y34199D02*
Y35849D01*
X246082Y34949D01*
Y35399D01*
X246232Y35699D01*
X246382Y35849D01*
X246832Y35999D01*
X247131D01*
X247581Y35849D01*
X247881Y35549D01*
X248031Y35099D01*
Y34649D01*
X247881Y34199D01*
X247731Y34049D01*
X247431Y33899D01*
X133592Y309842D02*
Y306693D01*
X135392D01*
X135737Y309242D02*
X136037Y309392D01*
X136486Y309842D01*
Y306693D01*
X103877Y241376D02*
X103727Y241676D01*
X103427Y241976D01*
X103127Y242126D01*
X102528D01*
X102228Y241976D01*
X101928Y241676D01*
X101778Y241376D01*
X101628Y240926D01*
Y240176D01*
X101778Y239726D01*
X101928Y239427D01*
X102228Y239127D01*
X102528Y238977D01*
X103127D01*
X103427Y239127D01*
X103727Y239427D01*
X103877Y239726D01*
X104762Y241526D02*
X105062Y241676D01*
X105512Y242126D01*
Y238977D01*
X107071Y241526D02*
X107371Y241676D01*
X107821Y242126D01*
Y238977D01*
X181695Y241376D02*
X181545Y241676D01*
X181245Y241976D01*
X180945Y242126D01*
X180346D01*
X180046Y241976D01*
X179746Y241676D01*
X179596Y241376D01*
X179446Y240926D01*
Y240176D01*
X179596Y239726D01*
X179746Y239427D01*
X180046Y239127D01*
X180346Y238977D01*
X180945D01*
X181245Y239127D01*
X181545Y239427D01*
X181695Y239726D01*
X184079Y242126D02*
X182580Y240026D01*
X184829D01*
X184079Y242126D02*
Y238977D01*
X185534Y241376D02*
Y241526D01*
X185684Y241826D01*
X185834Y241976D01*
X186134Y242126D01*
X186733D01*
X187033Y241976D01*
X187183Y241826D01*
X187333Y241526D01*
Y241226D01*
X187183Y240926D01*
X186883Y240476D01*
X185384Y238977D01*
X187483D01*
X260435Y241376D02*
X260285Y241676D01*
X259985Y241976D01*
X259686Y242126D01*
X259086D01*
X258786Y241976D01*
X258486Y241676D01*
X258336Y241376D01*
X258186Y240926D01*
Y240176D01*
X258336Y239726D01*
X258486Y239427D01*
X258786Y239127D01*
X259086Y238977D01*
X259686D01*
X259985Y239127D01*
X260285Y239427D01*
X260435Y239726D01*
X262820Y242126D02*
X261320Y240026D01*
X263569D01*
X262820Y242126D02*
Y238977D01*
X264424Y242126D02*
X266073D01*
X265174Y240926D01*
X265624D01*
X265924Y240776D01*
X266073Y240626D01*
X266223Y240176D01*
Y239876D01*
X266073Y239427D01*
X265774Y239127D01*
X265324Y238977D01*
X264874D01*
X264424Y239127D01*
X264274Y239277D01*
X264124Y239577D01*
X260435Y158699D02*
X260285Y158999D01*
X259985Y159299D01*
X259686Y159449D01*
X259086D01*
X258786Y159299D01*
X258486Y158999D01*
X258336Y158699D01*
X258186Y158249D01*
Y157499D01*
X258336Y157049D01*
X258486Y156749D01*
X258786Y156449D01*
X259086Y156299D01*
X259686D01*
X259985Y156449D01*
X260285Y156749D01*
X260435Y157049D01*
X263119Y159449D02*
X261620D01*
X261470Y158099D01*
X261620Y158249D01*
X262070Y158399D01*
X262520D01*
X262969Y158249D01*
X263269Y157949D01*
X263419Y157499D01*
Y157199D01*
X263269Y156749D01*
X262969Y156449D01*
X262520Y156299D01*
X262070D01*
X261620Y156449D01*
X261470Y156599D01*
X261320Y156899D01*
X264274Y158699D02*
Y158849D01*
X264424Y159149D01*
X264574Y159299D01*
X264874Y159449D01*
X265474D01*
X265774Y159299D01*
X265924Y159149D01*
X266073Y158849D01*
Y158549D01*
X265924Y158249D01*
X265624Y157799D01*
X264124Y156299D01*
X266223D01*
X181976Y158699D02*
X181826Y158999D01*
X181526Y159299D01*
X181227Y159449D01*
X180627D01*
X180327Y159299D01*
X180027Y158999D01*
X179877Y158699D01*
X179727Y158249D01*
Y157499D01*
X179877Y157049D01*
X180027Y156749D01*
X180327Y156449D01*
X180627Y156299D01*
X181227D01*
X181526Y156449D01*
X181826Y156749D01*
X181976Y157049D01*
X184660Y159449D02*
X183161D01*
X183011Y158099D01*
X183161Y158249D01*
X183611Y158399D01*
X184061D01*
X184510Y158249D01*
X184810Y157949D01*
X184960Y157499D01*
Y157199D01*
X184810Y156749D01*
X184510Y156449D01*
X184061Y156299D01*
X183611D01*
X183161Y156449D01*
X183011Y156599D01*
X182861Y156899D01*
X185665Y158849D02*
X185965Y158999D01*
X186415Y159449D01*
Y156299D01*
X103349Y158699D02*
X103199Y158999D01*
X102899Y159299D01*
X102599Y159449D01*
X101999D01*
X101699Y159299D01*
X101399Y158999D01*
X101249Y158699D01*
X101100Y158249D01*
Y157499D01*
X101249Y157049D01*
X101399Y156749D01*
X101699Y156449D01*
X101999Y156299D01*
X102599D01*
X102899Y156449D01*
X103199Y156749D01*
X103349Y157049D01*
X106033Y159449D02*
X104533D01*
X104383Y158099D01*
X104533Y158249D01*
X104983Y158399D01*
X105433D01*
X105883Y158249D01*
X106183Y157949D01*
X106333Y157499D01*
Y157199D01*
X106183Y156749D01*
X105883Y156449D01*
X105433Y156299D01*
X104983D01*
X104533Y156449D01*
X104383Y156599D01*
X104233Y156899D01*
X107937Y159449D02*
X107487Y159299D01*
X107187Y158849D01*
X107037Y158099D01*
Y157649D01*
X107187Y156899D01*
X107487Y156449D01*
X107937Y156299D01*
X108237D01*
X108687Y156449D01*
X108987Y156899D01*
X109137Y157649D01*
Y158099D01*
X108987Y158849D01*
X108687Y159299D01*
X108237Y159449D01*
X107937D01*
X102636Y75628D02*
X102486Y75928D01*
X102186Y76228D01*
X101886Y76378D01*
X101287D01*
X100987Y76228D01*
X100687Y75928D01*
X100537Y75628D01*
X100387Y75178D01*
Y74428D01*
X100537Y73978D01*
X100687Y73678D01*
X100987Y73379D01*
X101287Y73229D01*
X101886D01*
X102186Y73379D01*
X102486Y73678D01*
X102636Y73978D01*
X105320Y76378D02*
X103821D01*
X103671Y75028D01*
X103821Y75178D01*
X104271Y75328D01*
X104721D01*
X105170Y75178D01*
X105470Y74878D01*
X105620Y74428D01*
Y74128D01*
X105470Y73678D01*
X105170Y73379D01*
X104721Y73229D01*
X104271D01*
X103821Y73379D01*
X103671Y73529D01*
X103521Y73829D01*
X108274Y75328D02*
X108124Y74878D01*
X107825Y74578D01*
X107375Y74428D01*
X107225D01*
X106775Y74578D01*
X106475Y74878D01*
X106325Y75328D01*
Y75478D01*
X106475Y75928D01*
X106775Y76228D01*
X107225Y76378D01*
X107375D01*
X107825Y76228D01*
X108124Y75928D01*
X108274Y75328D01*
Y74578D01*
X108124Y73829D01*
X107825Y73379D01*
X107375Y73229D01*
X107075D01*
X106625Y73379D01*
X106475Y73678D01*
X182565Y75628D02*
X182415Y75928D01*
X182115Y76228D01*
X181815Y76378D01*
X181216D01*
X180916Y76228D01*
X180616Y75928D01*
X180466Y75628D01*
X180316Y75178D01*
Y74428D01*
X180466Y73978D01*
X180616Y73678D01*
X180916Y73379D01*
X181216Y73229D01*
X181815D01*
X182115Y73379D01*
X182415Y73678D01*
X182565Y73978D01*
X185249Y75928D02*
X185099Y76228D01*
X184649Y76378D01*
X184349D01*
X183900Y76228D01*
X183600Y75778D01*
X183450Y75028D01*
Y74278D01*
X183600Y73678D01*
X183900Y73379D01*
X184349Y73229D01*
X184499D01*
X184949Y73379D01*
X185249Y73678D01*
X185399Y74128D01*
Y74278D01*
X185249Y74728D01*
X184949Y75028D01*
X184499Y75178D01*
X184349D01*
X183900Y75028D01*
X183600Y74728D01*
X183450Y74278D01*
X186989Y76378D02*
X186539Y76228D01*
X186239Y75778D01*
X186089Y75028D01*
Y74578D01*
X186239Y73829D01*
X186539Y73379D01*
X186989Y73229D01*
X187288D01*
X187738Y73379D01*
X188038Y73829D01*
X188188Y74578D01*
Y75028D01*
X188038Y75778D01*
X187738Y76228D01*
X187288Y76378D01*
X186989D01*
X260405Y75628D02*
X260255Y75928D01*
X259955Y76228D01*
X259655Y76378D01*
X259056D01*
X258756Y76228D01*
X258456Y75928D01*
X258306Y75628D01*
X258156Y75178D01*
Y74428D01*
X258306Y73978D01*
X258456Y73678D01*
X258756Y73379D01*
X259056Y73229D01*
X259655D01*
X259955Y73379D01*
X260255Y73678D01*
X260405Y73978D01*
X263089Y75928D02*
X262939Y76228D01*
X262489Y76378D01*
X262190D01*
X261740Y76228D01*
X261440Y75778D01*
X261290Y75028D01*
Y74278D01*
X261440Y73678D01*
X261740Y73379D01*
X262190Y73229D01*
X262339D01*
X262789Y73379D01*
X263089Y73678D01*
X263239Y74128D01*
Y74278D01*
X263089Y74728D01*
X262789Y75028D01*
X262339Y75178D01*
X262190D01*
X261740Y75028D01*
X261440Y74728D01*
X261290Y74278D01*
X263929Y75778D02*
X264229Y75928D01*
X264679Y76378D01*
Y73229D01*
X256262Y86813D02*
X255962Y86663D01*
X255662Y86363D01*
X255512Y86063D01*
Y85464D01*
X255662Y85164D01*
X255962Y84864D01*
X256262Y84714D01*
X256712Y84564D01*
X257462D01*
X257911Y84714D01*
X258211Y84864D01*
X258511Y85164D01*
X258661Y85464D01*
Y86063D01*
X258511Y86363D01*
X258211Y86663D01*
X257911Y86813D01*
X255512Y89497D02*
Y87998D01*
X256862Y87848D01*
X256712Y87998D01*
X256562Y88448D01*
Y88898D01*
X256712Y89347D01*
X257012Y89647D01*
X257462Y89797D01*
X257761D01*
X258211Y89647D01*
X258511Y89347D01*
X258661Y88898D01*
Y88448D01*
X258511Y87998D01*
X258361Y87848D01*
X258061Y87698D01*
X255512Y91252D02*
X255662Y90802D01*
X255962Y90652D01*
X256262D01*
X256562Y90802D01*
X256712Y91102D01*
X256862Y91702D01*
X257012Y92151D01*
X257312Y92451D01*
X257611Y92601D01*
X258061D01*
X258361Y92451D01*
X258511Y92301D01*
X258661Y91852D01*
Y91252D01*
X258511Y90802D01*
X258361Y90652D01*
X258061Y90502D01*
X257611D01*
X257312Y90652D01*
X257012Y90952D01*
X256862Y91402D01*
X256712Y92001D01*
X256562Y92301D01*
X256262Y92451D01*
X255962D01*
X255662Y92301D01*
X255512Y91852D01*
Y91252D01*
X76502Y206730D02*
X76352Y207030D01*
X76052Y207330D01*
X75752Y207480D01*
X75152D01*
X74853Y207330D01*
X74553Y207030D01*
X74403Y206730D01*
X74253Y206280D01*
Y205531D01*
X74403Y205081D01*
X74553Y204781D01*
X74853Y204481D01*
X75152Y204331D01*
X75752D01*
X76052Y204481D01*
X76352Y204781D01*
X76502Y205081D01*
X78886Y207480D02*
X77387Y205381D01*
X79636D01*
X78886Y207480D02*
Y204331D01*
X81690Y207480D02*
X80191Y205381D01*
X82440D01*
X81690Y207480D02*
Y204331D01*
X155317Y206336D02*
X155167Y206636D01*
X154867Y206936D01*
X154568Y207086D01*
X153968D01*
X153668Y206936D01*
X153368Y206636D01*
X153218Y206336D01*
X153068Y205887D01*
Y205137D01*
X153218Y204687D01*
X153368Y204387D01*
X153668Y204087D01*
X153968Y203937D01*
X154568D01*
X154867Y204087D01*
X155167Y204387D01*
X155317Y204687D01*
X157701Y207086D02*
X156202Y204987D01*
X158451D01*
X157701Y207086D02*
Y203937D01*
X160805Y207086D02*
X159306D01*
X159156Y205737D01*
X159306Y205887D01*
X159756Y206037D01*
X160205D01*
X160655Y205887D01*
X160955Y205587D01*
X161105Y205137D01*
Y204837D01*
X160955Y204387D01*
X160655Y204087D01*
X160205Y203937D01*
X159756D01*
X159306Y204087D01*
X159156Y204237D01*
X159006Y204537D01*
X234526Y207124D02*
X234376Y207424D01*
X234076Y207724D01*
X233776Y207874D01*
X233176D01*
X232877Y207724D01*
X232577Y207424D01*
X232427Y207124D01*
X232277Y206674D01*
Y205924D01*
X232427Y205474D01*
X232577Y205175D01*
X232877Y204875D01*
X233176Y204725D01*
X233776D01*
X234076Y204875D01*
X234376Y205175D01*
X234526Y205474D01*
X236910Y207874D02*
X235411Y205774D01*
X237660D01*
X236910Y207874D02*
Y204725D01*
X240014Y207424D02*
X239864Y207724D01*
X239414Y207874D01*
X239114D01*
X238665Y207724D01*
X238365Y207274D01*
X238215Y206524D01*
Y205774D01*
X238365Y205175D01*
X238665Y204875D01*
X239114Y204725D01*
X239264D01*
X239714Y204875D01*
X240014Y205175D01*
X240164Y205624D01*
Y205774D01*
X240014Y206224D01*
X239714Y206524D01*
X239264Y206674D01*
X239114D01*
X238665Y206524D01*
X238365Y206224D01*
X238215Y205774D01*
X234451Y124053D02*
X234301Y124353D01*
X234001Y124653D01*
X233701Y124803D01*
X233102D01*
X232802Y124653D01*
X232502Y124353D01*
X232352Y124053D01*
X232202Y123603D01*
Y122854D01*
X232352Y122404D01*
X232502Y122104D01*
X232802Y121804D01*
X233102Y121654D01*
X233701D01*
X234001Y121804D01*
X234301Y122104D01*
X234451Y122404D01*
X237135Y124803D02*
X235636D01*
X235486Y123453D01*
X235636Y123603D01*
X236086Y123753D01*
X236535D01*
X236985Y123603D01*
X237285Y123303D01*
X237435Y122854D01*
Y122554D01*
X237285Y122104D01*
X236985Y121804D01*
X236535Y121654D01*
X236086D01*
X235636Y121804D01*
X235486Y121954D01*
X235336Y122254D01*
X239939Y124803D02*
X238440D01*
X238290Y123453D01*
X238440Y123603D01*
X238890Y123753D01*
X239339D01*
X239789Y123603D01*
X240089Y123303D01*
X240239Y122854D01*
Y122554D01*
X240089Y122104D01*
X239789Y121804D01*
X239339Y121654D01*
X238890D01*
X238440Y121804D01*
X238290Y121954D01*
X238140Y122254D01*
X155636Y124053D02*
X155486Y124353D01*
X155186Y124653D01*
X154886Y124803D01*
X154286D01*
X153987Y124653D01*
X153687Y124353D01*
X153537Y124053D01*
X153387Y123603D01*
Y122854D01*
X153537Y122404D01*
X153687Y122104D01*
X153987Y121804D01*
X154286Y121654D01*
X154886D01*
X155186Y121804D01*
X155486Y122104D01*
X155636Y122404D01*
X158320Y124803D02*
X156821D01*
X156671Y123453D01*
X156821Y123603D01*
X157270Y123753D01*
X157720D01*
X158170Y123603D01*
X158470Y123303D01*
X158620Y122854D01*
Y122554D01*
X158470Y122104D01*
X158170Y121804D01*
X157720Y121654D01*
X157270D01*
X156821Y121804D01*
X156671Y121954D01*
X156521Y122254D01*
X160824Y124803D02*
X159325Y122704D01*
X161574D01*
X160824Y124803D02*
Y121654D01*
X76971Y124053D02*
X76821Y124353D01*
X76521Y124653D01*
X76221Y124803D01*
X75621D01*
X75321Y124653D01*
X75021Y124353D01*
X74871Y124053D01*
X74721Y123603D01*
Y122854D01*
X74871Y122404D01*
X75021Y122104D01*
X75321Y121804D01*
X75621Y121654D01*
X76221D01*
X76521Y121804D01*
X76821Y122104D01*
X76971Y122404D01*
X79655Y124803D02*
X78155D01*
X78005Y123453D01*
X78155Y123603D01*
X78605Y123753D01*
X79055D01*
X79505Y123603D01*
X79805Y123303D01*
X79955Y122854D01*
Y122554D01*
X79805Y122104D01*
X79505Y121804D01*
X79055Y121654D01*
X78605D01*
X78155Y121804D01*
X78005Y121954D01*
X77855Y122254D01*
X80959Y124803D02*
X82609D01*
X81709Y123603D01*
X82159D01*
X82459Y123453D01*
X82609Y123303D01*
X82759Y122854D01*
Y122554D01*
X82609Y122104D01*
X82309Y121804D01*
X81859Y121654D01*
X81409D01*
X80959Y121804D01*
X80809Y121954D01*
X80660Y122254D01*
X77053Y41376D02*
X76903Y41676D01*
X76603Y41976D01*
X76303Y42126D01*
X75704D01*
X75404Y41976D01*
X75104Y41676D01*
X74954Y41376D01*
X74804Y40926D01*
Y40176D01*
X74954Y39726D01*
X75104Y39427D01*
X75404Y39127D01*
X75704Y38977D01*
X76303D01*
X76603Y39127D01*
X76903Y39427D01*
X77053Y39726D01*
X79737Y41676D02*
X79587Y41976D01*
X79137Y42126D01*
X78838D01*
X78388Y41976D01*
X78088Y41526D01*
X77938Y40776D01*
Y40026D01*
X78088Y39427D01*
X78388Y39127D01*
X78838Y38977D01*
X78988D01*
X79437Y39127D01*
X79737Y39427D01*
X79887Y39876D01*
Y40026D01*
X79737Y40476D01*
X79437Y40776D01*
X78988Y40926D01*
X78838D01*
X78388Y40776D01*
X78088Y40476D01*
X77938Y40026D01*
X80727Y41376D02*
Y41526D01*
X80877Y41826D01*
X81027Y41976D01*
X81327Y42126D01*
X81927D01*
X82227Y41976D01*
X82376Y41826D01*
X82526Y41526D01*
Y41226D01*
X82376Y40926D01*
X82077Y40476D01*
X80577Y38977D01*
X82676D01*
X154219Y40982D02*
X154069Y41282D01*
X153769Y41582D01*
X153469Y41732D01*
X152869D01*
X152569Y41582D01*
X152269Y41282D01*
X152119Y40982D01*
X151969Y40532D01*
Y39783D01*
X152119Y39333D01*
X152269Y39033D01*
X152569Y38733D01*
X152869Y38583D01*
X153469D01*
X153769Y38733D01*
X154069Y39033D01*
X154219Y39333D01*
X156903Y41282D02*
X156753Y41582D01*
X156303Y41732D01*
X156003D01*
X155553Y41582D01*
X155253Y41132D01*
X155103Y40382D01*
Y39633D01*
X155253Y39033D01*
X155553Y38733D01*
X156003Y38583D01*
X156153D01*
X156603Y38733D01*
X156903Y39033D01*
X157053Y39483D01*
Y39633D01*
X156903Y40082D01*
X156603Y40382D01*
X156153Y40532D01*
X156003D01*
X155553Y40382D01*
X155253Y40082D01*
X155103Y39633D01*
X158042Y41732D02*
X159692D01*
X158792Y40532D01*
X159242D01*
X159542Y40382D01*
X159692Y40233D01*
X159842Y39783D01*
Y39483D01*
X159692Y39033D01*
X159392Y38733D01*
X158942Y38583D01*
X158492D01*
X158042Y38733D01*
X157892Y38883D01*
X157742Y39183D01*
X98819Y198167D02*
X101068D01*
X101518Y198317D01*
X101818Y198617D01*
X101968Y199067D01*
Y199367D01*
X101818Y199817D01*
X101518Y200116D01*
X101068Y200266D01*
X98819D01*
X99419Y201136D02*
X99269Y201436D01*
X98819Y201886D01*
X101968D01*
X99419Y203445D02*
X99269Y203745D01*
X98819Y204195D01*
X101968D01*
X177953Y197492D02*
X180202D01*
X180652Y197642D01*
X180952Y197942D01*
X181102Y198392D01*
Y198692D01*
X180952Y199142D01*
X180652Y199442D01*
X180202Y199592D01*
X177953D01*
X178553Y200461D02*
X178403Y200761D01*
X177953Y201211D01*
X181102D01*
X177953Y203670D02*
X178103Y203220D01*
X178553Y202921D01*
X179303Y202771D01*
X179753D01*
X180502Y202921D01*
X180952Y203220D01*
X181102Y203670D01*
Y203970D01*
X180952Y204420D01*
X180502Y204720D01*
X179753Y204870D01*
X179303D01*
X178553Y204720D01*
X178103Y204420D01*
X177953Y203970D01*
Y203670D01*
X256692Y198722D02*
X258941D01*
X259391Y198872D01*
X259691Y199172D01*
X259841Y199622D01*
Y199922D01*
X259691Y200371D01*
X259391Y200671D01*
X258941Y200821D01*
X256692D01*
X257741Y203640D02*
X258191Y203490D01*
X258491Y203190D01*
X258641Y202741D01*
Y202591D01*
X258491Y202141D01*
X258191Y201841D01*
X257741Y201691D01*
X257591D01*
X257142Y201841D01*
X256842Y202141D01*
X256692Y202591D01*
Y202741D01*
X256842Y203190D01*
X257142Y203490D01*
X257741Y203640D01*
X258491D01*
X259241Y203490D01*
X259691Y203190D01*
X259841Y202741D01*
Y202441D01*
X259691Y201991D01*
X259391Y201841D01*
X256298Y115576D02*
X258547D01*
X258997Y115726D01*
X259297Y116026D01*
X259447Y116476D01*
Y116776D01*
X259297Y117226D01*
X258997Y117525D01*
X258547Y117675D01*
X256298D01*
Y119295D02*
X256448Y118845D01*
X256748Y118695D01*
X257048D01*
X257348Y118845D01*
X257498Y119145D01*
X257648Y119745D01*
X257798Y120194D01*
X258097Y120494D01*
X258397Y120644D01*
X258847D01*
X259147Y120494D01*
X259297Y120344D01*
X259447Y119895D01*
Y119295D01*
X259297Y118845D01*
X259147Y118695D01*
X258847Y118545D01*
X258397D01*
X258097Y118695D01*
X257798Y118995D01*
X257648Y119445D01*
X257498Y120045D01*
X257348Y120344D01*
X257048Y120494D01*
X256748D01*
X256448Y120344D01*
X256298Y119895D01*
Y119295D01*
X177953Y116364D02*
X180202D01*
X180652Y116513D01*
X180952Y116813D01*
X181102Y117263D01*
Y117563D01*
X180952Y118013D01*
X180652Y118313D01*
X180202Y118463D01*
X177953D01*
Y121432D02*
X181102Y119932D01*
X177953Y119333D02*
Y121432D01*
X99214Y116045D02*
X101464D01*
X101913Y116195D01*
X102213Y116495D01*
X102363Y116945D01*
Y117244D01*
X102213Y117694D01*
X101913Y117994D01*
X101464Y118144D01*
X99214D01*
X99664Y120813D02*
X99364Y120663D01*
X99214Y120213D01*
Y119913D01*
X99364Y119464D01*
X99814Y119164D01*
X100564Y119014D01*
X101314D01*
X101913Y119164D01*
X102213Y119464D01*
X102363Y119913D01*
Y120063D01*
X102213Y120513D01*
X101913Y120813D01*
X101464Y120963D01*
X101314D01*
X100864Y120813D01*
X100564Y120513D01*
X100414Y120063D01*
Y119913D01*
X100564Y119464D01*
X100864Y119164D01*
X101314Y119014D01*
X98426Y33293D02*
X100675D01*
X101125Y33443D01*
X101425Y33742D01*
X101575Y34192D01*
Y34492D01*
X101425Y34942D01*
X101125Y35242D01*
X100675Y35392D01*
X98426D01*
Y38061D02*
Y36562D01*
X99775Y36412D01*
X99625Y36562D01*
X99475Y37011D01*
Y37461D01*
X99625Y37911D01*
X99925Y38211D01*
X100375Y38361D01*
X100675D01*
X101125Y38211D01*
X101425Y37911D01*
X101575Y37461D01*
Y37011D01*
X101425Y36562D01*
X101275Y36412D01*
X100975Y36262D01*
X177559Y33218D02*
X179809D01*
X180259Y33368D01*
X180558Y33667D01*
X180708Y34117D01*
Y34417D01*
X180558Y34867D01*
X180259Y35167D01*
X179809Y35317D01*
X177559D01*
Y37686D02*
X179659Y36187D01*
Y38436D01*
X177559Y37686D02*
X180708D01*
X210064Y281102D02*
Y278853D01*
X210214Y278403D01*
X210514Y278103D01*
X210964Y277953D01*
X211264D01*
X211714Y278103D01*
X212014Y278403D01*
X212164Y278853D01*
Y281102D01*
X213183Y280352D02*
Y280502D01*
X213333Y280802D01*
X213483Y280952D01*
X213783Y281102D01*
X214383D01*
X214683Y280952D01*
X214833Y280802D01*
X214983Y280502D01*
Y280202D01*
X214833Y279902D01*
X214533Y279453D01*
X213033Y277953D01*
X215133D01*
X61024Y283967D02*
X63273D01*
X63723Y284117D01*
X64023Y284417D01*
X64173Y284867D01*
Y285167D01*
X64023Y285617D01*
X63723Y285917D01*
X63273Y286067D01*
X61024D01*
X61624Y286936D02*
X61474Y287236D01*
X61024Y287686D01*
X64173D01*
X105595Y183071D02*
Y179922D01*
Y183071D02*
X106945D01*
X107395Y182921D01*
X107545Y182771D01*
X107694Y182471D01*
Y182171D01*
X107545Y181871D01*
X107395Y181721D01*
X106945Y181571D01*
X105595D01*
X106645D02*
X107694Y179922D01*
X108549Y182321D02*
Y182471D01*
X108699Y182771D01*
X108849Y182921D01*
X109149Y183071D01*
X109749D01*
X110049Y182921D01*
X110199Y182771D01*
X110348Y182471D01*
Y182171D01*
X110199Y181871D01*
X109899Y181421D01*
X108399Y179922D01*
X110498D01*
X113303Y183071D02*
X111803Y179922D01*
X111203Y183071D02*
X113303D01*
X184410Y183464D02*
Y180315D01*
Y183464D02*
X185760D01*
X186210Y183314D01*
X186360Y183164D01*
X186510Y182864D01*
Y182564D01*
X186360Y182265D01*
X186210Y182115D01*
X185760Y181965D01*
X184410D01*
X185460D02*
X186510Y180315D01*
X187364Y182714D02*
Y182864D01*
X187514Y183164D01*
X187664Y183314D01*
X187964Y183464D01*
X188564D01*
X188864Y183314D01*
X189014Y183164D01*
X189164Y182864D01*
Y182564D01*
X189014Y182265D01*
X188714Y181815D01*
X187214Y180315D01*
X189314D01*
X191818Y183014D02*
X191668Y183314D01*
X191218Y183464D01*
X190918D01*
X190468Y183314D01*
X190168Y182864D01*
X190018Y182115D01*
Y181365D01*
X190168Y180765D01*
X190468Y180465D01*
X190918Y180315D01*
X191068D01*
X191518Y180465D01*
X191818Y180765D01*
X191968Y181215D01*
Y181365D01*
X191818Y181815D01*
X191518Y182115D01*
X191068Y182265D01*
X190918D01*
X190468Y182115D01*
X190168Y181815D01*
X190018Y181365D01*
X263075Y183071D02*
Y179922D01*
Y183071D02*
X264425D01*
X264875Y182921D01*
X265025Y182771D01*
X265175Y182471D01*
Y182171D01*
X265025Y181871D01*
X264875Y181721D01*
X264425Y181571D01*
X263075D01*
X264125D02*
X265175Y179922D01*
X266029Y182321D02*
Y182471D01*
X266179Y182771D01*
X266329Y182921D01*
X266629Y183071D01*
X267229D01*
X267529Y182921D01*
X267679Y182771D01*
X267829Y182471D01*
Y182171D01*
X267679Y181871D01*
X267379Y181421D01*
X265880Y179922D01*
X267979D01*
X270483Y183071D02*
X268983D01*
X268833Y181721D01*
X268983Y181871D01*
X269433Y182021D01*
X269883D01*
X270333Y181871D01*
X270633Y181571D01*
X270783Y181121D01*
Y180821D01*
X270633Y180371D01*
X270333Y180072D01*
X269883Y179922D01*
X269433D01*
X268983Y180072D01*
X268833Y180221D01*
X268684Y180521D01*
X117725Y222047D02*
Y218898D01*
Y222047D02*
X119074D01*
X119524Y221897D01*
X119674Y221747D01*
X119824Y221447D01*
Y221147D01*
X119674Y220847D01*
X119524Y220697D01*
X119074Y220547D01*
X117725D01*
X118774D02*
X119824Y218898D01*
X120679Y221297D02*
Y221447D01*
X120829Y221747D01*
X120979Y221897D01*
X121279Y222047D01*
X121879D01*
X122178Y221897D01*
X122328Y221747D01*
X122478Y221447D01*
Y221147D01*
X122328Y220847D01*
X122028Y220397D01*
X120529Y218898D01*
X122628D01*
X124832Y222047D02*
X123333Y219948D01*
X125582D01*
X124832Y222047D02*
Y218898D01*
X196146Y221653D02*
Y218504D01*
Y221653D02*
X197496D01*
X197946Y221503D01*
X198096Y221353D01*
X198246Y221053D01*
Y220754D01*
X198096Y220454D01*
X197946Y220304D01*
X197496Y220154D01*
X196146D01*
X197196D02*
X198246Y218504D01*
X199100Y220903D02*
Y221053D01*
X199250Y221353D01*
X199400Y221503D01*
X199700Y221653D01*
X200300D01*
X200600Y221503D01*
X200750Y221353D01*
X200900Y221053D01*
Y220754D01*
X200750Y220454D01*
X200450Y220004D01*
X198950Y218504D01*
X201050D01*
X202054Y221653D02*
X203704D01*
X202804Y220454D01*
X203254D01*
X203554Y220304D01*
X203704Y220154D01*
X203854Y219704D01*
Y219404D01*
X203704Y218954D01*
X203404Y218654D01*
X202954Y218504D01*
X202504D01*
X202054Y218654D01*
X201904Y218804D01*
X201754Y219104D01*
X274886Y222047D02*
Y218898D01*
Y222047D02*
X276236D01*
X276686Y221897D01*
X276836Y221747D01*
X276986Y221447D01*
Y221147D01*
X276836Y220847D01*
X276686Y220697D01*
X276236Y220547D01*
X274886D01*
X275936D02*
X276986Y218898D01*
X277840Y221297D02*
Y221447D01*
X277990Y221747D01*
X278140Y221897D01*
X278440Y222047D01*
X279040D01*
X279340Y221897D01*
X279490Y221747D01*
X279640Y221447D01*
Y221147D01*
X279490Y220847D01*
X279190Y220397D01*
X277691Y218898D01*
X279790D01*
X280644Y221297D02*
Y221447D01*
X280795Y221747D01*
X280944Y221897D01*
X281244Y222047D01*
X281844D01*
X282144Y221897D01*
X282294Y221747D01*
X282444Y221447D01*
Y221147D01*
X282294Y220847D01*
X281994Y220397D01*
X280495Y218898D01*
X282594D01*
X263750Y100787D02*
Y97638D01*
Y100787D02*
X265100D01*
X265550Y100637D01*
X265700Y100487D01*
X265849Y100187D01*
Y99887D01*
X265700Y99588D01*
X265550Y99437D01*
X265100Y99288D01*
X263750D01*
X264800D02*
X265849Y97638D01*
X266704Y100037D02*
Y100187D01*
X266854Y100487D01*
X267004Y100637D01*
X267304Y100787D01*
X267904D01*
X268204Y100637D01*
X268354Y100487D01*
X268504Y100187D01*
Y99887D01*
X268354Y99588D01*
X268054Y99138D01*
X266554Y97638D01*
X268653D01*
X269358Y100187D02*
X269658Y100337D01*
X270108Y100787D01*
Y97638D01*
X184335Y100787D02*
Y97638D01*
Y100787D02*
X185685D01*
X186135Y100637D01*
X186285Y100487D01*
X186435Y100187D01*
Y99887D01*
X186285Y99588D01*
X186135Y99437D01*
X185685Y99288D01*
X184335D01*
X185385D02*
X186435Y97638D01*
X187289Y100037D02*
Y100187D01*
X187439Y100487D01*
X187589Y100637D01*
X187889Y100787D01*
X188489D01*
X188789Y100637D01*
X188939Y100487D01*
X189089Y100187D01*
Y99887D01*
X188939Y99588D01*
X188639Y99138D01*
X187139Y97638D01*
X189239D01*
X190843Y100787D02*
X190393Y100637D01*
X190093Y100187D01*
X189943Y99437D01*
Y98988D01*
X190093Y98238D01*
X190393Y97788D01*
X190843Y97638D01*
X191143D01*
X191593Y97788D01*
X191893Y98238D01*
X192043Y98988D01*
Y99437D01*
X191893Y100187D01*
X191593Y100637D01*
X191143Y100787D01*
X190843D01*
X105918Y100393D02*
Y97244D01*
Y100393D02*
X107267D01*
X107717Y100243D01*
X107867Y100093D01*
X108017Y99794D01*
Y99494D01*
X107867Y99194D01*
X107717Y99044D01*
X107267Y98894D01*
X105918D01*
X106967D02*
X108017Y97244D01*
X108722Y99794D02*
X109021Y99944D01*
X109471Y100393D01*
Y97244D01*
X112980Y99344D02*
X112830Y98894D01*
X112530Y98594D01*
X112080Y98444D01*
X111931D01*
X111481Y98594D01*
X111181Y98894D01*
X111031Y99344D01*
Y99494D01*
X111181Y99944D01*
X111481Y100243D01*
X111931Y100393D01*
X112080D01*
X112530Y100243D01*
X112830Y99944D01*
X112980Y99344D01*
Y98594D01*
X112830Y97844D01*
X112530Y97394D01*
X112080Y97244D01*
X111781D01*
X111331Y97394D01*
X111181Y97694D01*
X275134Y139370D02*
Y136221D01*
Y139370D02*
X276483D01*
X276933Y139220D01*
X277083Y139070D01*
X277233Y138770D01*
Y138470D01*
X277083Y138170D01*
X276933Y138020D01*
X276483Y137870D01*
X275134D01*
X276184D02*
X277233Y136221D01*
X277938Y138770D02*
X278238Y138920D01*
X278688Y139370D01*
Y136221D01*
X280997Y139370D02*
X280547Y139220D01*
X280397Y138920D01*
Y138620D01*
X280547Y138320D01*
X280847Y138170D01*
X281447Y138020D01*
X281897Y137870D01*
X282196Y137570D01*
X282346Y137270D01*
Y136821D01*
X282196Y136521D01*
X282047Y136371D01*
X281597Y136221D01*
X280997D01*
X280547Y136371D01*
X280397Y136521D01*
X280247Y136821D01*
Y137270D01*
X280397Y137570D01*
X280697Y137870D01*
X281147Y138020D01*
X281747Y138170D01*
X282047Y138320D01*
X282196Y138620D01*
Y138920D01*
X282047Y139220D01*
X281597Y139370D01*
X280997D01*
X196787Y138976D02*
Y135827D01*
Y138976D02*
X198137D01*
X198587Y138826D01*
X198737Y138676D01*
X198887Y138376D01*
Y138076D01*
X198737Y137776D01*
X198587Y137627D01*
X198137Y137477D01*
X196787D01*
X197837D02*
X198887Y135827D01*
X199592Y138376D02*
X199891Y138526D01*
X200341Y138976D01*
Y135827D01*
X204000Y138976D02*
X202501Y135827D01*
X201901Y138976D02*
X204000D01*
X118516Y139370D02*
Y136221D01*
Y139370D02*
X119866D01*
X120315Y139220D01*
X120465Y139070D01*
X120615Y138770D01*
Y138470D01*
X120465Y138170D01*
X120315Y138020D01*
X119866Y137870D01*
X118516D01*
X119566D02*
X120615Y136221D01*
X121320Y138770D02*
X121620Y138920D01*
X122070Y139370D01*
Y136221D01*
X125429Y138920D02*
X125279Y139220D01*
X124829Y139370D01*
X124529D01*
X124079Y139220D01*
X123779Y138770D01*
X123629Y138020D01*
Y137270D01*
X123779Y136671D01*
X124079Y136371D01*
X124529Y136221D01*
X124679D01*
X125129Y136371D01*
X125429Y136671D01*
X125578Y137120D01*
Y137270D01*
X125429Y137720D01*
X125129Y138020D01*
X124679Y138170D01*
X124529D01*
X124079Y138020D01*
X123779Y137720D01*
X123629Y137270D01*
X113055Y14567D02*
Y17716D01*
Y14567D02*
X111706D01*
X111256Y14717D01*
X111106Y14867D01*
X110956Y15167D01*
Y15467D01*
X111106Y15767D01*
X111256Y15917D01*
X111706Y16067D01*
X113055D01*
X112005D02*
X110956Y17716D01*
X110251Y15167D02*
X109951Y15017D01*
X109501Y14567D01*
Y17716D01*
X106142Y14567D02*
X107642D01*
X107792Y15917D01*
X107642Y15767D01*
X107192Y15617D01*
X106742D01*
X106292Y15767D01*
X105992Y16067D01*
X105842Y16517D01*
Y16816D01*
X105992Y17266D01*
X106292Y17566D01*
X106742Y17716D01*
X107192D01*
X107642Y17566D01*
X107792Y17416D01*
X107942Y17116D01*
X184508Y18110D02*
Y14961D01*
Y18110D02*
X185857D01*
X186307Y17960D01*
X186457Y17810D01*
X186607Y17510D01*
Y17210D01*
X186457Y16910D01*
X186307Y16760D01*
X185857Y16610D01*
X184508D01*
X185557D02*
X186607Y14961D01*
X187312Y17510D02*
X187612Y17660D01*
X188061Y18110D01*
Y14961D01*
X191121Y18110D02*
X189621Y16011D01*
X191870D01*
X191121Y18110D02*
Y14961D01*
X262929Y17716D02*
Y14567D01*
Y17716D02*
X264279D01*
X264728Y17566D01*
X264879Y17416D01*
X265028Y17116D01*
Y16816D01*
X264879Y16517D01*
X264728Y16367D01*
X264279Y16217D01*
X262929D01*
X263979D02*
X265028Y14567D01*
X265733Y17116D02*
X266033Y17266D01*
X266483Y17716D01*
Y14567D01*
X268342Y17716D02*
X269992D01*
X269092Y16517D01*
X269542D01*
X269842Y16367D01*
X269992Y16217D01*
X270142Y15767D01*
Y15467D01*
X269992Y15017D01*
X269692Y14717D01*
X269242Y14567D01*
X268792D01*
X268342Y14717D01*
X268192Y14867D01*
X268042Y15167D01*
X118047Y56299D02*
Y53150D01*
Y56299D02*
X119397D01*
X119847Y56149D01*
X119997Y55999D01*
X120147Y55699D01*
Y55399D01*
X119997Y55099D01*
X119847Y54949D01*
X119397Y54799D01*
X118047D01*
X119097D02*
X120147Y53150D01*
X120851Y55699D02*
X121151Y55849D01*
X121601Y56299D01*
Y53150D01*
X123310Y55549D02*
Y55699D01*
X123460Y55999D01*
X123610Y56149D01*
X123910Y56299D01*
X124510D01*
X124810Y56149D01*
X124960Y55999D01*
X125110Y55699D01*
Y55399D01*
X124960Y55099D01*
X124660Y54649D01*
X123161Y53150D01*
X125260D01*
X196675Y56693D02*
Y53544D01*
Y56693D02*
X198024D01*
X198474Y56543D01*
X198624Y56393D01*
X198774Y56093D01*
Y55793D01*
X198624Y55493D01*
X198474Y55343D01*
X198024Y55193D01*
X196675D01*
X197724D02*
X198774Y53544D01*
X199479Y56093D02*
X199779Y56243D01*
X200229Y56693D01*
Y53544D01*
X201788Y56093D02*
X202088Y56243D01*
X202538Y56693D01*
Y53544D01*
X240094Y40944D02*
Y37796D01*
Y40944D02*
X241444D01*
X241894Y40795D01*
X242044Y40645D01*
X242194Y40345D01*
Y40045D01*
X242044Y39745D01*
X241894Y39595D01*
X241444Y39445D01*
X240094D01*
X241144D02*
X242194Y37796D01*
X242899Y40345D02*
X243198Y40495D01*
X243648Y40944D01*
Y37796D01*
X246108Y40944D02*
X245658Y40795D01*
X245358Y40345D01*
X245208Y39595D01*
Y39145D01*
X245358Y38395D01*
X245658Y37946D01*
X246108Y37796D01*
X246407D01*
X246857Y37946D01*
X247157Y38395D01*
X247307Y39145D01*
Y39595D01*
X247157Y40345D01*
X246857Y40795D01*
X246407Y40944D01*
X246108D01*
X188189Y272427D02*
X191338D01*
X188189D02*
Y273776D01*
X188339Y274226D01*
X188489Y274376D01*
X188789Y274526D01*
X189089D01*
X189389Y274376D01*
X189539Y274226D01*
X189689Y273776D01*
Y272427D01*
Y273476D02*
X191338Y274526D01*
X189239Y277180D02*
X189689Y277030D01*
X189989Y276730D01*
X190139Y276280D01*
Y276130D01*
X189989Y275680D01*
X189689Y275380D01*
X189239Y275231D01*
X189089D01*
X188639Y275380D01*
X188339Y275680D01*
X188189Y276130D01*
Y276280D01*
X188339Y276730D01*
X188639Y277030D01*
X189239Y277180D01*
X189989D01*
X190738Y277030D01*
X191188Y276730D01*
X191338Y276280D01*
Y275980D01*
X191188Y275530D01*
X190888Y275380D01*
X256210Y302756D02*
Y299607D01*
Y302756D02*
X257559D01*
X258009Y302606D01*
X258159Y302456D01*
X258309Y302156D01*
Y301856D01*
X258159Y301556D01*
X258009Y301406D01*
X257559Y301256D01*
X256210D01*
X257259D02*
X258309Y299607D01*
X261113Y302756D02*
X259614Y299607D01*
X259014Y302756D02*
X261113D01*
X26378Y306135D02*
X29527D01*
X26378D02*
Y307484D01*
X26528Y307934D01*
X26678Y308084D01*
X26978Y308234D01*
X27278D01*
X27578Y308084D01*
X27728Y307934D01*
X27878Y307484D01*
Y306135D01*
Y307184D02*
X29527Y308234D01*
X26378Y310438D02*
X28478Y308939D01*
Y311188D01*
X26378Y310438D02*
X29527D01*
X33375Y287795D02*
Y284646D01*
Y287795D02*
X34725D01*
X35175Y287645D01*
X35324Y287495D01*
X35474Y287195D01*
Y286895D01*
X35324Y286595D01*
X35175Y286445D01*
X34725Y286295D01*
X33375D01*
X34425D02*
X35474Y284646D01*
X36479Y287795D02*
X38129D01*
X37229Y286595D01*
X37679D01*
X37979Y286445D01*
X38129Y286295D01*
X38278Y285846D01*
Y285546D01*
X38129Y285096D01*
X37829Y284796D01*
X37379Y284646D01*
X36929D01*
X36479Y284796D01*
X36329Y284946D01*
X36179Y285246D01*
X31103Y306210D02*
X34252D01*
X31103D02*
Y307559D01*
X31253Y308009D01*
X31403Y308159D01*
X31703Y308309D01*
X32002D01*
X32302Y308159D01*
X32452Y308009D01*
X32602Y307559D01*
Y306210D01*
Y307259D02*
X34252Y308309D01*
X31852Y309164D02*
X31703D01*
X31403Y309314D01*
X31253Y309464D01*
X31103Y309764D01*
Y310363D01*
X31253Y310663D01*
X31403Y310813D01*
X31703Y310963D01*
X32002D01*
X32302Y310813D01*
X32752Y310513D01*
X34252Y309014D01*
Y311113D01*
X65748Y306097D02*
X68897D01*
X65748D02*
Y307447D01*
X65898Y307896D01*
X66048Y308047D01*
X66348Y308196D01*
X66648D01*
X66948Y308047D01*
X67098Y307896D01*
X67248Y307447D01*
Y306097D01*
Y307147D02*
X68897Y308196D01*
X66348Y308901D02*
X66198Y309201D01*
X65748Y309651D01*
X68897D01*
X94339Y222719D02*
X94489Y222419D01*
X94788Y222119D01*
X95088Y221969D01*
X95538Y221819D01*
X96288D01*
X96738Y221969D01*
X97038Y222119D01*
X97338Y222419D01*
X97487Y222719D01*
Y223319D01*
X97338Y223619D01*
X97038Y223919D01*
X96738Y224069D01*
X96288Y224219D01*
X95538D01*
X95088Y224069D01*
X94788Y223919D01*
X94489Y223619D01*
X94339Y223319D01*
Y222719D01*
X96888Y223169D02*
X97787Y224069D01*
X94938Y224953D02*
X94788Y225253D01*
X94339Y225703D01*
X97487D01*
X94339Y229362D02*
X97487Y227862D01*
X94339Y227262D02*
Y229362D01*
X59693Y221810D02*
X59843Y221510D01*
X60143Y221210D01*
X60443Y221060D01*
X60892Y220910D01*
X61642D01*
X62092Y221060D01*
X62392Y221210D01*
X62692Y221510D01*
X62842Y221810D01*
Y222410D01*
X62692Y222709D01*
X62392Y223009D01*
X62092Y223159D01*
X61642Y223309D01*
X60892D01*
X60443Y223159D01*
X60143Y223009D01*
X59843Y222709D01*
X59693Y222410D01*
Y221810D01*
X62242Y222260D02*
X63142Y223159D01*
X60293Y224044D02*
X60143Y224344D01*
X59693Y224794D01*
X62842D01*
X60143Y228153D02*
X59843Y228003D01*
X59693Y227553D01*
Y227253D01*
X59843Y226803D01*
X60293Y226503D01*
X61042Y226353D01*
X61792D01*
X62392Y226503D01*
X62692Y226803D01*
X62842Y227253D01*
Y227403D01*
X62692Y227853D01*
X62392Y228153D01*
X61942Y228303D01*
X61792D01*
X61342Y228153D01*
X61042Y227853D01*
X60892Y227403D01*
Y227253D01*
X61042Y226803D01*
X61342Y226503D01*
X61792Y226353D01*
X138433Y222325D02*
X138583Y222025D01*
X138883Y221726D01*
X139183Y221576D01*
X139633Y221426D01*
X140382D01*
X140832Y221576D01*
X141132Y221726D01*
X141432Y222025D01*
X141582Y222325D01*
Y222925D01*
X141432Y223225D01*
X141132Y223525D01*
X140832Y223675D01*
X140382Y223825D01*
X139633D01*
X139183Y223675D01*
X138883Y223525D01*
X138583Y223225D01*
X138433Y222925D01*
Y222325D01*
X140982Y222775D02*
X141882Y223675D01*
X139033Y224560D02*
X138883Y224859D01*
X138433Y225309D01*
X141582D01*
X138433Y228668D02*
Y227169D01*
X139783Y227019D01*
X139633Y227169D01*
X139483Y227619D01*
Y228068D01*
X139633Y228518D01*
X139933Y228818D01*
X140382Y228968D01*
X140682D01*
X141132Y228818D01*
X141432Y228518D01*
X141582Y228068D01*
Y227619D01*
X141432Y227169D01*
X141282Y227019D01*
X140982Y226869D01*
X173079Y222250D02*
X173229Y221951D01*
X173529Y221651D01*
X173828Y221501D01*
X174278Y221351D01*
X175028D01*
X175478Y221501D01*
X175778Y221651D01*
X176078Y221951D01*
X176228Y222250D01*
Y222850D01*
X176078Y223150D01*
X175778Y223450D01*
X175478Y223600D01*
X175028Y223750D01*
X174278D01*
X173828Y223600D01*
X173529Y223450D01*
X173229Y223150D01*
X173079Y222850D01*
Y222250D01*
X175628Y222700D02*
X176528Y223600D01*
X173679Y224485D02*
X173529Y224784D01*
X173079Y225234D01*
X176228D01*
X173079Y228293D02*
X175178Y226794D01*
Y229043D01*
X173079Y228293D02*
X176228D01*
X251819Y221735D02*
X251969Y221435D01*
X252269Y221135D01*
X252569Y220985D01*
X253018Y220835D01*
X253768D01*
X254218Y220985D01*
X254518Y221135D01*
X254818Y221435D01*
X254968Y221735D01*
Y222335D01*
X254818Y222635D01*
X254518Y222934D01*
X254218Y223084D01*
X253768Y223234D01*
X253018D01*
X252569Y223084D01*
X252269Y222934D01*
X251969Y222635D01*
X251819Y222335D01*
Y221735D01*
X254368Y222185D02*
X255268Y223084D01*
X252419Y223969D02*
X252269Y224269D01*
X251819Y224719D01*
X254968D01*
X251819Y226578D02*
Y228228D01*
X253018Y227328D01*
Y227778D01*
X253168Y228078D01*
X253318Y228228D01*
X253768Y228378D01*
X254068D01*
X254518Y228228D01*
X254818Y227928D01*
X254968Y227478D01*
Y227028D01*
X254818Y226578D01*
X254668Y226428D01*
X254368Y226278D01*
X217173Y221735D02*
X217323Y221435D01*
X217623Y221135D01*
X217923Y220985D01*
X218373Y220835D01*
X219123D01*
X219572Y220985D01*
X219872Y221135D01*
X220172Y221435D01*
X220322Y221735D01*
Y222335D01*
X220172Y222635D01*
X219872Y222934D01*
X219572Y223084D01*
X219123Y223234D01*
X218373D01*
X217923Y223084D01*
X217623Y222934D01*
X217323Y222635D01*
X217173Y222335D01*
Y221735D01*
X219722Y222185D02*
X220622Y223084D01*
X217773Y223969D02*
X217623Y224269D01*
X217173Y224719D01*
X220322D01*
X217923Y226428D02*
X217773D01*
X217473Y226578D01*
X217323Y226728D01*
X217173Y227028D01*
Y227628D01*
X217323Y227928D01*
X217473Y228078D01*
X217773Y228228D01*
X218073D01*
X218373Y228078D01*
X218823Y227778D01*
X220322Y226278D01*
Y228378D01*
X217173Y140323D02*
X217323Y140023D01*
X217623Y139723D01*
X217923Y139573D01*
X218373Y139423D01*
X219123D01*
X219572Y139573D01*
X219872Y139723D01*
X220172Y140023D01*
X220322Y140323D01*
Y140923D01*
X220172Y141223D01*
X219872Y141523D01*
X219572Y141673D01*
X219123Y141822D01*
X218373D01*
X217923Y141673D01*
X217623Y141523D01*
X217323Y141223D01*
X217173Y140923D01*
Y140323D01*
X219722Y140773D02*
X220622Y141673D01*
X217773Y142557D02*
X217623Y142857D01*
X217173Y143307D01*
X220322D01*
X217773Y144866D02*
X217623Y145166D01*
X217173Y145616D01*
X220322D01*
X251425Y139648D02*
X251575Y139348D01*
X251875Y139048D01*
X252175Y138898D01*
X252625Y138749D01*
X253375D01*
X253824Y138898D01*
X254124Y139048D01*
X254424Y139348D01*
X254574Y139648D01*
Y140248D01*
X254424Y140548D01*
X254124Y140848D01*
X253824Y140998D01*
X253375Y141148D01*
X252625D01*
X252175Y140998D01*
X251875Y140848D01*
X251575Y140548D01*
X251425Y140248D01*
Y139648D01*
X253974Y140098D02*
X254874Y140998D01*
X252025Y141882D02*
X251875Y142182D01*
X251425Y142632D01*
X254574D01*
X251425Y145091D02*
X251575Y144641D01*
X252025Y144342D01*
X252775Y144192D01*
X253225D01*
X253974Y144342D01*
X254424Y144641D01*
X254574Y145091D01*
Y145391D01*
X254424Y145841D01*
X253974Y146141D01*
X253225Y146291D01*
X252775D01*
X252025Y146141D01*
X251575Y145841D01*
X251425Y145391D01*
Y145091D01*
X138748Y140484D02*
X138898Y140184D01*
X139198Y139884D01*
X139497Y139734D01*
X139947Y139585D01*
X140697D01*
X141147Y139734D01*
X141447Y139884D01*
X141747Y140184D01*
X141897Y140484D01*
Y141084D01*
X141747Y141384D01*
X141447Y141684D01*
X141147Y141834D01*
X140697Y141984D01*
X139947D01*
X139497Y141834D01*
X139198Y141684D01*
X138898Y141384D01*
X138748Y141084D01*
Y140484D01*
X141297Y140934D02*
X142197Y141834D01*
X139797Y144668D02*
X140247Y144518D01*
X140547Y144218D01*
X140697Y143768D01*
Y143618D01*
X140547Y143168D01*
X140247Y142868D01*
X139797Y142718D01*
X139647D01*
X139198Y142868D01*
X138898Y143168D01*
X138748Y143618D01*
Y143768D01*
X138898Y144218D01*
X139198Y144518D01*
X139797Y144668D01*
X140547D01*
X141297Y144518D01*
X141747Y144218D01*
X141897Y143768D01*
Y143468D01*
X141747Y143018D01*
X141447Y142868D01*
X173472Y140409D02*
X173622Y140109D01*
X173922Y139809D01*
X174222Y139659D01*
X174672Y139509D01*
X175422D01*
X175872Y139659D01*
X176172Y139809D01*
X176471Y140109D01*
X176621Y140409D01*
Y141009D01*
X176471Y141309D01*
X176172Y141609D01*
X175872Y141759D01*
X175422Y141909D01*
X174672D01*
X174222Y141759D01*
X173922Y141609D01*
X173622Y141309D01*
X173472Y141009D01*
Y140409D01*
X176022Y140859D02*
X176921Y141759D01*
X173472Y143393D02*
X173622Y142943D01*
X173922Y142793D01*
X174222D01*
X174522Y142943D01*
X174672Y143243D01*
X174822Y143843D01*
X174972Y144293D01*
X175272Y144593D01*
X175572Y144743D01*
X176022D01*
X176321Y144593D01*
X176471Y144443D01*
X176621Y143993D01*
Y143393D01*
X176471Y142943D01*
X176321Y142793D01*
X176022Y142643D01*
X175572D01*
X175272Y142793D01*
X174972Y143093D01*
X174822Y143543D01*
X174672Y144143D01*
X174522Y144443D01*
X174222Y144593D01*
X173922D01*
X173622Y144443D01*
X173472Y143993D01*
Y143393D01*
X60185Y140409D02*
X60335Y140109D01*
X60635Y139809D01*
X60935Y139659D01*
X61385Y139509D01*
X62134D01*
X62584Y139659D01*
X62884Y139809D01*
X63184Y140109D01*
X63334Y140409D01*
Y141009D01*
X63184Y141309D01*
X62884Y141609D01*
X62584Y141759D01*
X62134Y141909D01*
X61385D01*
X60935Y141759D01*
X60635Y141609D01*
X60335Y141309D01*
X60185Y141009D01*
Y140409D01*
X62734Y140859D02*
X63634Y141759D01*
X60185Y144743D02*
X63334Y143243D01*
X60185Y142643D02*
Y144743D01*
X94339Y140484D02*
X94489Y140184D01*
X94788Y139884D01*
X95088Y139734D01*
X95538Y139584D01*
X96288D01*
X96738Y139734D01*
X97038Y139884D01*
X97338Y140184D01*
X97487Y140484D01*
Y141084D01*
X97338Y141384D01*
X97038Y141684D01*
X96738Y141834D01*
X96288Y141983D01*
X95538D01*
X95088Y141834D01*
X94788Y141684D01*
X94489Y141384D01*
X94339Y141084D01*
Y140484D01*
X96888Y140934D02*
X97787Y141834D01*
X94788Y144518D02*
X94489Y144368D01*
X94339Y143918D01*
Y143618D01*
X94489Y143168D01*
X94938Y142868D01*
X95688Y142718D01*
X96438D01*
X97038Y142868D01*
X97338Y143168D01*
X97487Y143618D01*
Y143768D01*
X97338Y144218D01*
X97038Y144518D01*
X96588Y144668D01*
X96438D01*
X95988Y144518D01*
X95688Y144218D01*
X95538Y143768D01*
Y143618D01*
X95688Y143168D01*
X95988Y142868D01*
X96438Y142718D01*
X94339Y55370D02*
X94489Y55070D01*
X94788Y54770D01*
X95088Y54620D01*
X95538Y54470D01*
X96288D01*
X96738Y54620D01*
X97038Y54770D01*
X97338Y55070D01*
X97487Y55370D01*
Y55970D01*
X97338Y56269D01*
X97038Y56569D01*
X96738Y56719D01*
X96288Y56869D01*
X95538D01*
X95088Y56719D01*
X94788Y56569D01*
X94489Y56269D01*
X94339Y55970D01*
Y55370D01*
X96888Y55819D02*
X97787Y56719D01*
X94339Y59403D02*
Y57904D01*
X95688Y57754D01*
X95538Y57904D01*
X95388Y58354D01*
Y58803D01*
X95538Y59253D01*
X95838Y59553D01*
X96288Y59703D01*
X96588D01*
X97038Y59553D01*
X97338Y59253D01*
X97487Y58803D01*
Y58354D01*
X97338Y57904D01*
X97188Y57754D01*
X96888Y57604D01*
X59693Y55295D02*
X59843Y54995D01*
X60143Y54695D01*
X60443Y54545D01*
X60892Y54395D01*
X61642D01*
X62092Y54545D01*
X62392Y54695D01*
X62692Y54995D01*
X62842Y55295D01*
Y55895D01*
X62692Y56194D01*
X62392Y56494D01*
X62092Y56644D01*
X61642Y56794D01*
X60892D01*
X60443Y56644D01*
X60143Y56494D01*
X59843Y56194D01*
X59693Y55895D01*
Y55295D01*
X62242Y55745D02*
X63142Y56644D01*
X59693Y59028D02*
X61792Y57529D01*
Y59778D01*
X59693Y59028D02*
X62842D01*
X172685Y55370D02*
X172835Y55070D01*
X173135Y54770D01*
X173435Y54620D01*
X173885Y54470D01*
X174634D01*
X175084Y54620D01*
X175384Y54770D01*
X175684Y55070D01*
X175834Y55370D01*
Y55970D01*
X175684Y56269D01*
X175384Y56569D01*
X175084Y56719D01*
X174634Y56869D01*
X173885D01*
X173435Y56719D01*
X173135Y56569D01*
X172835Y56269D01*
X172685Y55970D01*
Y55370D01*
X175234Y55819D02*
X176134Y56719D01*
X172685Y57904D02*
Y59553D01*
X173885Y58654D01*
Y59103D01*
X174035Y59403D01*
X174185Y59553D01*
X174634Y59703D01*
X174934D01*
X175384Y59553D01*
X175684Y59253D01*
X175834Y58803D01*
Y58354D01*
X175684Y57904D01*
X175534Y57754D01*
X175234Y57604D01*
X139102Y55370D02*
X139252Y55070D01*
X139552Y54770D01*
X139851Y54620D01*
X140301Y54470D01*
X141051D01*
X141501Y54620D01*
X141801Y54770D01*
X142101Y55070D01*
X142251Y55370D01*
Y55970D01*
X142101Y56270D01*
X141801Y56569D01*
X141501Y56719D01*
X141051Y56869D01*
X140301D01*
X139851Y56719D01*
X139552Y56569D01*
X139252Y56270D01*
X139102Y55970D01*
Y55370D01*
X141651Y55820D02*
X142551Y56719D01*
X139851Y57754D02*
X139702D01*
X139402Y57904D01*
X139252Y58054D01*
X139102Y58354D01*
Y58954D01*
X139252Y59254D01*
X139402Y59403D01*
X139702Y59553D01*
X140001D01*
X140301Y59403D01*
X140751Y59104D01*
X142251Y57604D01*
Y59703D01*
X216779Y55651D02*
X216930Y55351D01*
X217229Y55051D01*
X217529Y54901D01*
X217979Y54751D01*
X218729D01*
X219179Y54901D01*
X219479Y55051D01*
X219778Y55351D01*
X219929Y55651D01*
Y56251D01*
X219778Y56551D01*
X219479Y56850D01*
X219179Y57000D01*
X218729Y57150D01*
X217979D01*
X217529Y57000D01*
X217229Y56850D01*
X216930Y56551D01*
X216779Y56251D01*
Y55651D01*
X219329Y56101D02*
X220228Y57000D01*
X217379Y57885D02*
X217229Y58185D01*
X216779Y58635D01*
X219929D01*
X299500Y259631D02*
X300455Y260585D01*
X300667Y261009D01*
Y261221D01*
X300561Y261539D01*
X300243Y261857D01*
X299925Y261963D01*
X299713D01*
X299289Y261751D01*
X298334Y260797D01*
X300561Y258570D01*
X300953Y262356D02*
X300847Y262462D01*
X300741Y262780D01*
Y262992D01*
X300847Y263310D01*
X301271Y263734D01*
X301589Y263840D01*
X301801D01*
X302119Y263734D01*
X302331Y263522D01*
X302438Y263204D01*
X302544Y262674D01*
Y260553D01*
X304028Y262038D01*
X181890Y271872D02*
X185039D01*
X181890D02*
Y273821D01*
X183390Y271872D02*
Y273071D01*
X181890Y274181D02*
X185039D01*
X181890D02*
Y275530D01*
X182040Y275980D01*
X182190Y276130D01*
X182490Y276280D01*
X182790D01*
X183090Y276130D01*
X183240Y275980D01*
X183390Y275530D01*
Y274181D02*
Y275530D01*
X183540Y275980D01*
X183689Y276130D01*
X183989Y276280D01*
X184439D01*
X184739Y276130D01*
X184889Y275980D01*
X185039Y275530D01*
Y274181D01*
X182490Y276985D02*
X182340Y277285D01*
X181890Y277735D01*
X185039D01*
X262903Y268897D02*
Y265748D01*
Y268897D02*
X263952D01*
X264402Y268747D01*
X264702Y268447D01*
X264852Y268148D01*
X265002Y267698D01*
Y266948D01*
X264852Y266498D01*
X264702Y266198D01*
X264402Y265898D01*
X263952Y265748D01*
X262903D01*
X266007Y268897D02*
X267656D01*
X266756Y267698D01*
X267206D01*
X267506Y267548D01*
X267656Y267398D01*
X267806Y266948D01*
Y266648D01*
X267656Y266198D01*
X267356Y265898D01*
X266906Y265748D01*
X266457D01*
X266007Y265898D01*
X265857Y266048D01*
X265707Y266348D01*
X159247Y290157D02*
Y287008D01*
Y290157D02*
X160296D01*
X160746Y290007D01*
X161046Y289707D01*
X161196Y289407D01*
X161346Y288958D01*
Y288208D01*
X161196Y287758D01*
X161046Y287458D01*
X160746Y287158D01*
X160296Y287008D01*
X159247D01*
X162051Y289557D02*
X162351Y289707D01*
X162801Y290157D01*
Y287008D01*
X246419Y57687D02*
X246119Y57537D01*
X245820Y57237D01*
X245670Y56937D01*
Y56337D01*
X245820Y56037D01*
X246119Y55738D01*
X246419Y55588D01*
X246869Y55438D01*
X247619D01*
X248069Y55588D01*
X248369Y55738D01*
X248669Y56037D01*
X248819Y56337D01*
Y56937D01*
X248669Y57237D01*
X248369Y57537D01*
X248069Y57687D01*
X246119Y60371D02*
X245820Y60221D01*
X245670Y59771D01*
Y59471D01*
X245820Y59022D01*
X246269Y58722D01*
X247019Y58572D01*
X247769D01*
X248369Y58722D01*
X248669Y59022D01*
X248819Y59471D01*
Y59621D01*
X248669Y60071D01*
X248369Y60371D01*
X247919Y60521D01*
X247769D01*
X247319Y60371D01*
X247019Y60071D01*
X246869Y59621D01*
Y59471D01*
X247019Y59022D01*
X247319Y58722D01*
X247769Y58572D01*
X245670Y62710D02*
X247769Y61211D01*
Y63460D01*
X245670Y62710D02*
X248819D01*
X99175Y252857D02*
X98875Y252707D01*
X98576Y252407D01*
X98426Y252108D01*
Y251508D01*
X98576Y251208D01*
X98875Y250908D01*
X99175Y250758D01*
X99625Y250608D01*
X100375D01*
X100825Y250758D01*
X101125Y250908D01*
X101425Y251208D01*
X101575Y251508D01*
Y252108D01*
X101425Y252407D01*
X101125Y252707D01*
X100825Y252857D01*
X98875Y255541D02*
X98576Y255391D01*
X98426Y254942D01*
Y254642D01*
X98576Y254192D01*
X99025Y253892D01*
X99775Y253742D01*
X100525D01*
X101125Y253892D01*
X101425Y254192D01*
X101575Y254642D01*
Y254792D01*
X101425Y255241D01*
X101125Y255541D01*
X100675Y255691D01*
X100525D01*
X100075Y255541D01*
X99775Y255241D01*
X99625Y254792D01*
Y254642D01*
X99775Y254192D01*
X100075Y253892D01*
X100525Y253742D01*
X177522Y253645D02*
X177222Y253495D01*
X176922Y253195D01*
X176772Y252895D01*
Y252295D01*
X176922Y251995D01*
X177222Y251695D01*
X177522Y251545D01*
X177972Y251395D01*
X178721D01*
X179171Y251545D01*
X179471Y251695D01*
X179771Y251995D01*
X179921Y252295D01*
Y252895D01*
X179771Y253195D01*
X179471Y253495D01*
X179171Y253645D01*
X177822Y256479D02*
X178271Y256329D01*
X178571Y256029D01*
X178721Y255579D01*
Y255429D01*
X178571Y254979D01*
X178271Y254679D01*
X177822Y254529D01*
X177672D01*
X177222Y254679D01*
X176922Y254979D01*
X176772Y255429D01*
Y255579D01*
X176922Y256029D01*
X177222Y256329D01*
X177822Y256479D01*
X178571D01*
X179321Y256329D01*
X179771Y256029D01*
X179921Y255579D01*
Y255279D01*
X179771Y254829D01*
X179471Y254679D01*
X255474Y251234D02*
X255175Y251084D01*
X254875Y250784D01*
X254725Y250484D01*
Y249884D01*
X254875Y249585D01*
X255175Y249285D01*
X255474Y249135D01*
X255924Y248985D01*
X256674D01*
X257124Y249135D01*
X257424Y249285D01*
X257724Y249585D01*
X257874Y249884D01*
Y250484D01*
X257724Y250784D01*
X257424Y251084D01*
X257124Y251234D01*
X255325Y252119D02*
X255175Y252418D01*
X254725Y252868D01*
X257874D01*
X254725Y255328D02*
X254875Y254878D01*
X255325Y254578D01*
X256074Y254428D01*
X256524D01*
X257274Y254578D01*
X257724Y254878D01*
X257874Y255328D01*
Y255627D01*
X257724Y256077D01*
X257274Y256377D01*
X256524Y256527D01*
X256074D01*
X255325Y256377D01*
X254875Y256077D01*
X254725Y255627D01*
Y255328D01*
X214530Y190825D02*
X214230Y190675D01*
X213930Y190375D01*
X213780Y190076D01*
Y189476D01*
X213930Y189176D01*
X214230Y188876D01*
X214530Y188726D01*
X214980Y188576D01*
X215729D01*
X216179Y188726D01*
X216479Y188876D01*
X216779Y189176D01*
X216929Y189476D01*
Y190076D01*
X216779Y190375D01*
X216479Y190675D01*
X216179Y190825D01*
X213780Y193210D02*
X215879Y191710D01*
Y193959D01*
X213780Y193210D02*
X216929D01*
X214829Y196463D02*
X215279Y196313D01*
X215579Y196013D01*
X215729Y195564D01*
Y195414D01*
X215579Y194964D01*
X215279Y194664D01*
X214829Y194514D01*
X214680D01*
X214230Y194664D01*
X213930Y194964D01*
X213780Y195414D01*
Y195564D01*
X213930Y196013D01*
X214230Y196313D01*
X214829Y196463D01*
X215579D01*
X216329Y196313D01*
X216779Y196013D01*
X216929Y195564D01*
Y195264D01*
X216779Y194814D01*
X216479Y194664D01*
X135790Y189963D02*
X135490Y189813D01*
X135190Y189513D01*
X135040Y189213D01*
Y188613D01*
X135190Y188313D01*
X135490Y188014D01*
X135790Y187864D01*
X136239Y187714D01*
X136989D01*
X137439Y187864D01*
X137739Y188014D01*
X138039Y188313D01*
X138189Y188613D01*
Y189213D01*
X138039Y189513D01*
X137739Y189813D01*
X137439Y189963D01*
X135040Y192347D02*
X137139Y190848D01*
Y193097D01*
X135040Y192347D02*
X138189D01*
X135040Y194401D02*
X135190Y193951D01*
X135490Y193802D01*
X135790D01*
X136089Y193951D01*
X136239Y194251D01*
X136389Y194851D01*
X136539Y195301D01*
X136839Y195601D01*
X137139Y195751D01*
X137589D01*
X137889Y195601D01*
X138039Y195451D01*
X138189Y195001D01*
Y194401D01*
X138039Y193951D01*
X137889Y193802D01*
X137589Y193652D01*
X137139D01*
X136839Y193802D01*
X136539Y194102D01*
X136389Y194551D01*
X136239Y195151D01*
X136089Y195451D01*
X135790Y195601D01*
X135490D01*
X135190Y195451D01*
X135040Y195001D01*
Y194401D01*
X57049Y189963D02*
X56749Y189813D01*
X56450Y189513D01*
X56300Y189213D01*
Y188613D01*
X56450Y188313D01*
X56749Y188014D01*
X57049Y187864D01*
X57499Y187714D01*
X58249D01*
X58699Y187864D01*
X58999Y188014D01*
X59298Y188313D01*
X59448Y188613D01*
Y189213D01*
X59298Y189513D01*
X58999Y189813D01*
X58699Y189963D01*
X56300Y192347D02*
X58399Y190848D01*
Y193097D01*
X56300Y192347D02*
X59448D01*
X56300Y195751D02*
X59448Y194251D01*
X56300Y193652D02*
Y195751D01*
X98388Y87676D02*
X98088Y87526D01*
X97788Y87226D01*
X97638Y86926D01*
Y86326D01*
X97788Y86026D01*
X98088Y85726D01*
X98388Y85576D01*
X98838Y85426D01*
X99588D01*
X100037Y85576D01*
X100337Y85726D01*
X100637Y86026D01*
X100787Y86326D01*
Y86926D01*
X100637Y87226D01*
X100337Y87526D01*
X100037Y87676D01*
X97638Y90360D02*
Y88860D01*
X98988Y88710D01*
X98838Y88860D01*
X98688Y89310D01*
Y89760D01*
X98838Y90210D01*
X99138Y90510D01*
X99588Y90660D01*
X99887D01*
X100337Y90510D01*
X100637Y90210D01*
X100787Y89760D01*
Y89310D01*
X100637Y88860D01*
X100487Y88710D01*
X100187Y88560D01*
X98088Y93164D02*
X97788Y93014D01*
X97638Y92564D01*
Y92264D01*
X97788Y91814D01*
X98238Y91514D01*
X98988Y91364D01*
X99737D01*
X100337Y91514D01*
X100637Y91814D01*
X100787Y92264D01*
Y92414D01*
X100637Y92864D01*
X100337Y93164D01*
X99887Y93314D01*
X99737D01*
X99288Y93164D01*
X98988Y92864D01*
X98838Y92414D01*
Y92264D01*
X98988Y91814D01*
X99288Y91514D01*
X99737Y91364D01*
X176734Y88782D02*
X176434Y88632D01*
X176135Y88332D01*
X175985Y88032D01*
Y87432D01*
X176135Y87132D01*
X176434Y86832D01*
X176734Y86682D01*
X177184Y86532D01*
X177934D01*
X178384Y86682D01*
X178684Y86832D01*
X178984Y87132D01*
X179133Y87432D01*
Y88032D01*
X178984Y88332D01*
X178684Y88632D01*
X178384Y88782D01*
X175985Y91466D02*
Y89966D01*
X177334Y89816D01*
X177184Y89966D01*
X177034Y90416D01*
Y90866D01*
X177184Y91316D01*
X177484Y91616D01*
X177934Y91766D01*
X178234D01*
X178684Y91616D01*
X178984Y91316D01*
X179133Y90866D01*
Y90416D01*
X178984Y89966D01*
X178834Y89816D01*
X178534Y89666D01*
X175985Y94570D02*
X179133Y93070D01*
X175985Y92471D02*
Y94570D01*
X120510Y190071D02*
X120810Y190221D01*
X121110Y190521D01*
X121259Y190821D01*
Y191420D01*
X121110Y191720D01*
X120810Y192020D01*
X120510Y192170D01*
X120060Y192320D01*
X119310D01*
X118860Y192170D01*
X118560Y192020D01*
X118261Y191720D01*
X118111Y191420D01*
Y190821D01*
X118261Y190521D01*
X118560Y190221D01*
X118860Y190071D01*
X121259Y187687D02*
X119160Y189186D01*
Y186937D01*
X121259Y187687D02*
X118111D01*
X120660Y186382D02*
X120810Y186082D01*
X121259Y185633D01*
X118111D01*
X126809Y190352D02*
X127109Y190502D01*
X127409Y190802D01*
X127559Y191102D01*
Y191702D01*
X127409Y192001D01*
X127109Y192301D01*
X126809Y192451D01*
X126359Y192601D01*
X125609D01*
X125160Y192451D01*
X124860Y192301D01*
X124560Y192001D01*
X124410Y191702D01*
Y191102D01*
X124560Y190802D01*
X124860Y190502D01*
X125160Y190352D01*
X127559Y187968D02*
X125459Y189467D01*
Y187218D01*
X127559Y187968D02*
X124410D01*
X127559Y185764D02*
X127409Y186214D01*
X126959Y186513D01*
X126209Y186663D01*
X125759D01*
X125010Y186513D01*
X124560Y186214D01*
X124410Y185764D01*
Y185464D01*
X124560Y185014D01*
X125010Y184714D01*
X125759Y184564D01*
X126209D01*
X126959Y184714D01*
X127409Y185014D01*
X127559Y185464D01*
Y185764D01*
X205155Y190671D02*
X205455Y190821D01*
X205755Y191121D01*
X205905Y191421D01*
Y192020D01*
X205755Y192320D01*
X205455Y192620D01*
X205155Y192770D01*
X204706Y192920D01*
X203956D01*
X203506Y192770D01*
X203206Y192620D01*
X202906Y192320D01*
X202756Y192020D01*
Y191421D01*
X202906Y191121D01*
X203206Y190821D01*
X203506Y190671D01*
X205905Y189486D02*
Y187837D01*
X204706Y188736D01*
Y188287D01*
X204556Y187987D01*
X204406Y187837D01*
X203956Y187687D01*
X203656D01*
X203206Y187837D01*
X202906Y188137D01*
X202756Y188586D01*
Y189036D01*
X202906Y189486D01*
X203056Y189636D01*
X203356Y189786D01*
X204855Y185033D02*
X204406Y185183D01*
X204106Y185483D01*
X203956Y185932D01*
Y186082D01*
X204106Y186532D01*
X204406Y186832D01*
X204855Y186982D01*
X205006D01*
X205455Y186832D01*
X205755Y186532D01*
X205905Y186082D01*
Y185932D01*
X205755Y185483D01*
X205455Y185183D01*
X204855Y185033D01*
X204106D01*
X203356Y185183D01*
X202906Y185483D01*
X202756Y185932D01*
Y186232D01*
X202906Y186682D01*
X203206Y186832D01*
X198856Y190352D02*
X199156Y190502D01*
X199456Y190802D01*
X199606Y191102D01*
Y191702D01*
X199456Y192001D01*
X199156Y192301D01*
X198856Y192451D01*
X198406Y192601D01*
X197657D01*
X197207Y192451D01*
X196907Y192301D01*
X196607Y192001D01*
X196457Y191702D01*
Y191102D01*
X196607Y190802D01*
X196907Y190502D01*
X197207Y190352D01*
X199606Y189167D02*
Y187518D01*
X198406Y188418D01*
Y187968D01*
X198256Y187668D01*
X198107Y187518D01*
X197657Y187368D01*
X197357D01*
X196907Y187518D01*
X196607Y187818D01*
X196457Y188268D01*
Y188718D01*
X196607Y189167D01*
X196757Y189317D01*
X197057Y189467D01*
X199606Y185914D02*
X199456Y186363D01*
X199156Y186513D01*
X198856D01*
X198556Y186363D01*
X198406Y186064D01*
X198256Y185464D01*
X198107Y185014D01*
X197807Y184714D01*
X197507Y184564D01*
X197057D01*
X196757Y184714D01*
X196607Y184864D01*
X196457Y185314D01*
Y185914D01*
X196607Y186363D01*
X196757Y186513D01*
X197057Y186663D01*
X197507D01*
X197807Y186513D01*
X198107Y186214D01*
X198256Y185764D01*
X198406Y185164D01*
X198556Y184864D01*
X198856Y184714D01*
X199156D01*
X199456Y184864D01*
X199606Y185314D01*
Y185914D01*
X277596Y190352D02*
X277896Y190502D01*
X278196Y190802D01*
X278346Y191102D01*
Y191702D01*
X278196Y192001D01*
X277896Y192301D01*
X277596Y192451D01*
X277147Y192601D01*
X276397D01*
X275947Y192451D01*
X275647Y192301D01*
X275347Y192001D01*
X275197Y191702D01*
Y191102D01*
X275347Y190802D01*
X275647Y190502D01*
X275947Y190352D01*
X278346Y189167D02*
Y187518D01*
X277147Y188418D01*
Y187968D01*
X276997Y187668D01*
X276847Y187518D01*
X276397Y187368D01*
X276097D01*
X275647Y187518D01*
X275347Y187818D01*
X275197Y188268D01*
Y188718D01*
X275347Y189167D01*
X275497Y189317D01*
X275797Y189467D01*
X278346Y184564D02*
X275197Y186064D01*
X278346Y186663D02*
Y184564D01*
X283896Y190170D02*
X284195Y190320D01*
X284495Y190620D01*
X284645Y190920D01*
Y191520D01*
X284495Y191820D01*
X284195Y192120D01*
X283896Y192270D01*
X283446Y192420D01*
X282696D01*
X282246Y192270D01*
X281946Y192120D01*
X281646Y191820D01*
X281496Y191520D01*
Y190920D01*
X281646Y190620D01*
X281946Y190320D01*
X282246Y190170D01*
X284645Y188986D02*
Y187336D01*
X283446Y188236D01*
Y187786D01*
X283296Y187486D01*
X283146Y187336D01*
X282696Y187186D01*
X282396D01*
X281946Y187336D01*
X281646Y187636D01*
X281496Y188086D01*
Y188536D01*
X281646Y188986D01*
X281796Y189136D01*
X282096Y189286D01*
X284195Y184682D02*
X284495Y184832D01*
X284645Y185282D01*
Y185582D01*
X284495Y186032D01*
X284046Y186332D01*
X283296Y186482D01*
X282546D01*
X281946Y186332D01*
X281646Y186032D01*
X281496Y185582D01*
Y185432D01*
X281646Y184982D01*
X281946Y184682D01*
X282396Y184532D01*
X282546D01*
X282996Y184682D01*
X283296Y184982D01*
X283446Y185432D01*
Y185582D01*
X283296Y186032D01*
X282996Y186332D01*
X282546Y186482D01*
X119884Y214604D02*
X119734Y214904D01*
X119434Y215204D01*
X119134Y215354D01*
X118535D01*
X118235Y215204D01*
X117935Y214904D01*
X117785Y214604D01*
X117635Y214154D01*
Y213405D01*
X117785Y212955D01*
X117935Y212655D01*
X118235Y212355D01*
X118535Y212205D01*
X119134D01*
X119434Y212355D01*
X119734Y212655D01*
X119884Y212955D01*
X121069Y215354D02*
X122718D01*
X121818Y214154D01*
X122268D01*
X122568Y214004D01*
X122718Y213855D01*
X122868Y213405D01*
Y213105D01*
X122718Y212655D01*
X122418Y212355D01*
X121968Y212205D01*
X121519D01*
X121069Y212355D01*
X120919Y212505D01*
X120769Y212805D01*
X125372Y215354D02*
X123873D01*
X123723Y214004D01*
X123873Y214154D01*
X124323Y214304D01*
X124773D01*
X125222Y214154D01*
X125522Y213855D01*
X125672Y213405D01*
Y213105D01*
X125522Y212655D01*
X125222Y212355D01*
X124773Y212205D01*
X124323D01*
X123873Y212355D01*
X123723Y212505D01*
X123573Y212805D01*
X198549Y214604D02*
X198399Y214904D01*
X198100Y215204D01*
X197800Y215354D01*
X197200D01*
X196900Y215204D01*
X196600Y214904D01*
X196450Y214604D01*
X196300Y214154D01*
Y213405D01*
X196450Y212955D01*
X196600Y212655D01*
X196900Y212355D01*
X197200Y212205D01*
X197800D01*
X198100Y212355D01*
X198399Y212655D01*
X198549Y212955D01*
X199734Y215354D02*
X201383D01*
X200484Y214154D01*
X200934D01*
X201233Y214004D01*
X201383Y213855D01*
X201533Y213405D01*
Y213105D01*
X201383Y212655D01*
X201083Y212355D01*
X200634Y212205D01*
X200184D01*
X199734Y212355D01*
X199584Y212505D01*
X199434Y212805D01*
X203738Y215354D02*
X202238Y213255D01*
X204487D01*
X203738Y215354D02*
Y212205D01*
X276971Y214604D02*
X276821Y214904D01*
X276521Y215204D01*
X276221Y215354D01*
X275621D01*
X275321Y215204D01*
X275021Y214904D01*
X274871Y214604D01*
X274722Y214154D01*
Y213405D01*
X274871Y212955D01*
X275021Y212655D01*
X275321Y212355D01*
X275621Y212205D01*
X276221D01*
X276521Y212355D01*
X276821Y212655D01*
X276971Y212955D01*
X278155Y215354D02*
X279805D01*
X278905Y214154D01*
X279355D01*
X279655Y214004D01*
X279805Y213855D01*
X279955Y213405D01*
Y213105D01*
X279805Y212655D01*
X279505Y212355D01*
X279055Y212205D01*
X278605D01*
X278155Y212355D01*
X278005Y212505D01*
X277855Y212805D01*
X280959Y215354D02*
X282609D01*
X281709Y214154D01*
X282159D01*
X282459Y214004D01*
X282609Y213855D01*
X282759Y213405D01*
Y213105D01*
X282609Y212655D01*
X282309Y212355D01*
X281859Y212205D01*
X281409D01*
X280959Y212355D01*
X280809Y212505D01*
X280660Y212805D01*
X282640Y104136D02*
X282340Y103986D01*
X282040Y103686D01*
X281890Y103386D01*
Y102787D01*
X282040Y102487D01*
X282340Y102187D01*
X282640Y102037D01*
X283090Y101887D01*
X283839D01*
X284289Y102037D01*
X284589Y102187D01*
X284889Y102487D01*
X285039Y102787D01*
Y103386D01*
X284889Y103686D01*
X284589Y103986D01*
X284289Y104136D01*
X281890Y105321D02*
Y106970D01*
X283090Y106070D01*
Y106520D01*
X283240Y106820D01*
X283390Y106970D01*
X283839Y107120D01*
X284139D01*
X284589Y106970D01*
X284889Y106670D01*
X285039Y106220D01*
Y105771D01*
X284889Y105321D01*
X284739Y105171D01*
X284439Y105021D01*
X282640Y107975D02*
X282490D01*
X282190Y108125D01*
X282040Y108275D01*
X281890Y108575D01*
Y109174D01*
X282040Y109474D01*
X282190Y109624D01*
X282490Y109774D01*
X282790D01*
X283090Y109624D01*
X283540Y109324D01*
X285039Y107825D01*
Y109924D01*
X276341Y104811D02*
X276041Y104661D01*
X275741Y104361D01*
X275591Y104061D01*
Y103461D01*
X275741Y103161D01*
X276041Y102861D01*
X276341Y102712D01*
X276790Y102562D01*
X277540D01*
X277990Y102712D01*
X278290Y102861D01*
X278590Y103161D01*
X278740Y103461D01*
Y104061D01*
X278590Y104361D01*
X278290Y104661D01*
X277990Y104811D01*
X275591Y105996D02*
Y107645D01*
X276790Y106745D01*
Y107195D01*
X276940Y107495D01*
X277090Y107645D01*
X277540Y107795D01*
X277840D01*
X278290Y107645D01*
X278590Y107345D01*
X278740Y106895D01*
Y106445D01*
X278590Y105996D01*
X278440Y105845D01*
X278140Y105696D01*
X276191Y108500D02*
X276041Y108800D01*
X275591Y109249D01*
X278740D01*
X197600Y104136D02*
X197301Y103986D01*
X197001Y103686D01*
X196851Y103386D01*
Y102787D01*
X197001Y102487D01*
X197301Y102187D01*
X197600Y102037D01*
X198050Y101887D01*
X198800D01*
X199250Y102037D01*
X199550Y102187D01*
X199850Y102487D01*
X200000Y102787D01*
Y103386D01*
X199850Y103686D01*
X199550Y103986D01*
X199250Y104136D01*
X196851Y105321D02*
Y106970D01*
X198050Y106070D01*
Y106520D01*
X198200Y106820D01*
X198350Y106970D01*
X198800Y107120D01*
X199100D01*
X199550Y106970D01*
X199850Y106670D01*
X200000Y106220D01*
Y105771D01*
X199850Y105321D01*
X199700Y105171D01*
X199400Y105021D01*
X196851Y108725D02*
X197001Y108275D01*
X197450Y107975D01*
X198200Y107825D01*
X198650D01*
X199400Y107975D01*
X199850Y108275D01*
X200000Y108725D01*
Y109025D01*
X199850Y109474D01*
X199400Y109774D01*
X198650Y109924D01*
X198200D01*
X197450Y109774D01*
X197001Y109474D01*
X196851Y109025D01*
Y108725D01*
X203900Y104211D02*
X203600Y104061D01*
X203300Y103761D01*
X203150Y103461D01*
Y102861D01*
X203300Y102562D01*
X203600Y102262D01*
X203900Y102112D01*
X204349Y101962D01*
X205099D01*
X205549Y102112D01*
X205849Y102262D01*
X206149Y102562D01*
X206299Y102861D01*
Y103461D01*
X206149Y103761D01*
X205849Y104061D01*
X205549Y104211D01*
X203900Y105246D02*
X203750D01*
X203450Y105396D01*
X203300Y105546D01*
X203150Y105845D01*
Y106445D01*
X203300Y106745D01*
X203450Y106895D01*
X203750Y107045D01*
X204050D01*
X204349Y106895D01*
X204799Y106595D01*
X206299Y105096D01*
Y107195D01*
X204200Y109849D02*
X204649Y109699D01*
X204949Y109399D01*
X205099Y108949D01*
Y108800D01*
X204949Y108350D01*
X204649Y108050D01*
X204200Y107900D01*
X204050D01*
X203600Y108050D01*
X203300Y108350D01*
X203150Y108800D01*
Y108949D01*
X203300Y109399D01*
X203600Y109699D01*
X204200Y109849D01*
X204949D01*
X205699Y109699D01*
X206149Y109399D01*
X206299Y108949D01*
Y108650D01*
X206149Y108200D01*
X205849Y108050D01*
X118860Y104136D02*
X118560Y103986D01*
X118261Y103686D01*
X118111Y103386D01*
Y102787D01*
X118261Y102487D01*
X118560Y102187D01*
X118860Y102037D01*
X119310Y101887D01*
X120060D01*
X120510Y102037D01*
X120810Y102187D01*
X121109Y102487D01*
X121259Y102787D01*
Y103386D01*
X121109Y103686D01*
X120810Y103986D01*
X120510Y104136D01*
X118860Y105171D02*
X118710D01*
X118410Y105321D01*
X118261Y105471D01*
X118111Y105771D01*
Y106370D01*
X118261Y106670D01*
X118410Y106820D01*
X118710Y106970D01*
X119010D01*
X119310Y106820D01*
X119760Y106520D01*
X121259Y105021D01*
Y107120D01*
X118111Y108575D02*
X118261Y108125D01*
X118560Y107975D01*
X118860D01*
X119160Y108125D01*
X119310Y108425D01*
X119460Y109025D01*
X119610Y109474D01*
X119910Y109774D01*
X120210Y109924D01*
X120660D01*
X120960Y109774D01*
X121109Y109624D01*
X121259Y109174D01*
Y108575D01*
X121109Y108125D01*
X120960Y107975D01*
X120660Y107825D01*
X120210D01*
X119910Y107975D01*
X119610Y108275D01*
X119460Y108725D01*
X119310Y109324D01*
X119160Y109624D01*
X118860Y109774D01*
X118560D01*
X118261Y109624D01*
X118111Y109174D01*
Y108575D01*
X125160Y104136D02*
X124860Y103986D01*
X124560Y103686D01*
X124410Y103386D01*
Y102787D01*
X124560Y102487D01*
X124860Y102187D01*
X125160Y102037D01*
X125609Y101887D01*
X126359D01*
X126809Y102037D01*
X127109Y102187D01*
X127409Y102487D01*
X127559Y102787D01*
Y103386D01*
X127409Y103686D01*
X127109Y103986D01*
X126809Y104136D01*
X125160Y105171D02*
X125010D01*
X124710Y105321D01*
X124560Y105471D01*
X124410Y105771D01*
Y106370D01*
X124560Y106670D01*
X124710Y106820D01*
X125010Y106970D01*
X125310D01*
X125609Y106820D01*
X126059Y106520D01*
X127559Y105021D01*
Y107120D01*
X124410Y109924D02*
X127559Y108425D01*
X124410Y107825D02*
Y109924D01*
X277046Y131927D02*
X276896Y132227D01*
X276596Y132527D01*
X276296Y132677D01*
X275696D01*
X275396Y132527D01*
X275096Y132227D01*
X274946Y131927D01*
X274797Y131477D01*
Y130728D01*
X274946Y130278D01*
X275096Y129978D01*
X275396Y129678D01*
X275696Y129528D01*
X276296D01*
X276596Y129678D01*
X276896Y129978D01*
X277046Y130278D01*
X278080Y131927D02*
Y132077D01*
X278230Y132377D01*
X278380Y132527D01*
X278680Y132677D01*
X279280D01*
X279580Y132527D01*
X279730Y132377D01*
X279880Y132077D01*
Y131777D01*
X279730Y131477D01*
X279430Y131027D01*
X277930Y129528D01*
X280030D01*
X282534Y132227D02*
X282384Y132527D01*
X281934Y132677D01*
X281634D01*
X281184Y132527D01*
X280884Y132077D01*
X280734Y131327D01*
Y130578D01*
X280884Y129978D01*
X281184Y129678D01*
X281634Y129528D01*
X281784D01*
X282234Y129678D01*
X282534Y129978D01*
X282684Y130428D01*
Y130578D01*
X282534Y131027D01*
X282234Y131327D01*
X281784Y131477D01*
X281634D01*
X281184Y131327D01*
X280884Y131027D01*
X280734Y130578D01*
X198624Y131927D02*
X198474Y132227D01*
X198175Y132527D01*
X197874Y132677D01*
X197275D01*
X196975Y132527D01*
X196675Y132227D01*
X196525Y131927D01*
X196375Y131477D01*
Y130728D01*
X196525Y130278D01*
X196675Y129978D01*
X196975Y129678D01*
X197275Y129528D01*
X197874D01*
X198175Y129678D01*
X198474Y129978D01*
X198624Y130278D01*
X199659Y131927D02*
Y132077D01*
X199809Y132377D01*
X199959Y132527D01*
X200259Y132677D01*
X200858D01*
X201158Y132527D01*
X201308Y132377D01*
X201458Y132077D01*
Y131777D01*
X201308Y131477D01*
X201009Y131027D01*
X199509Y129528D01*
X201608D01*
X204112Y132677D02*
X202613D01*
X202463Y131327D01*
X202613Y131477D01*
X203063Y131627D01*
X203513D01*
X203962Y131477D01*
X204262Y131177D01*
X204412Y130728D01*
Y130428D01*
X204262Y129978D01*
X203962Y129678D01*
X203513Y129528D01*
X203063D01*
X202613Y129678D01*
X202463Y129828D01*
X202313Y130128D01*
X120203Y131927D02*
X120053Y132227D01*
X119753Y132527D01*
X119453Y132677D01*
X118853D01*
X118553Y132527D01*
X118254Y132227D01*
X118104Y131927D01*
X117954Y131477D01*
Y130728D01*
X118104Y130278D01*
X118254Y129978D01*
X118553Y129678D01*
X118853Y129528D01*
X119453D01*
X119753Y129678D01*
X120053Y129978D01*
X120203Y130278D01*
X121238Y131927D02*
Y132077D01*
X121388Y132377D01*
X121537Y132527D01*
X121837Y132677D01*
X122437D01*
X122737Y132527D01*
X122887Y132377D01*
X123037Y132077D01*
Y131777D01*
X122887Y131477D01*
X122587Y131027D01*
X121088Y129528D01*
X123187D01*
X125391Y132677D02*
X123892Y130578D01*
X126141D01*
X125391Y132677D02*
Y129528D01*
X118467Y21065D02*
X118167Y20915D01*
X117867Y20615D01*
X117717Y20315D01*
Y19716D01*
X117867Y19416D01*
X118167Y19116D01*
X118467Y18966D01*
X118916Y18816D01*
X119666D01*
X120116Y18966D01*
X120416Y19116D01*
X120716Y19416D01*
X120866Y19716D01*
Y20315D01*
X120716Y20615D01*
X120416Y20915D01*
X120116Y21065D01*
X118467Y22100D02*
X118317D01*
X118017Y22250D01*
X117867Y22400D01*
X117717Y22700D01*
Y23300D01*
X117867Y23599D01*
X118017Y23749D01*
X118317Y23899D01*
X118617D01*
X118916Y23749D01*
X119366Y23449D01*
X120866Y21950D01*
Y24049D01*
X117717Y25054D02*
Y26703D01*
X118916Y25804D01*
Y26254D01*
X119066Y26553D01*
X119216Y26703D01*
X119666Y26853D01*
X119966D01*
X120416Y26703D01*
X120716Y26403D01*
X120866Y25954D01*
Y25504D01*
X120716Y25054D01*
X120566Y24904D01*
X120266Y24754D01*
X124766Y21065D02*
X124466Y20915D01*
X124166Y20615D01*
X124016Y20315D01*
Y19716D01*
X124166Y19416D01*
X124466Y19116D01*
X124766Y18966D01*
X125216Y18816D01*
X125965D01*
X126415Y18966D01*
X126715Y19116D01*
X127015Y19416D01*
X127165Y19716D01*
Y20315D01*
X127015Y20615D01*
X126715Y20915D01*
X126415Y21065D01*
X124766Y22100D02*
X124616D01*
X124316Y22250D01*
X124166Y22400D01*
X124016Y22700D01*
Y23300D01*
X124166Y23599D01*
X124316Y23749D01*
X124616Y23899D01*
X124916D01*
X125216Y23749D01*
X125665Y23449D01*
X127165Y21950D01*
Y24049D01*
X124766Y24904D02*
X124616D01*
X124316Y25054D01*
X124166Y25204D01*
X124016Y25504D01*
Y26104D01*
X124166Y26403D01*
X124316Y26553D01*
X124616Y26703D01*
X124916D01*
X125216Y26553D01*
X125665Y26254D01*
X127165Y24754D01*
Y26853D01*
X197207Y21740D02*
X196907Y21590D01*
X196607Y21290D01*
X196457Y20990D01*
Y20391D01*
X196607Y20091D01*
X196907Y19791D01*
X197207Y19641D01*
X197657Y19491D01*
X198406D01*
X198856Y19641D01*
X199156Y19791D01*
X199456Y20091D01*
X199606Y20391D01*
Y20990D01*
X199456Y21290D01*
X199156Y21590D01*
X198856Y21740D01*
X197207Y22775D02*
X197057D01*
X196757Y22925D01*
X196607Y23075D01*
X196457Y23374D01*
Y23974D01*
X196607Y24274D01*
X196757Y24424D01*
X197057Y24574D01*
X197357D01*
X197657Y24424D01*
X198107Y24124D01*
X199606Y22625D01*
Y24724D01*
X197057Y25429D02*
X196907Y25729D01*
X196457Y26179D01*
X199606D01*
X203506Y21459D02*
X203206Y21309D01*
X202906Y21009D01*
X202756Y20709D01*
Y20109D01*
X202906Y19809D01*
X203206Y19510D01*
X203506Y19360D01*
X203956Y19210D01*
X204706D01*
X205155Y19360D01*
X205455Y19510D01*
X205755Y19809D01*
X205905Y20109D01*
Y20709D01*
X205755Y21009D01*
X205455Y21309D01*
X205155Y21459D01*
X203506Y22494D02*
X203356D01*
X203056Y22644D01*
X202906Y22794D01*
X202756Y23093D01*
Y23693D01*
X202906Y23993D01*
X203056Y24143D01*
X203356Y24293D01*
X203656D01*
X203956Y24143D01*
X204406Y23843D01*
X205905Y22344D01*
Y24443D01*
X202756Y26047D02*
X202906Y25598D01*
X203356Y25298D01*
X204106Y25148D01*
X204556D01*
X205305Y25298D01*
X205755Y25598D01*
X205905Y26047D01*
Y26347D01*
X205755Y26797D01*
X205305Y27097D01*
X204556Y27247D01*
X204106D01*
X203356Y27097D01*
X202906Y26797D01*
X202756Y26347D01*
Y26047D01*
X275947Y22175D02*
X275647Y22025D01*
X275347Y21725D01*
X275197Y21425D01*
Y20825D01*
X275347Y20526D01*
X275647Y20226D01*
X275947Y20076D01*
X276397Y19926D01*
X277147D01*
X277596Y20076D01*
X277896Y20226D01*
X278196Y20526D01*
X278346Y20825D01*
Y21425D01*
X278196Y21725D01*
X277896Y22025D01*
X277596Y22175D01*
X275797Y23060D02*
X275647Y23360D01*
X275197Y23810D01*
X278346D01*
X276247Y27318D02*
X276697Y27168D01*
X276997Y26869D01*
X277147Y26419D01*
Y26269D01*
X276997Y25819D01*
X276697Y25519D01*
X276247Y25369D01*
X276097D01*
X275647Y25519D01*
X275347Y25819D01*
X275197Y26269D01*
Y26419D01*
X275347Y26869D01*
X275647Y27168D01*
X276247Y27318D01*
X276997D01*
X277746Y27168D01*
X278196Y26869D01*
X278346Y26419D01*
Y26119D01*
X278196Y25669D01*
X277896Y25519D01*
X280278Y22100D02*
X279978Y21950D01*
X279678Y21650D01*
X279528Y21350D01*
Y20751D01*
X279678Y20451D01*
X279978Y20151D01*
X280278Y20001D01*
X280728Y19851D01*
X281477D01*
X281927Y20001D01*
X282227Y20151D01*
X282527Y20451D01*
X282677Y20751D01*
Y21350D01*
X282527Y21650D01*
X282227Y21950D01*
X281927Y22100D01*
X280128Y22985D02*
X279978Y23285D01*
X279528Y23734D01*
X282677D01*
X279528Y26044D02*
X279678Y25594D01*
X279978Y25444D01*
X280278D01*
X280577Y25594D01*
X280728Y25894D01*
X280877Y26494D01*
X281027Y26943D01*
X281327Y27243D01*
X281627Y27393D01*
X282077D01*
X282377Y27243D01*
X282527Y27093D01*
X282677Y26643D01*
Y26044D01*
X282527Y25594D01*
X282377Y25444D01*
X282077Y25294D01*
X281627D01*
X281327Y25444D01*
X281027Y25744D01*
X280877Y26194D01*
X280728Y26794D01*
X280577Y27093D01*
X280278Y27243D01*
X279978D01*
X279678Y27093D01*
X279528Y26643D01*
Y26044D01*
X198872Y49250D02*
X198722Y49550D01*
X198422Y49850D01*
X198122Y50000D01*
X197522D01*
X197222Y49850D01*
X196922Y49550D01*
X196772Y49250D01*
X196623Y48800D01*
Y48050D01*
X196772Y47600D01*
X196922Y47301D01*
X197222Y47001D01*
X197522Y46851D01*
X198122D01*
X198422Y47001D01*
X198722Y47301D01*
X198872Y47600D01*
X199756Y49400D02*
X200056Y49550D01*
X200506Y50000D01*
Y46851D01*
X204165Y50000D02*
X202665Y46851D01*
X202066Y50000D02*
X204165D01*
X277687Y49250D02*
X277537Y49550D01*
X277237Y49850D01*
X276937Y50000D01*
X276337D01*
X276037Y49850D01*
X275738Y49550D01*
X275588Y49250D01*
X275438Y48800D01*
Y48050D01*
X275588Y47600D01*
X275738Y47301D01*
X276037Y47001D01*
X276337Y46851D01*
X276937D01*
X277237Y47001D01*
X277537Y47301D01*
X277687Y47600D01*
X278572Y49400D02*
X278871Y49550D01*
X279321Y50000D01*
Y46851D01*
X282680Y49550D02*
X282530Y49850D01*
X282080Y50000D01*
X281781D01*
X281331Y49850D01*
X281031Y49400D01*
X280881Y48650D01*
Y47900D01*
X281031Y47301D01*
X281331Y47001D01*
X281781Y46851D01*
X281930D01*
X282380Y47001D01*
X282680Y47301D01*
X282830Y47750D01*
Y47900D01*
X282680Y48350D01*
X282380Y48650D01*
X281930Y48800D01*
X281781D01*
X281331Y48650D01*
X281031Y48350D01*
X280881Y47900D01*
X120133Y49644D02*
X119983Y49944D01*
X119683Y50243D01*
X119383Y50393D01*
X118783D01*
X118484Y50243D01*
X118184Y49944D01*
X118034Y49644D01*
X117884Y49194D01*
Y48444D01*
X118034Y47994D01*
X118184Y47694D01*
X118484Y47394D01*
X118783Y47244D01*
X119383D01*
X119683Y47394D01*
X119983Y47694D01*
X120133Y47994D01*
X121018Y49794D02*
X121318Y49944D01*
X121767Y50393D01*
Y47244D01*
X125126Y50393D02*
X123627D01*
X123477Y49044D01*
X123627Y49194D01*
X124077Y49344D01*
X124527D01*
X124976Y49194D01*
X125276Y48894D01*
X125426Y48444D01*
Y48144D01*
X125276Y47694D01*
X124976Y47394D01*
X124527Y47244D01*
X124077D01*
X123627Y47394D01*
X123477Y47544D01*
X123327Y47844D01*
X195632Y273206D02*
X195332Y273056D01*
X195032Y272756D01*
X194882Y272456D01*
Y271857D01*
X195032Y271557D01*
X195332Y271257D01*
X195632Y271107D01*
X196082Y270957D01*
X196832D01*
X197281Y271107D01*
X197581Y271257D01*
X197881Y271557D01*
X198031Y271857D01*
Y272456D01*
X197881Y272756D01*
X197581Y273056D01*
X197281Y273206D01*
X195482Y274091D02*
X195332Y274391D01*
X194882Y274841D01*
X198031D01*
X194882Y277900D02*
X196982Y276400D01*
Y278649D01*
X194882Y277900D02*
X198031D01*
X202719Y272887D02*
X202419Y272738D01*
X202119Y272438D01*
X201969Y272138D01*
Y271538D01*
X202119Y271238D01*
X202419Y270938D01*
X202719Y270788D01*
X203168Y270638D01*
X203918D01*
X204368Y270788D01*
X204668Y270938D01*
X204968Y271238D01*
X205118Y271538D01*
Y272138D01*
X204968Y272438D01*
X204668Y272738D01*
X204368Y272887D01*
X202569Y273772D02*
X202419Y274072D01*
X201969Y274522D01*
X205118D01*
X201969Y276381D02*
Y278031D01*
X203168Y277131D01*
Y277581D01*
X203318Y277881D01*
X203468Y278031D01*
X203918Y278181D01*
X204218D01*
X204668Y278031D01*
X204968Y277731D01*
X205118Y277281D01*
Y276831D01*
X204968Y276381D01*
X204818Y276231D01*
X204518Y276081D01*
X274462Y302006D02*
X274312Y302306D01*
X274012Y302606D01*
X273712Y302756D01*
X273113D01*
X272813Y302606D01*
X272513Y302306D01*
X272363Y302006D01*
X272213Y301556D01*
Y300806D01*
X272363Y300356D01*
X272513Y300057D01*
X272813Y299757D01*
X273113Y299607D01*
X273712D01*
X274012Y299757D01*
X274312Y300057D01*
X274462Y300356D01*
X275347Y302156D02*
X275647Y302306D01*
X276097Y302756D01*
Y299607D01*
X277806Y302006D02*
Y302156D01*
X277956Y302456D01*
X278106Y302606D01*
X278406Y302756D01*
X279006D01*
X279306Y302606D01*
X279456Y302456D01*
X279606Y302156D01*
Y301856D01*
X279456Y301556D01*
X279156Y301106D01*
X277656Y299607D01*
X279755D01*
X159869Y299250D02*
X159719Y299550D01*
X159419Y299850D01*
X159119Y300000D01*
X158519D01*
X158219Y299850D01*
X157920Y299550D01*
X157770Y299250D01*
X157620Y298800D01*
Y298050D01*
X157770Y297601D01*
X157920Y297301D01*
X158219Y297001D01*
X158519Y296851D01*
X159119D01*
X159419Y297001D01*
X159719Y297301D01*
X159869Y297601D01*
X161503Y300000D02*
X161053Y299850D01*
X160904Y299550D01*
Y299250D01*
X161053Y298950D01*
X161353Y298800D01*
X161953Y298650D01*
X162403Y298500D01*
X162703Y298200D01*
X162853Y297900D01*
Y297450D01*
X162703Y297151D01*
X162553Y297001D01*
X162103Y296851D01*
X161503D01*
X161053Y297001D01*
X160904Y297151D01*
X160754Y297450D01*
Y297900D01*
X160904Y298200D01*
X161203Y298500D01*
X161653Y298650D01*
X162253Y298800D01*
X162553Y298950D01*
X162703Y299250D01*
Y299550D01*
X162553Y299850D01*
X162103Y300000D01*
X161503D01*
X159869Y307911D02*
X159719Y308211D01*
X159419Y308511D01*
X159119Y308661D01*
X158519D01*
X158219Y308511D01*
X157920Y308211D01*
X157770Y307911D01*
X157620Y307462D01*
Y306712D01*
X157770Y306262D01*
X157920Y305962D01*
X158219Y305662D01*
X158519Y305512D01*
X159119D01*
X159419Y305662D01*
X159719Y305962D01*
X159869Y306262D01*
X162853Y308661D02*
X161353Y305512D01*
X160754Y308661D02*
X162853D01*
X95238Y307113D02*
X94938Y306963D01*
X94639Y306663D01*
X94489Y306363D01*
Y305763D01*
X94639Y305464D01*
X94938Y305164D01*
X95238Y305014D01*
X95688Y304864D01*
X96438D01*
X96888Y305014D01*
X97188Y305164D01*
X97487Y305464D01*
X97637Y305763D01*
Y306363D01*
X97487Y306663D01*
X97188Y306963D01*
X96888Y307113D01*
X94489Y309797D02*
Y308297D01*
X95838Y308148D01*
X95688Y308297D01*
X95538Y308747D01*
Y309197D01*
X95688Y309647D01*
X95988Y309947D01*
X96438Y310097D01*
X96738D01*
X97188Y309947D01*
X97487Y309647D01*
X97637Y309197D01*
Y308747D01*
X97487Y308297D01*
X97338Y308148D01*
X97038Y307998D01*
X95238Y297983D02*
X94938Y297833D01*
X94639Y297533D01*
X94489Y297233D01*
Y296633D01*
X94639Y296333D01*
X94938Y296034D01*
X95238Y295884D01*
X95688Y295734D01*
X96438D01*
X96888Y295884D01*
X97188Y296034D01*
X97487Y296333D01*
X97637Y296633D01*
Y297233D01*
X97487Y297533D01*
X97188Y297833D01*
X96888Y297983D01*
X94489Y300367D02*
X96588Y298868D01*
Y301117D01*
X94489Y300367D02*
X97637D01*
X67679Y285066D02*
X67379Y284916D01*
X67079Y284616D01*
X66930Y284316D01*
Y283716D01*
X67079Y283416D01*
X67379Y283116D01*
X67679Y282966D01*
X68129Y282816D01*
X68879D01*
X69329Y282966D01*
X69629Y283116D01*
X69928Y283416D01*
X70078Y283716D01*
Y284316D01*
X69928Y284616D01*
X69629Y284916D01*
X69329Y285066D01*
X66930Y286250D02*
Y287900D01*
X68129Y287000D01*
Y287450D01*
X68279Y287750D01*
X68429Y287900D01*
X68879Y288050D01*
X69179D01*
X69629Y287900D01*
X69928Y287600D01*
X70078Y287150D01*
Y286700D01*
X69928Y286250D01*
X69779Y286100D01*
X69479Y285950D01*
X40120Y277192D02*
X39820Y277042D01*
X39520Y276742D01*
X39370Y276442D01*
Y275842D01*
X39520Y275542D01*
X39820Y275242D01*
X40120Y275092D01*
X40570Y274942D01*
X41320D01*
X41770Y275092D01*
X42070Y275242D01*
X42369Y275542D01*
X42519Y275842D01*
Y276442D01*
X42369Y276742D01*
X42070Y277042D01*
X41770Y277192D01*
X40120Y278226D02*
X39970D01*
X39670Y278376D01*
X39520Y278526D01*
X39370Y278826D01*
Y279426D01*
X39520Y279726D01*
X39670Y279876D01*
X39970Y280026D01*
X40270D01*
X40570Y279876D01*
X41020Y279576D01*
X42519Y278076D01*
Y280176D01*
X41301Y285347D02*
X41001Y285197D01*
X40701Y284897D01*
X40551Y284597D01*
Y283997D01*
X40701Y283697D01*
X41001Y283397D01*
X41301Y283247D01*
X41751Y283098D01*
X42501D01*
X42951Y283247D01*
X43251Y283397D01*
X43551Y283697D01*
X43701Y283997D01*
Y284597D01*
X43551Y284897D01*
X43251Y285197D01*
X42951Y285347D01*
X41151Y286231D02*
X41001Y286531D01*
X40551Y286981D01*
X43701D01*
M02*
